<?xml version="1.0" encoding="utf-8"?>
<!-- Generator: Adobe Illustrator 19.2.1, SVG Export Plug-In . SVG Version: 6.00 Build 0)  -->
<svg version="1.1" id="Layer_1" xmlns="http://www.w3.org/2000/svg" xmlns:xlink="http://www.w3.org/1999/xlink" x="0px" y="0px"
	 viewBox="0 0 75.5 75" enable-background="new 0 0 75.5 75" xml:space="preserve">
<g>
	<radialGradient id="SVGID_1_" cx="66.5177" cy="61.584" r="72.9531" fx="3.7958" fy="59.6863" gradientUnits="userSpaceOnUse">
		<stop  offset="0.3804" style="stop-color:#FFFFFF"/>
		<stop  offset="0.4591" style="stop-color:#F6FCFE"/>
		<stop  offset="0.5898" style="stop-color:#DCF3FB"/>
		<stop  offset="0.7566" style="stop-color:#B3E5F6"/>
		<stop  offset="0.9509" style="stop-color:#7AD2EF"/>
		<stop  offset="0.9944" style="stop-color:#6CCDED"/>
	</radialGradient>
	<rect fill="url(#SVGID_1_)" width="75.5" height="75"/>
	<g>
		<g>
			<path fill="#E6904A" d="M54.6,65.9c-0.5,0.4-1,0.8-1.6,1.2c-0.1,0.1-0.3,0.1-0.4,0c-0.1-0.1-0.1-0.3-0.1-0.4
				c0.1-0.1,0.2-0.2,0.3-0.4c-0.5,0.2-1.1,0.5-1.4-0.1c-0.2-0.4,0.4-0.5,0.6-0.7c0.3-0.2,0.6-0.2,0.9-0.5c0.3-0.2,0.5-0.6,0.8-0.8
				c0.2-0.1,0.5-0.2,0.7-0.3c0.2-0.1,0.3-0.1,0.5-0.1c0.2,0.1,0.5,0.2,0.7,0c0.3-0.2,0.5-0.6,0.9-0.1c0,0.1,0,0.2,0,0.3
				C56.1,64.8,55.3,65.3,54.6,65.9z"/>
			<path fill="#F5C693" d="M66.5,43c-0.1,0-0.1,0-0.2,0c-0.4-0.4-0.3-0.8-0.2-1.3c0.1-0.4,0.2-0.8,0.2-1.2c-0.1-0.5,0-1,0-1.5
				c0-0.4,0-0.8,0-1.3c-0.4,0.3-0.8,1.3-1.2,0c0-0.5-0.1-1,0.1-1.4c0.1-0.2,0.4-0.3,0.6-0.5c0.5-0.7,1-0.6,1.5,0
				c0.1,0.1,0.1,0.3,0.1,0.4c-0.2,0.4-0.2,0.7-0.1,1.1c-0.2,1.6-0.5,3.3-0.6,4.9C66.6,42.5,66.7,42.8,66.5,43z"/>
			<path fill="#DF7D37" d="M17.2,42.1c0.1-0.1,0.1-0.1,0.2-0.2c0-0.1,0-0.3,0.1-0.4c0.2-0.5,0.5-0.9,0.7-1.4c0-0.1,0.1-0.1,0.1-0.2
				c0.3-0.8,0.8-1.5,1.1-2.2c0.1-0.2,0.2-0.5,0.6-0.3c0.2,0.3,0.2,0.6,0.1,0.9c-0.2,0.3-0.3,0.6-0.4,0.9c-0.3,0.5-0.6,0.9-0.7,1.4
				c-0.1,0.3-0.2,0.6-0.3,0.9c-0.3,0.7-0.6,1.4-1.1,2c-0.3,0.2-0.5,0.6-0.9,0.3c-0.1-0.1-0.1-0.3-0.1-0.4C17,43,16.7,42.4,17.2,42.1
				z"/>
			<path fill="#EBA86E" d="M64.9,51.7c0,0.4,0,0.8,0,1.2c0,0.4-0.2,0.8-0.4,1.2c-0.1,0.1-0.2,0.3-0.4,0.4c0,0-0.1-0.1-0.1-0.1
				c-0.1-0.3-0.1-0.6-0.1-0.9c0.1-0.3,0.4-0.6,0.3-1c-0.5-0.8-0.2-1.4,0.3-2c0.2,0,0.3,0,0.4,0.1C65,51,65,51.3,64.9,51.7z"/>
			<path fill="#ECB98F" d="M63.3,56.4c-0.1,0-0.3,0-0.4,0c-0.1-0.1-0.1-0.2-0.1-0.4c0.1-0.3,0.3-0.6,0.4-0.9
				c0.3-0.3,0.4-0.7,0.9-0.8l0,0.1C64.1,55.2,63.5,55.7,63.3,56.4z"/>
			<path fill="#E7BF90" d="M66.1,45.4c-0.4,0.3,0,0.9-0.4,1.2c-0.2-0.2-0.2-0.5-0.3-0.7c0-0.3,0-0.5,0-0.8c0-0.2,0-0.4,0.1-0.6
				c0-0.1,0.1-0.2,0.1-0.3c0.1-0.1,0.2-0.1,0.4-0.1c0,0,0.1,0.1,0.1,0.1C66.1,44.6,66.1,45,66.1,45.4z"/>
			<path fill="#E7BF90" d="M66.3,41.6c0,0.5,0,0.9,0,1.4c0,0.4,0.1,0.8-0.2,1.2l0,0c-0.4-0.7-0.2-1.5-0.2-2.2c0-0.1,0.1-0.2,0.1-0.3
				C66.1,41.6,66.2,41.6,66.3,41.6z"/>
			<path fill="#F4BC8A" d="M10.8,70.1c0-0.1,0-0.3,0-0.4c0.3-0.5,0.1-1.2,0.3-1.7c0.2-0.2,0.4-0.2,0.6,0c0.2,0.4,0.7,0.5,1,0.6
				c0.3,0.2,0.6,0,0.9-0.1c0.6-0.1,1.3-0.1,1.9,0c2.6,0.5,5.2,0.3,7.8,0.3c0.7,0,1.4-0.2,2-0.4c1.5-0.3,2.9,0.2,4.3,0.3
				c2.2,0.1,4.3,0.4,6.5-0.2c0.3-0.1,0.7-0.1,1,0c2.4,0.6,4.9,0.2,7.3,0.3c0.6,0,1.2-0.5,1.9-0.2c0.3,0.2,0.3,0.5,0.1,0.7
				c-0.4,0.5-0.7,1-1.4,1.2c-7.8,0.1-15.7,0-23.5,0c-3.2,0-6.3,0-9.5,0C11.5,70.4,11,70.6,10.8,70.1z"/>
			<path fill="#F1C197" d="M10.8,70.1c0.4,0.2,0.8,0.2,1.2,0.2c11,0,22.1,0,33.1,0c0.3-0.3,0.7-0.3,1.1-0.3c0.7,0.1,1.3-0.6,2-0.3
				c0.1,0,0.2,0.1,0.3,0.2c-0.6,0.6-1.2,0.8-2,0.8c-11.6,0-23.3,0-34.9,0C11.3,70.6,10.6,71,10.8,70.1z"/>
			<path fill="#BC561F" d="M48.5,69.8L48.5,69.8l-0.1,0c-0.2-0.1-0.3-0.3-0.3-0.5c-0.1-0.9,0-1.9,0-2.8c0-4.3,0-8.6,0-12.9
				c0-0.5-0.1-0.9,0.2-1.3c0.8-0.2,0.7,0.4,0.7,0.9c0,1.6,0,3.1,0,4.7c0,0.4,0,0.8,0.1,1.3c0.1,0.2,0.1,0.4,0.1,0.6c0,1.7,0,3.4,0,5
				c0,1.4,0,2.8,0,4.3c0,0.2-0.1,0.4-0.2,0.5C48.9,69.7,48.6,69.7,48.5,69.8z"/>
			<path fill="#EFC79F" d="M11.2,67.9c0,0.6,0,1.3-0.4,1.8c0-2.6,0.2-5.2,0.8-7.7c0.2-0.1,0-0.6,0.5-0.4c0.2,0.2,0.1,0.5,0,0.7
				c-0.2,0.3-0.3,0.6-0.2,1c0,0.4,0,0.9,0,1.3C11.9,65.7,11.6,66.8,11.2,67.9z"/>
			<path fill="#EFCFAC" d="M12,61.6c-0.1,0.1-0.3,0.3-0.4,0.4c0-0.5,0-1,0-1.6c0.1-0.2,0.3-0.4,0.4-0.6c0.2,0.1,0.2,0.4,0.3,0.6
				c0,0.2,0,0.4,0,0.6C12.2,61.2,12.2,61.4,12,61.6z"/>
			<path fill="#DE8E49" d="M48.9,69.5c0-0.1,0-0.3,0-0.4c0.2-0.2,0.3-0.5,0.7-0.6c0.3,0,0.5,0,0.7,0.2c-0.1,0.1-0.3,0.3-0.4,0.4
				C49.6,69.2,49.2,69.3,48.9,69.5z"/>
			<path fill="#BA5027" d="M67.4,29.4c0.4,0.7,1.1,1.3,0.6,2.2c-0.4,0.2-0.6,0-0.9-0.2c0,0-0.1-0.1-0.1-0.1
				c-0.1-0.1-0.1-0.1-0.2-0.2c-0.2-0.4-0.5-0.7-0.8-1.1c-0.2-0.2-0.6-0.4-0.5-0.9c0.3-0.2,0.6-0.5,0.8-0.8c0.5,0,0.6,0.5,0.8,0.8
				C67.3,29.3,67.4,29.3,67.4,29.4z"/>
			<path fill="#EA924B" d="M56.6,63.7c-0.3-0.3-0.5,0.3-0.8,0.2c-0.3,0.2-0.5,0.4-0.8,0c-0.1,0.1-0.3,0.1-0.4,0.2
				c-0.4,0-0.9-0.1-1.2,0.3c-0.1,0-0.3,0-0.4,0c-0.2-0.1-0.4-0.3-0.6,0.1c-0.1,0.1-0.1,0.2-0.3,0.3c-0.1,0.1-0.3,0-0.4,0
				c-0.1-0.1-0.2-0.2-0.3-0.4c-0.4-0.3-0.9-0.1-1.4-0.2c-0.4,0-0.8,0-1.1-0.3c-0.1-0.6,0-1.2,0-1.8c0.2-0.6,0.5-0.8,1.1-0.5
				c0.3,0.2,0.6,0.2,0.9,0.1c1.2-0.2,2.5-0.1,3.7-0.2c0.7-0.1,1.5,0.2,2.3,0.2c0.5,0,0.4,0.5,0.4,0.8C57.4,63.1,56.8,63.3,56.6,63.7
				z"/>
			<path fill="#E88C44" d="M52.3,65.7c-0.1,0.3-0.6,0.1-0.7,0.4c0.3,0.2,0.6,0.2,0.9,0.1c0.3-0.1,0.4-0.8,0.7-0.2
				c0.2,0.4-0.2,0.6-0.6,0.7c-0.9,0.7-2.1,0.7-3.1,1c-0.2,0.1-0.5,0-0.5-0.3c0-0.7,0-1.4,0-2.1c0.1-0.4,0.5-0.6,0.8-0.4
				C50.6,65.1,51.5,65.2,52.3,65.7z"/>
			<path fill="#EA8F45" d="M52.3,65.7c-0.7,0-1.4-0.2-2.1-0.5c-0.4-0.2-0.7-0.3-1.1,0C49,65,49,64.8,49,64.7c0-0.2-0.1-0.5,0.1-0.7
				c0.7,0,1.3,0,2,0c0.3,0,0.7-0.1,0.7,0.4c-0.1,0.1-0.2,0.3,0,0.4c0.1,0,0.3,0,0.4,0c0,0,0.1,0,0.1,0c0.2,0.1,0.4,0.1,0.6,0.3
				c0,0,0.1,0.1,0.1,0.1C53.1,65.7,52.4,65.4,52.3,65.7z"/>
			<path fill="#E98B40" d="M49.1,67.5c0.8-0.4,1.8,0,2.6-0.7c0.2-0.2,0.6-0.1,1-0.1c0,0.1,0,0.3,0,0.4l0,0c-0.5,0.2-0.9,0.4-1.2,0.8
				l0,0c-0.2,0.1-0.4,0.2-0.7,0.1c-0.1,0-0.1-0.1-0.1-0.1c-0.1-0.1-0.1-0.1,0,0c0.1,0.1,0,0,0.1,0.1c0.1,0.4-0.3,0.5-0.5,0.7l0,0
				c-0.3,0-0.5,0-0.8,0C49.2,68.3,48.9,68,49.1,67.5z"/>
			<path fill="#EC8E43" d="M53,64.3c0.1,0,0.3,0,0.4,0c0.1-0.1,0.3-0.1,0.4,0c-0.1,0.4-0.4,0.7-0.8,0.8l0,0
				c-0.2-0.3-0.6-0.1-0.8-0.4l0,0c0-0.1,0-0.3,0-0.4C52.5,64.1,52.8,64.1,53,64.3z"/>
			<path fill="#DB9D6B" d="M56.6,63.7c0-0.6,0.4-0.8,0.8-1c0.1-0.1,0.3-0.1,0.4,0c0,0.1,0,0.1,0,0.2c-0.4,0.3-0.8,0.6-1.2,1
				C56.6,63.9,56.6,63.8,56.6,63.7z"/>
			<path fill="#F08F42" d="M53.8,64.3c-0.1,0-0.3,0-0.4,0c0.3-0.7,0.7-0.4,1.2-0.2C54.4,64.4,54.1,64.3,53.8,64.3z"/>
			<path fill="#EF8E3D" d="M55,63.9c0.3,0.2,0.5,0,0.8,0c0,0.2-0.1,0.4-0.3,0.4C55.2,64.3,55,64.2,55,63.9z"/>
			<path fill="#F6C18B" d="M65.3,37.9c0.1,0.3,0.2,0.5,0.4,0.1c0.1-0.4,0.3-0.6,0.8-0.8c0,0.7,0,1.3,0,1.9c-0.3,0.3-0.5,0.6-0.5,1.1
				c0,0.5-0.3,0.7-0.8,0.4c-0.2-0.1-0.3-0.2-0.5-0.1c-0.9,0.5-1.9,0.3-2.9,0.2c-1.3-0.1-2.7-0.1-4-0.2c-1.4,0-2.8-0.4-4.2-0.2
				c-0.7,0.1-1.5,0-2.3,0.2c-0.6,0.1-1.2,0.1-1.7-0.3c-0.1-0.4-0.7-0.5-0.6-1c0-0.1,0.1-0.3,0.2-0.4c0.2-0.3,0.4-0.7,0.7-1
				c0.3-0.3,0.5-0.6,1-0.5c0.6,0.5,1.1,0.8,1.9,0.4c0.3-0.1,0.6-0.1,1,0c0.4,0.1,0.8,0.3,1.2,0c0.2-0.1,0.4-0.1,0.7-0.1
				c3,0.4,6-0.3,9,0C64.8,37.6,65.1,37.7,65.3,37.9z"/>
			<path fill="#F6BE87" d="M49.5,39.9c0.5,0.5,1.1,0.5,1.6,0.4c1.4-0.4,2.9-0.4,4.2-0.2c2,0.3,4,0,5.9,0.4c0.9,0.2,1.8,0.1,2.8,0.1
				c0.1,0,0.3,0,0.3-0.1c0.6-1.2,0.8-0.1,1.2,0.3c0.3-0.6,0.2-1.2,0.6-1.7c0.2-0.3,0.3,0.1,0.4,0.1c0,0.5-0.2,0.9,0,1.4
				c-0.3,0.3-0.1,0.9-0.4,1.2h0C66,41.8,65.8,42,65.6,42c-0.2,0-0.3-0.1-0.4-0.2c0,0-0.1-0.1-0.1-0.1c-1.5,0.4-2.9-0.1-4.4,0
				c-3.2,0.3-6.4-0.3-9.5,0.4c-0.7,0.1-1.2-0.1-1.6-0.6c-0.2-0.3-0.4-0.5-0.5-0.8C48.9,40.2,48.8,39.7,49.5,39.9z"/>
			<path fill="#F9CA98" d="M67.3,35.7c0,0.1,0,0.1,0,0.2c-0.4-0.1-1-0.9-1.3,0.2c-0.1,0.3-0.5,0.2-0.7,0.2c-0.3-0.4-0.5-0.4-0.8,0.1
				c-0.1,0.1-0.3,0.1-0.4,0c-0.1-0.1-0.2-0.1-0.2-0.2c-0.3-0.5-0.7-0.5-1.2-0.4c-2,0.2-4,0.1-6,0.1c-0.7,0-1.4-0.3-2.1-0.5
				c-0.4-0.3-0.9-0.2-1.3-0.4c-0.1,0-0.1-0.1-0.2-0.2c0-0.1,0-0.1,0.1-0.2c0.1,0,0.1-0.1,0.2-0.1c0,0-0.1,0-0.1,0
				c-0.1,0-0.1-0.1-0.2-0.2c0-0.3,0.1-0.5,0.2-0.6c0.3-0.2,0.5-0.8,1-0.2c0.1,0.5,0.5,0.7,1,0.7c2.1,0,4.3,0.1,6.4-0.1
				c1.6-0.2,3.2,0.1,4.8,0c0.3,0,0.5,0.1,0.7,0.3C67.5,34.7,67.4,35.2,67.3,35.7z"/>
			<path fill="#F7C78D" d="M64.5,36.3c0-0.3-0.1-0.8,0.4-0.8c0.5,0,0.3,0.5,0.3,0.8c0,0.5,0,1.1,0,1.6c-0.3,0-0.5,0-0.8,0
				c-0.2-0.2-0.3-0.5-0.3-0.8C64.2,36.8,64.3,36.5,64.5,36.3z"/>
			<path fill="#F6C18B" d="M66.1,41.6c0.1-0.4-0.3-1,0.4-1.2c0,0.4,0,0.8-0.2,1.2C66.2,41.6,66.1,41.6,66.1,41.6z"/>
			<path fill="#F9CA98" d="M67.3,36.3c0,0.3,0.1,0.6-0.2,0.8C66.7,36.7,66.9,36.5,67.3,36.3z"/>
			<path fill="#FBD2A3" d="M67.1,31.1c0.1,0,0.1,0,0.2,0c-0.3,0.7,0.4,0.5,0.6,0.6c0,0.3,0,0.5,0,0.8c-3.8,0.1-7.5,0.1-11.3,0.1
				c-0.2,0-0.3,0-0.5,0c-0.7,0.2-0.7-0.2-0.6-0.7c0.1-0.3,0.4-0.5,0.4-0.9c0.2-0.7,0.7-1.3,1.4-1.6c0.2,0,0.4,0.1,0.5,0.2
				c0,0.1,0,0.2,0,0.3c-0.1,0.2-0.4,0.3-0.3,0.7c1.9-0.4,3.9,0.1,5.8,0c0.4,0,0.7-0.1,1-0.3c0.7-0.4,0.7-0.4,1.3,0.2
				c-0.3-0.2-0.4-0.5-0.7-0.7c0-0.1-0.1-0.2-0.1-0.3c0.1-0.3,0.3-0.5,0.4-0.7c0.2-0.1,0.3,0,0.4,0.2C66,29.9,67,30.2,67.1,31.1
				L67.1,31.1z"/>
			<path fill="#FACEA0" d="M56.2,32.4c2.6,0,5.2,0,7.8,0c0.8,0,1.6-0.1,2.4-0.1c0.5,0,1,0,1.4,0.3c-0.1,1.1-0.1,2.2-0.6,3.2
				c0-0.5,0-1.1,0-1.6c-0.4-0.6-1-0.7-1.6-0.7c-2.6,0-5.3,0-7.9,0c-0.4,0-0.7,0-1.1,0C55.9,33.3,55.8,33.1,56.2,32.4z"/>
			<path fill="#F5CF9E" d="M67.9,31.8c-0.3,0.1-0.7,0.1-1.2,0.2c0.3-0.3,0.6-0.5,0.6-0.8c0.3,0.1,0.5,0.3,0.8,0.4c0,0.1,0,0.1,0,0.2
				C68,31.8,67.9,31.8,67.9,31.8z"/>
			<path fill="#FCDAAD" d="M15.5,46.6c0-0.3-0.1-0.6,0.2-0.8c0.3,0.2,0.6,0.1,0.9,0.1c0.2,0,0.5,0,0.7,0.1c0.2,0.1,0.3,0.3,0.2,0.5
				c-0.2,0.2-0.5,0.1-0.7,0.2c0.4,0.1,0.8-0.1,1.1,0.2c0.3,0.4,0.9,0.5,1.2,0.9c0,0,0,0.1,0,0.1c-1.1,0.5-1.3,1.5-1.5,2.6
				c-0.1,0.2-0.4,0.3-0.5,0.4c-0.6,0.6-0.6,0.6-1.1-0.2c-0.7,0.9-0.9,0.8-1.7-0.3C14.8,49.2,15.1,47.8,15.5,46.6z"/>
			<path fill="#F6DAB7" d="M15.5,46.6c-0.1,1.4-0.5,2.7-1.2,4c0.2,0.2,0.2,0.5,0.1,0.7c-0.1,0.2-0.2,0.2-0.4,0.2
				c0,0-0.1-0.1-0.1-0.1C14.2,49.6,14.7,48,15.5,46.6z"/>
			<path fill="#C78050" d="M16.5,46.2c-0.3,0-0.7,0.2-0.8-0.4c0.1-0.1,0.1-0.3,0.2-0.4c0.1-0.2,0.3-0.4,0.4-0.6
				c0.3,0.3,0.3,0.7,0.3,1.1C16.6,46,16.6,46.1,16.5,46.2z"/>
			<path fill="#F6DAB7" d="M13.6,52.9c0-0.3,0-0.5,0-0.8c0-0.3,0-0.6,0.4-0.8l0,0C14.2,51.9,14.3,52.5,13.6,52.9z"/>
			<path fill="#E36C21" d="M16.5,46c-0.4-0.4-0.1-0.8-0.2-1.2c0-0.4,0.1-0.7,0.4-1c0.3-0.1,0.5-0.3,0.8-0.4c0.3-0.2,0.6-0.2,0.9-0.1
				c0.7,0.4,1.5-0.4,2.2,0c0.2,0.2,0.6,0.3,0.8,0.4c0.2,0.6,0.2,0.6-0.7,0.6c-0.1-0.1-0.1,0.2,0,0.1c0,0,0,0,0.1,0
				c0.1,0,0.2,0.1,0.3,0.2c0.1,0.2,0,0.3,0,0.4c-0.5,0.4-1.1,0.5-1.8,0.6c-0.6,0-1.2,0-1.8,0.3C17.2,46,16.9,46.2,16.5,46z"/>
			<path fill="#E97B20" d="M18.7,40.5c0.1-0.6,0.3-1.1,0.8-1.4c0.9-0.4,1.9-0.3,2.8-0.6c0.9,0.1,1.9-0.1,2.8,0.1
				c0.2,0.6-0.2,0.7-0.6,0.7c-0.7,0.1-1.2,0.4-1.8,0.7c-0.3,0.3-0.8,0.2-1.2,0.5c-0.5,0.5-0.9,1-1.7,0.9c-0.2-0.1-0.4-0.2-0.5-0.4
				c0-0.2-0.1-0.4-0.4-0.4C18.9,40.6,18.8,40.5,18.7,40.5z"/>
			<path fill="#E98926" d="M20.7,36.8c1.4-0.1,2.6-0.9,3.9-1.3c0.5-0.3,0.9-0.5,1.5-0.6c0.6-0.1,1.2-0.5,1.8-0.7
				c0.3-0.1,0.5,0,0.7,0.2c0.2,0.6-0.3,0.6-0.6,0.7c-2.1,1.2-4.5,1.8-6.8,2.5c-0.1,0.1-0.2,0.1-0.4,0.2c-0.3,0.1-0.3,0.5-0.6,0.6
				c-0.1,0-0.3,0-0.4-0.1c0-0.3,0-0.6,0-0.9C20.2,37.2,20.4,37,20.7,36.8z"/>
			<path fill="#C14B14" d="M19.5,40.8c0.1,0.1,0.3,0.3,0.4,0.4c0,0,0.1,0.1,0.1,0.2c0,0.1,0,0.1,0,0.1c-0.2,0.3-0.4,0.6,0.2,0.6
				c0.2,0,0.5-0.1,0.7,0c0.3,0.1,0.4,0.3,0.3,0.6c-0.9,0.5-1.8,0.9-2.8,0.8c-0.3,0-0.5,0.2-0.8,0c0.2-0.7,0.6-1.3,1-2
				c0.2-0.3,0.3-0.6,0.6-0.8C19.3,40.5,19.4,40.7,19.5,40.8z"/>
			<path fill="#ED821B" d="M19.9,38.3c0.1,0,0.3,0,0.4,0c0.6-0.4,1.3-0.3,1.9-0.1c0.1,0.1,0.2,0.3,0.1,0.5c-0.9,0.4-1.8,0.5-2.8,0.4
				C19.5,38.8,19.4,38.3,19.9,38.3z"/>
			<path fill="#C15708" d="M19.1,40.6c0,0.4-0.4,0.6-0.6,0.8c0.1-0.3,0.1-0.6,0.2-1c0.1,0,0.3,0,0.4,0
				C19.1,40.5,19.1,40.5,19.1,40.6C19.1,40.6,19.1,40.6,19.1,40.6z"/>
			<path fill="#ED9B58" d="M62.1,57.6c-0.7,1.2-1.5,2.3-2.5,3.2c-0.9-0.6,0.1-1,0.2-1.5c-0.7,0.1-1.5,0.1-2.1,0.4
				c-0.9,0.4-1.8,0.4-2.6,0c-0.4-0.2-0.8-0.3-1.2-0.3c-1,0.1-2.1,0.1-3.1,0c-0.6-0.1-1,0.5-1.6,0.4C49,59.7,49,59.6,49,59.5
				c0-0.4-0.2-0.9,0-1.3c0.5-0.7,1.2-0.8,2-0.8c1.4,0,2.9-0.2,4.3,0.3c0.7,0.2,1.6,0.2,2.3-0.1c0.8-0.3,1.6-0.3,2.4,0.1
				c0.4,0.2,0.6,0.2,0.9-0.2c0.3-0.4,0.7-0.6,1.2-0.4C62.3,57.2,62.3,57.4,62.1,57.6z"/>
			<path fill="#EC9854" d="M49.1,59.8c0.5-0.6,1.3-0.7,2-0.6c0.8,0.2,1.5,0,2.3,0c0.7,0,1.3,0,1.9,0.4c0.5,0.4,1.2,0.4,1.6,0.1
				c0.8-0.5,1.8-0.3,2.6-0.8c0.2-0.1,0.5-0.2,0.7,0.1c0.1,0.2,0.1,0.4-0.1,0.7c-0.3,0.3-0.9,0.5-0.4,1.1c-0.1,0.1-0.2,0.2-0.4,0.4
				c-1.4,0-2.7-0.4-4.1,0.1c-0.5,0.2-0.9-0.2-1.4-0.3c-1.2-0.2-2.4,0.1-3.5,0c-0.4,0-0.8,0-1.1-0.3C49,60.5,48.9,60.1,49.1,59.8z"/>
			<path fill="#EB9551" d="M49.1,60.8c1.5,0.1,3.1-0.3,4.6,0c1.6,0.3,3.2-0.2,4.8,0c0.4,0,0.5,0.3,0.7,0.4c0,0.1,0,0.1-0.1,0.2
				c-0.6,0.3-1,0.9-1.4,1.4c-0.1,0-0.3,0-0.4,0c-0.2-0.8-0.6-1.1-1.3-0.5c-0.1,0.1-0.4,0.1-0.4,0c-0.6-1.1-1.5-0.2-2.3-0.3
				c-0.8-0.1-1.7-0.3-2.5,0.1c-0.2,0.1-0.4,0.2-0.6-0.1c-0.3-0.5-0.7-0.3-1.1-0.1C48.9,61.6,48.9,61.2,49.1,60.8z"/>
			<path fill="#E9A067" d="M62.1,57.6c0-0.2,0-0.4,0-0.6c-0.6,0-1.1-0.1-0.9-0.9c0.5-0.5,1.1-0.1,1.7-0.1c0,0.1,0,0.3,0,0.4
				C62.5,56.7,62.6,57.4,62.1,57.6z"/>
			<path fill="#F8CA9A" d="M12,60.4c0-0.2,0-0.4,0-0.6c0-0.1,0-0.1,0-0.2c0.4-0.5,0.1-1.3,0.5-1.8c0.1-0.1,0.2-0.2,0.3-0.3
				c0.2,0,0.3,0,0.4,0.1c0.1,0.1,0.2,0.3,0.2,0.4c0,0-0.1,0.2,0.1,0.1c1.1-0.7,2.3-0.2,3.4,0.1C17,58.5,17,58.7,17,59
				c0,1.2-0.2,1.4-1.4,1.4c-0.5,0-1.1,0.1-1.6-0.1c-0.5-0.1-0.6,0.2-0.8,0.5C12.6,61.4,12.3,60.8,12,60.4z"/>
			<path fill="#F8D7AE" d="M13.6,52.9c0.3-0.5,0.4-1,0.4-1.6c0.1,0,0.3,0,0.4,0c0.4,0.4,0.3,0.9,0.3,1.4c-0.2,0.7-0.5,1.2-1.3,1.4
				c0,0-0.1-0.1-0.1-0.1c0-0.1,0-0.3,0-0.4C13.3,53.4,13.4,53.1,13.6,52.9L13.6,52.9z"/>
			<path fill="#F8D7AE" d="M12.8,57.6c-0.1,0.1-0.1,0.1-0.2,0.2c-0.2,0-0.3,0-0.2-0.2c0-1.2,0.3-2.4,0.8-3.5l0,0
				c0.4,0.5,0.3,1.1,0.2,1.7c0,0.1-0.1,0.2-0.1,0.3C12.9,56.5,13.2,57.2,12.8,57.6z"/>
			<path fill="#EFCFAC" d="M12.4,57.6c0.1,0.1,0.1,0.1,0.2,0.2c-0.2,0.3-0.2,0.7-0.2,1.1c0,0.3,0,0.6-0.4,0.6
				C12,58.9,12.1,58.2,12.4,57.6z"/>
			<path fill="#F6DAB7" d="M13.6,52.9c0,0.3-0.1,0.6-0.4,0.8C13.2,53.3,13.2,53,13.6,52.9z"/>
			<path fill="#EDB17C" d="M65.7,45.8c0,0.3,0,0.5,0,0.8c-0.2,1.7-0.3,3.5-0.8,5.1c0-0.4,0-0.8,0-1.2c-0.4-0.4-0.2-0.9-0.2-1.4
				c0-0.3,0.2-0.6-0.1-0.9c-0.4-0.6,0.2-1,0.4-1.5C65.1,46.3,64.8,45.6,65.7,45.8z"/>
			<path fill="#F1AA6D" d="M64.7,48.1c0.2,0.1,0.6,0,0.4,0.3c-0.4,0.7-0.1,1.4-0.3,2.1c-0.1,0-0.3,0-0.4,0c-0.1,0.4-0.4,0.6-0.9,0.7
				c-0.7,0.1-1.3,0.2-2,0.2c-3.4,0-6.8,0-10.2,0c-0.8,0-1.6-0.1-2.4-0.1c-0.4-0.5-0.2-1-0.3-1.6c0-0.5-0.1-1.1,0.2-1.6
				c0.1-0.1,0.2-0.1,0.3,0c0.2,0.9,0.7,1.1,1.6,1.2c3.9,0.2,7.9,0,11.8,0.1c0.9,0,1.3-0.5,1.6-1.2C64.5,48.1,64.6,48.1,64.7,48.1z"
				/>
			<path fill="#F0A769" d="M49.1,51.3c0.4-0.5,1-0.4,1.4-0.3c3.3,0.4,6.5,0,9.8,0.1c1.1,0,2.3,0,3.4-0.2c0.3,0,0.5-0.2,0.7-0.4
				c0,0.7-0.7,1.3,0,2c-0.3,0.4-0.8,0.5-1.2,0.5c-1.1,0-2.2,0.1-3.2,0c-3.2-0.3-6.4-0.2-9.6-0.1c-0.7,0-1.1-0.3-1.3-0.9
				C48.9,51.8,48.9,51.5,49.1,51.3z"/>
			<path fill="#EFA263" d="M64.1,54.4c-0.2,0.3-0.4,0.7-0.8,0.8c-0.8-0.1-1.8,0.2-2.5-0.4c-0.2-0.1-0.4-0.1-0.7-0.1
				c-3.2,0.2-6.4-0.1-9.6,0c-0.5,0-1,0.1-1.4-0.2c-0.2-0.3-0.2-0.6-0.1-0.9c0.3-0.5,0.7-0.5,1.2-0.5c2.7,0,5.3-0.1,7.9,0
				c1.8,0,3.6,0,5.4,0.1c0.2,0,0.5,0.1,0.6,0.3C64.1,53.8,64.1,54.1,64.1,54.4z"/>
			<path fill="#F0A566" d="M64.1,53.5c-1.2,0-2.4-0.1-3.6,0.2c-0.2,0-0.4,0.1-0.6,0c-0.9-0.6-1.9-0.2-2.8-0.2
				c-2.4,0-4.8,0.2-7.2-0.1c-0.4,0-0.5,0.2-0.8,0.3c-0.2-0.2-0.2-0.4-0.2-0.6c0-0.4-0.1-0.8,0.2-1.1c0.5,0.8,1.2,0.6,2,0.6
				c2.5-0.1,5-0.1,7.5,0c1.5,0.1,2.9,0.1,4.4,0.2c0.5,0,1-0.1,1.5-0.2C64.6,52.9,64.4,53.2,64.1,53.5z"/>
			<path fill="#E88C44" d="M50.7,67.9c0.3,0,0.5,0,0.8,0c-0.3,0.4-0.7,0.7-1.2,0.8C50.4,68.4,50.5,68.1,50.7,67.9L50.7,67.9z"/>
			<path fill="#E88C44" d="M51.5,67.9c0.1-0.6,0.6-0.9,1.2-0.8C52.4,67.5,52,67.8,51.5,67.9z"/>
			<path fill="#EFA15F" d="M49.1,54.5c2.5,0,4.9-0.1,7.4,0c1.3,0,2.7,0.1,4,0c0.3,0,0.6,0,0.8,0.1c0.4,0.3,0.7,1,1.1,0
				c0.1-0.2,0.5-0.1,0.6,0.3c0,0.3,0.1,0.4,0.4,0.5c0,0.3,0,0.6-0.4,0.8c-0.5,0.5-1.1-0.1-1.6,0c-0.4,0.5-1,0.5-1.6,0.5
				c-2.3,0-4.7,0-7,0c-1.2,0-2.4,0-3.6,0.1C48.8,55.9,48.8,55.2,49.1,54.5z"/>
			<path fill="#F3B67C" d="M65.7,44.4c0,0.2,0,0.4,0,0.6c-0.2,0.2-0.5,0.3-0.8,0.3c-0.2,0-0.3,0-0.5,0.1c-1.3,0.4-2.5,1-3.9,0.4
				c-0.6-0.2-1.2-0.1-1.9-0.1c-2.3,0-4.7,0.1-7-0.1c-0.2,0-0.3,0-0.5,0c-1.5,0.3-1.5,0.2-2.3-1c-0.2-0.5-0.2-0.9,0-1.4
				c0.1-0.1,0.2-0.2,0.4-0.1c1.8,0.7,3.7,0.6,5.7,0.6c1.1,0,2.2,0.3,3.3-0.3c0.1-0.1,0.3-0.1,0.5,0c1.4,0.5,2.8,0.2,4.2,0.5
				c0.4,0.1,0.9,0.1,1.2-0.2c0.6-0.6,0.8-0.2,1.1,0.3C65.4,44.1,65.5,44.3,65.7,44.4z"/>
			<path fill="#FAB174" d="M64.9,45c0.3,0,0.5,0,0.8,0c0,0.3,0,0.5,0,0.8C65,46,65.4,46.6,65.3,47c-0.5,0.2-0.6-0.2-0.6-0.5
				C64.6,46,64.5,45.4,64.9,45z"/>
			<path fill="#F8B681" d="M65.7,44.4c-0.2,0-0.3,0-0.4-0.2c-0.3-0.3-0.2-0.7-0.3-1.1c0-0.4,0-0.8,0.1-1.1c0,0,0.1-0.1,0.1-0.1
				c0.1,0,0.3,0,0.4,0c0.3,0.8,0.3,1.6,0,2.4C65.7,44.3,65.7,44.3,65.7,44.4z"/>
			<path fill="#F4BB7C" d="M65.7,44.2c0-0.8,0-1.6,0-2.4c0.1-0.1,0.3-0.1,0.4-0.2c0,0.8,0,1.7,0,2.5C65.9,44.2,65.8,44.2,65.7,44.2z
				"/>
			<path fill="#F4C08E" d="M13.2,68.7c0,0.1,0,0.3-0.2,0.3c-0.1,0-0.1-0.2-0.2-0.3c-0.3-1-0.9-1.9-0.5-3c1-0.5,2-0.7,3.1-0.7
				c2.5,0,5,0.1,7.6,0c3.3-0.2,6.7,0.2,10,0c1.1-0.1,2.1,0.2,3.1,0.2c1,0,2.1,0,3.1-0.3c0.6-0.2,1.3-0.2,2-0.1
				c1.9,0.4,3.8,0.2,5.8,0.2c0.2,0,0.4,0,0.6,0.1c0.3,0.5,0.3,1,0.1,1.6c-0.2,0.3-0.5,0.6-0.9,0.6c-1.2,0.1-2.4,0.6-3.6,0.5
				c-1.1-0.1-2.3-0.2-3.4,0c-0.1,0-0.3,0-0.4,0c-3-0.7-6-0.4-8.9-0.1c-0.7,0.1-1.3-0.3-2-0.3c-2,0.1-4-0.3-6,0.3
				c-0.5,0.1-1,0.1-1.5,0c-2-0.2-4-0.3-6-0.1c-0.5,0.1-0.9-0.1-1.4-0.3C13.4,67.8,13.5,68.3,13.2,68.7z"/>
			<path fill="#F5BE8C" d="M13.2,68.7c0-0.7,0-1.4,0-2c0.6,0.8,1.4,0.9,2.3,0.7c1.5-0.2,3.1-0.2,4.6,0c1.1,0.1,2.1,0.2,3.2-0.2
				c0.7-0.3,1.6-0.1,2.3-0.1c1.5,0.1,3-0.3,4.5,0.3c0.5,0.2,1-0.4,1.6-0.4c2.1,0,4.2,0.2,6.3-0.2c0.1,0,0.2,0,0.3,0
				c1.9,1.1,4,0.4,6,0.5c1.1,0,2.3-0.1,3.3-0.7c0.3,0.3,0.2,0.8,0.5,1.1c-0.2,1-0.6,1.2-1.6,0.8c-2.5,0.6-5,0.3-7.6,0.4
				c-0.5,0-1.1,0.1-1.6-0.3c-0.4-0.2-0.9-0.2-1.2-0.1c-2.1,0.7-4.2,0.3-6.3,0.2c-1.9-0.1-3.7-0.3-5.7,0c-2.6,0.4-5.4,0.4-8.1-0.1
				C14.9,68.6,14.1,68.7,13.2,68.7z"/>
			<path fill="#F8BA88" d="M46.3,68.7c1.2,0,1.3,0,1.4-0.8c0-1.2,0.1-2.4,0.1-3.7c0-1,0-2,0-3c0-1.2,0-2.4,0-3.5c-0.1-1,0-2,0-3
				c0-1.1,0-2.2,0-3.4c0-2.1,0-4.2,0-6.2c0-1.3,0-2.6,0-3.9c0-0.3,0-0.6,0-0.9c0-0.6,0-1.1,0-1.7c0.1-0.3,0.3-0.3,0.6-0.1
				c0.1,0.1,0.1,0.2,0.2,0.3c0.1,4.2,0,8.3,0,12.5c0,0.3,0,0.7-0.3,0.9c0,5.4,0,10.7,0,16.1c0,0.4,0,0.7,0,1.1
				c-0.6,0.3-1.4,0.2-1.9,0.8c-0.4,0-0.8,0-1.2,0C45.3,69.6,46.2,69.4,46.3,68.7z"/>
			<path fill="#F6BF8E" d="M12.4,65.7c-0.2,1,0.7,1.9,0.4,3c-0.7,0.1-1.2-0.3-1.6-0.8c-0.2-1.2,0.6-2.2,0.4-3.4
				C12.2,64.7,12.7,64.9,12.4,65.7z"/>
			<path fill="#F4BC8A" d="M46.3,70.2c0.3-1,1.2-0.7,1.9-0.8c0,0.1,0.1,0.2,0.1,0.4C47.6,69.6,47.1,70.3,46.3,70.2z"/>
			<path fill="#B75724" d="M48.3,52.3c0-4.5,0-9.1,0-13.6c0.2-0.2,0.5-0.2,0.7-0.1c0.1,0.1,0.1,0.2,0.1,0.3c0,0.1-0.1,0.2-0.1,0.2
				c-0.3,1,0.1,1.9,0.1,2.8c-0.3,1.5,0,3.1,0,4.6c0.1,1.1-0.3,2.1-0.2,3.2c0,1.1,0,2.3,0,3.4c0.1,1.4-0.1,2.7,0.1,4.1
				c0.1,0.7-0.1,1.3-0.3,2c-0.3-1.4-0.1-2.9-0.1-4.3c0-0.7,0-1.3,0-2C48.7,52.7,48.7,52.3,48.3,52.3z"/>
			<path fill="#F6985E" d="M48.8,59.2c0-2,0-4.1,0.1-6.1c0.1-0.1,0.1-0.1,0.2,0c0,0.2,0,0.4,0,0.6c0,0.3,0,0.5,0,0.8
				c0,0.7,0,1.4,0,2.2c0.4,0.5,0.3,1.1,0,1.6c0,0.5,0,0.9,0,1.4c-0.1,0.1-0.1,0.1-0.2,0C48.9,59.5,48.9,59.3,48.8,59.2z"/>
			<path fill="#EC884B" d="M49.1,67.5c0.1,0.4,0.5,0.7,0.4,1.2c-0.2,0.1-0.3,0.4-0.6,0.4c0-1.4,0-2.9,0-4.3c0.1-0.1,0.1-0.1,0.2,0
				c0,0.1,0,0.3,0,0.4C49.1,65.9,49.1,66.7,49.1,67.5z"/>
			<path fill="#F18F52" d="M49.1,64.7c-0.1,0-0.1,0-0.2,0c0-1.7,0-3.4,0-5.1c0.1,0,0.1,0,0.2,0c0,0.1,0,0.1,0,0.2c0,0.3,0,0.7,0,1
				c0,0.4,0,0.8,0,1.2c0,0.7,0,1.3,0,2C49.1,64.2,49.1,64.5,49.1,64.7z"/>
			<path fill="#F7C292" d="M12.4,65.7c0.1-0.6-0.6-0.8-0.8-1.2c0-0.5,0-0.9,0-1.4c0.3-0.2,0.1-0.6,0.4-0.8c0-0.3,0-0.5,0-0.8
				c0-0.2,0-0.4,0-0.6c0.6,0,0.6,0.5,0.6,0.9c0.1,0.5,0,1,0.2,1.5c0.1-0.9,0.4-1.3,1.3-0.8c0.3,0.2,0.8,0,1.1-0.1
				c0.5-0.2,0.9-0.3,1.4-0.1c0.4,0.3,0.1,0.9,0.6,1.2c0.3,0.1,0.5,0,0.8-0.1c0.6-0.1,1.3-0.1,1.9,0c0.2,0.1,0.5,0.1,0.6-0.2
				c0.1-0.3,0-0.7,0.4-0.9c0.6,0.2,0.1,1.1,0.7,1.3c1.4,0.1,2.7,0.1,4.1,0c0.6,0,0.8-0.2,0.6-0.8c0.7-0.3,0.3-0.9,0.3-1.3
				c0-0.8,0-1.5,0-2.3c0-0.3,0-0.5,0.1-0.8c0-0.1,0.1-0.2,0.2-0.3c0.1,0,0.2,0,0.3,0c0.1,0.1,0.1,0.2,0.1,0.3
				c0.1,0.2,0.1,0.5,0.1,0.7c0,0.3,0,0.5,0,0.8c0,0.2,0,0.4,0,0.6c0,0.3,0,0.6,0,0.9c0,0.3,0,0.5,0,0.8c0.1,0.5,0.4,0.5,0.8,0.6
				c0.8,0,1.6-0.1,2.4-0.3c0.5-0.5,0-1.3,0.4-1.8c0.1-0.1,0.2-0.1,0.3,0c0.2,0.2,0.2,0.5,0.2,0.7c0.2,1.7-0.3,2.2-2,2.2
				c-0.5,0-1,0-1.3,0c0.7,0,1.6,0,2.4,0c0.6,0,1.1-0.2,1.6-0.6c0.2,0,0.3,0.1,0.4,0.2c0.4,0.4,0.8,0.3,1.3,0.3c1.4,0,2.8,0.2,4.1,0
				c2-0.3,3.9-0.3,5.9,0c0.8,0.1,0.8-0.7,1.4-0.9c0.3,0.1,0.3,0.3,0.4,0.6c0,0.3,0.2,0.4,0.5,0.3c1.1-0.2,0.7-1.1,0.7-1.8
				c0-0.3,0-0.6,0.4-0.7c0.6,0.4,0.3,1,0.4,1.5c0,0.4,0,0.8,0,1.3c0,0.4,0.1,0.9-0.3,1.2c-0.1,0.1-0.3,0.3-0.4,0.2
				c-1.7-0.2-3.4,0.3-5.1-0.1c-1.1-0.3-2.2-0.2-3.4,0.1c-1.3,0.4-2.7,0.2-4,0.1c-1.7-0.2-3.5-0.2-5.2,0c-0.9,0.1-1.7,0.1-2.6-0.1
				c-0.9-0.1-1.7-0.2-2.6-0.1c-1.7,0.2-3.5,0.2-5.2,0.1c-1.5-0.1-3.1,0.2-4.6-0.1C13.7,65.2,13.2,66,12.4,65.7z"/>
			<path fill="#F6C697" d="M12,62.4c0,0.3,0.1,0.7-0.4,0.8C11.6,62.8,11.5,62.4,12,62.4z"/>
			<path fill="#F6C697" d="M16.7,62.6c-0.5,0-1,0-1.4,0.2c-0.7,0.3-1.4,0.5-1.9-0.3c-0.2,0.2-0.2,0.4-0.2,0.6
				c-0.1,0.3,0.2,0.8-0.4,0.8c-0.6,0-0.4-0.6-0.4-0.9c0-0.4,0-0.8,0-1.2c0-0.3,0-0.7-0.4-0.8c0-0.2,0-0.4,0-0.6
				c0.5,0.1,0.7,0.6,1.2,0.6c1.2-0.4,2.5-0.5,3.7,0.2C17,61.7,17.1,62.1,16.7,62.6z"/>
			<path fill="#BC4D1F" d="M65.6,29.2c-0.1-0.1-0.2-0.1-0.4-0.2c-0.5-0.2-0.8-0.6-1.1-1c-0.2-0.2-0.2-0.4-0.3-0.6
				c-0.1-0.6-0.8-0.8-0.8-1.5c0-0.3,0-0.5,0.2-0.7c0.1-0.1,0.3-0.1,0.4,0c0.7,0.7,1.3,1.3,2,2c0.3,0.4,0.5,0.8,0.8,1.1
				C66.5,29,66.2,29.2,65.6,29.2z"/>
			<path fill="#B44F26" d="M63.7,25.3c-0.1,0-0.3,0-0.4,0c0,0-0.1,0-0.1-0.1c-0.3-0.3-0.8-0.6-0.8-1.1c0-0.1,0.1-0.2,0.1-0.2
				c0.4,0.4,0.8,0.8,1.2,1.2C63.7,25.1,63.7,25.2,63.7,25.3z"/>
			<path fill="#BC4C1F" d="M61.1,22.5c0.3,0,0.4,0.4,0.8,0.4c0.2,0.3,0.6,0.5,0.6,1c0,0.1,0,0.2,0,0.2c-0.2,0.2-0.5,0.3-0.7,0.6
				c-0.3,0.2-0.6,0.3-0.7,0.7c-0.2,0.4-0.5,0.7-0.8,1.1c-0.5,0.5-0.9,1-1.3,1.5c-0.3,0.4-0.6,0.8-1.2,0.7c-0.2-0.1-0.2-0.3-0.2-0.5
				c0-0.1,0-0.2,0.1-0.2c0.2-0.1,0.3-0.2,0.4-0.4c0.1-0.1,0.1-0.2,0.2-0.3c0.2-0.1,0.3-0.3,0.4-0.5c0.1-0.1,0.1-0.1,0.2-0.2
				c0.2-0.1,0.2-0.3,0.3-0.5c0.3-0.4,0.6-0.7,0.6-1.3c0-0.4,0.3-0.5,0.6-0.7c0.5-0.2,0.6-0.5,0.1-0.9C60.4,22.8,60.8,22.7,61.1,22.5
				z"/>
			<path fill="#E19151" d="M51.9,64.7c-0.1,0.1-0.1,0.3-0.2,0.3c-0.1,0-0.2-0.1-0.2-0.3c0-0.3,0.1-0.4,0.4-0.4
				C51.9,64.5,51.9,64.6,51.9,64.7z"/>
			<path fill="#E19355" d="M53,64.3c-0.3,0-0.5,0-0.8,0c0-0.3,0.2-0.4,0.4-0.4C52.9,64,53,64.1,53,64.3z"/>
			<path fill="#F38C3A" d="M52.3,64.7c0.3,0,0.7-0.1,0.8,0.4C52.7,65.1,52.3,65.3,52.3,64.7z"/>
			<path fill="#E88C44" d="M50.7,67.9c-0.2,0-0.4,0-0.8-0.1C50.3,67.5,50.5,67.3,50.7,67.9L50.7,67.9z"/>
			<path fill="#F7C490" d="M64.5,37.1c0,0.3,0,0.5,0,0.8c-0.5,0.3-0.9,0-1.4,0c-1.6,0.1-3.2,0-4.8,0.2c-0.8,0.1-1.6,0.1-2.4-0.1
				c-0.5-0.1-1.2-0.3-1.3,0.8c-0.4-0.4-0.6-0.8-1.1-0.8c-0.1-0.8,0.6-1.2,0.8-1.8c3,0.2,5.9-0.3,8.9-0.1c0.4,0,0.7,0,1,0.3l0,0
				C64.4,36.5,64.2,36.9,64.5,37.1z"/>
			<path fill="#FAC290" d="M54.2,36.3c0.2,0.8-0.7,1-0.8,1.6c-0.4,0-0.8,0-1.3,0.2c-0.8,0.4-1.1-0.4-1.5-0.9
				c-0.1-0.4,0.2-0.6,0.3-0.9c0.4-0.5,0.9-1,1.3-1.5c0.2-0.3,0.4-0.6,0.9-0.6l0.1,0c0.1,0,0.1,0.1,0.1,0.1c0,0,0,0.1-0.1,0.1
				c0,0.1,0,0.1,0,0.2c0,0.1,0,0.2-0.1,0.4c-0.1,0.1-0.1,0.2-0.2,0.3c-0.1,0.5-0.6,0.9-0.9,1.3c0.5,0.2,0.7,0,1-0.2
				C53.4,36.2,53.8,35.9,54.2,36.3z"/>
			<path fill="#FBBA83" d="M48.9,41.8c0.1-0.9-0.3-1.9,0.2-2.7c0.1,0.1-0.2,0.5,0.3,0.3c0.4-0.1,0.2,0.2,0.1,0.4
				c-0.5,0.2-0.6,0.5-0.2,0.9c0.2,0.2,0.1,0.3,0.2,0.5c0.3,0.3,0.3,0.7,0.1,1.1c-0.1,0.2-0.3,0.2-0.4,0.2
				C48.9,42.4,49.1,42,48.9,41.8z"/>
			<path fill="#B95727" d="M51.1,36.5c-0.2,0.2-0.3,0.5-0.5,0.7c-0.2,0.2-0.5,0.4-0.7,0.6c0,0-0.1,0-0.1,0c-0.4-0.1-0.4-0.4-0.1-0.7
				c0.2-0.2,0.4-0.4,0.6-0.5C50.5,36.6,50.8,36.3,51.1,36.5z"/>
			<path fill="#B95727" d="M49.2,38.8c0-0.1-0.1-0.1-0.1-0.2c0-0.5,0.1-0.9,0.8-0.8l0.1,0C49.7,38.2,49.4,38.5,49.2,38.8z"/>
			<path fill="#F5BB83" d="M49.5,42.4c0-0.4,0-0.8,0-1.2c0.7,0.5,1.3,0.9,2.2,0.3c0.2-0.1,0.6-0.1,0.9-0.1c2.5-0.1,5,0,7.4-0.1
				c1.4-0.1,3-0.1,4.4,0.4c0.3-0.2-0.1-0.8,0.4-0.7c0.5,0,0.5,0.5,0.5,0.9l0,0c-0.3,0.2-0.1,0.8-0.6,0.9c-4.8,0-9.6-0.1-14.4,0
				C50,42.8,49.6,42.9,49.5,42.4z"/>
			<path fill="#FACD9B" d="M56.2,32.4c-0.3,0.7,0,0.8,0.7,0.8c3.1,0,6.3,0,9.4,0c0.8,0,1.1,0.3,1,1c-4,0.1-7.9,0.1-11.9,0.2
				c-1.2,0-1.3-0.1-1.2-1.2c-0.1-0.8,0.6-1.2,1-1.7c0.2-0.2,0.4-0.4,0.7-0.3c0.2,0.4-0.1,0.5-0.2,0.7c-0.1,0.2-0.4,0.4-0.1,0.7
				C55.8,32.7,56,32.3,56.2,32.4z"/>
			<path fill="#F9C795" d="M54.2,36.3c-0.5-0.2-0.8,0.3-1.2,0.4c-0.4-0.5-0.3-1-0.2-1.6C52.9,35,53,35,53,34.9
				c0.5-0.2,1.1-0.2,1.6,0c0.8,0.4,1.7,0.6,2.6,0.6c1.9-0.1,3.9,0.2,5.8-0.2c0.7-0.1,1.1,0.2,1,1c-2.5,0-5-0.1-7.5,0.2
				C55.8,36.6,55,36.6,54.2,36.3z"/>
			<path fill="#BC4B1A" d="M51.1,36.5c-0.3,0.1-0.6,0.3-0.8,0.4c-0.4-0.6,0.2-0.9,0.5-1.2c0.4-0.3,0.6-0.7,0.5-1.2
				c0.1-0.2,0.2-0.4,0.5-0.5c0.6,0.2,0.7-0.4,1-0.6c0.3-0.1,0.5-0.1,0.7,0.1c0.1,0.1,0.1,0.2,0,0.3c-0.1,0.2-0.2,0.3-0.3,0.5
				C52.5,35,51.8,35.8,51.1,36.5z"/>
			<path fill="#BC4D20" d="M53.5,33.8c0-0.1,0-0.2,0-0.3c-0.1-1.2,0.4-2,1.5-2.2c0.2,0,0.4,0.1,0.5,0.2c-0.4,0.5-0.8,1.1-1.2,1.6
				C54,33.4,53.7,33.6,53.5,33.8z"/>
			<path fill="#F9C795" d="M64.5,37.1c-0.5-0.1-0.4-0.5-0.4-0.8c0.1,0,0.3,0,0.4,0C64.5,36.6,64.5,36.8,64.5,37.1z"/>
			<path fill="#FACD9B" d="M53.2,34.5c0-0.1,0-0.1,0-0.2c0.1,0,0.2-0.1,0.3-0.1c0.1-0.1,0.3-0.4,0.4-0.1c0.2,0.3-0.1,0.4-0.3,0.4
				C53.5,34.5,53.4,34.5,53.2,34.5z"/>
			<path fill="#FACD9B" d="M54.6,34.9c-0.5,0-1.1,0-1.6,0c0.1-0.1,0.1-0.1,0.2-0.2C53.7,34.8,54.2,34.5,54.6,34.9z"/>
			<path fill="#FCD4A6" d="M64.9,29.8c0.4,0,0.4,0.7,0.9,0.6c0,0.1,0.1,0.2,0.1,0.4c-0.2,0-0.4,0.1-0.4,0c-0.4-0.7-0.8-0.2-1.2,0
				c-1,0.5-2.2,0.3-3.2,0.2c-1.1-0.1-2.2-0.3-3.3,0.1c-0.4,0.2-0.7-0.2-0.8-0.4c-0.2-0.3,0.1-0.5,0.4-0.5c0.2,0,0.3-0.1,0.3-0.3
				c0.8-0.5,1.6-0.3,2.4-0.2c0.9,0.1,1.9,0.1,2.8,0.2c0.3,0.1,0.7,0,1-0.1C64.3,29.5,64.6,29.6,64.9,29.8z"/>
			<path fill="#FDD6A8" d="M64.9,29.8c-2.4,0.7-4.7-0.2-7.1,0l0,0c-0.1-0.2-0.2-0.4-0.2-0.6c0-0.2,0-0.4,0.2-0.6
				c0.8-0.3,1.1-1,1.6-1.6c0.2-0.3,0.4-0.6,0.7-0.8c0.4,0.2,0.6,0.5,0.2,0.8c-0.6,0.6-1.2,1.2-1.5,1.8c1.7,0,3.6,0.5,5.2-0.7
				c0.7,0.2,1.2,0.5,0.8,1.4C64.9,29.7,64.9,29.7,64.9,29.8z"/>
			<path fill="#BF4A1D" d="M57.8,28.6c0,0.2,0,0.3,0,0.5c-0.1,0.2-0.1,0.4-0.4,0.4c-0.6,0.4-1,0.9-1.4,1.6c-0.2,0.1-0.4,0.3-0.5,0.4
				c-0.2,0-0.4,0-0.6,0c-0.7-0.6,0-0.9,0.2-1.3c0.2-0.3,0.5-0.5,0.7-0.8c0.2-0.2,0.3-0.5,0.3-0.7c0.1-0.1,0.1-0.2,0.3-0.3
				c0.4-0.1,0.5-0.5,0.8-0.7c0.3-0.3,0.6-0.2,0.6,0.2C57.8,28.2,57.8,28.4,57.8,28.6z"/>
			<path fill="#FCD4A6" d="M64.9,29.6c0-0.5-0.1-1.1-0.8-1.2c-0.1-0.2,0-0.3,0.1-0.4c0,0,0.1,0,0.1-0.1c0.3,0.3,0.6,0.7,0.9,1
				C65.3,29.3,65.3,29.6,64.9,29.6z"/>
			<path fill="#F5CF9E" d="M67.1,31.1c-0.1,0.2-0.2,0.4-0.5,0.3c0,0,0-0.2,0-0.2C66.8,31.2,66.9,31.2,67.1,31.1
				C67.1,31.1,67.1,31.1,67.1,31.1z"/>
			<path fill="#FCD4A6" d="M57.4,29.6c0.1-0.1,0.3-0.3,0.4-0.4c0,0.2,0,0.4,0,0.7C57.6,29.8,57.5,29.7,57.4,29.6z"/>
			<path fill="#FEDAAE" d="M17.5,46.6c-0.1-0.1-0.1-0.3-0.2-0.4c0,0,0.1-0.1,0.1-0.1c0.4-0.2,0.9-0.1,1.3-0.4c0.1,0,0.3-0.1,0.4,0
				c0.2,0.2,0.5,0.3,0.8,0.4c0,0,0.1,0,0.1,0c0,0,0,0,0,0c0-0.1,0-0.1,0-0.2c0.4-0.5,1.2-0.5,1.6-1.1c0.1,0,0.2-0.1,0.3-0.1
				c2.1-0.3,4.3-0.6,6.3-1.5c0.5-0.3,1.1-0.5,1.7-0.5c0.6,0.1,1.2,0.2,1.7-0.2c0.1-0.1,0.3-0.2,0.5-0.2c1.7,0.2,3.1-0.9,4.7-1.2
				c0.9,0,1.7-0.5,2.6-0.6c0.4,0,0.8-0.1,1.2-0.2c2-0.4,3.9-1.5,6-1.3c0.4,0,0.8,0,0.9,0.5c-0.5,0.7-1.1,0.3-1.7,0.3
				c-0.2,0-0.5,0-0.5,0.3c0,0.2,0.2,0.2,0.3,0.3c0.6,0.4,1.3,0,1.9,0.4c0.7,0.6,0.8,1.3,0.6,2.1c-0.3,1.7-0.3,3.4-0.1,5.2
				c0.1,1-0.3,1.5-1.3,1.7c-0.1,0-0.3,0-0.4,0c-0.9,0.8-1.7,0.2-2.6,0c-0.4-0.1-0.6-0.2-0.6-0.6c0.1-1-0.3-2,0.1-3.1
				c0.4-0.9-0.1-1.9-0.2-2.9c-0.1-0.4-0.5-0.6-0.9-0.3c-0.8,0.1-1.5,0.5-2.3,0.6c-0.3,0-0.4,0.1-0.5,0.4c0,0.2,0,0.5,0,0.7
				c0,0.2,0,0.4,0,0.6c0,0.1,0,0.2-0.1,0.3c-0.1,0.8,0,1.6-0.1,2.5c0,0.4,0,0.7-0.2,1.1c-0.4,0.2-0.5-0.1-0.5-0.4
				c0-0.5-0.2-0.9-0.1-1.4c-0.1,0.4,0.1,0.7,0.1,1.1c0,0.5-0.3,0.4-0.5,0.7c-0.5,1.1-1.2,0.3-1.8,0.5c-0.7,0.2-1.4,0.2-2,0.2
				c-0.6,0-1.1,0-1.7,0.4c-0.6,0.4-0.6-0.5-1-0.6c-0.3-0.6-0.1-1.3-0.3-1.9c0-0.1-0.1-0.3-0.1-0.5c-0.1-1.9-0.1-1.9-2-1.5
				c-0.2,0-0.3,0.1-0.5,0.1c-0.9,0-1.2,0.4-1.1,1.3c0,0.3,0,0.7-0.2,1c-0.5,1.6-0.5,1.6-2.3,1.5c-0.8,0-1.6,0-2.3,0.4
				c-0.6,0.3-1.1,0.1-1.5-0.5c-0.2-0.4-0.2-0.8-0.2-1.2c0-0.9-0.1-0.9-1-0.5c-0.3,0.1-0.5,0.1-0.7-0.1c-0.6,0.1-1-0.2-1.2-0.8
				C17.8,46.8,17.6,46.8,17.5,46.6z"/>
			<path fill="#FDD6A8" d="M14.4,52.9c0-0.5,0-1.1,0-1.6c0-0.3,0-0.5,0-0.8c0.5,0,0.6,0.6,1,0.7c0.3-0.3,0-1.1,0.6-1
				c0.5,0.1,0.1,0.7,0.5,1c0.3-0.3,0.4-0.9,1-0.7c0.2,0.2,0.2,0.5,0.2,0.8c-0.2,0.6,0.1,1.2-0.3,1.8c-0.9-0.2-1.8-0.1-2.8,0
				C14.5,53,14.4,52.9,14.4,52.9z"/>
			<path fill="#FDD4A2" d="M17.5,51.3c0-0.3,0-0.5,0-0.8c-0.1-0.7,0.2-1.3,0.2-1.9c0-0.3,0.2-0.4,0.5-0.4c0.3,0,0.6-0.1,0.9-0.4
				c0.3,0,0.5,0,0.8,0c0.7-0.4,0.9-0.1,1,0.6c0,0.4,0,0.8,0.1,1.1c0,0.1,0,0.2-0.1,0.3c-0.7,0.1-1.4,0-2.1,0c-0.6,0-0.9,0.2-0.8,0.8
				c0,0.2,0,0.4-0.1,0.6c0,0.1-0.1,0.2-0.2,0.2C17.6,51.3,17.6,51.3,17.5,51.3z"/>
			<path fill="#FADAB5" d="M17.5,46.6c0.3,0,0.4,0.1,0.4,0.4c-0.3,0-0.6,0-0.9,0c-0.2,0-0.4,0.5-0.6,0.1c-0.1-0.1-0.1-0.3,0-0.4
				c0.2-0.3,0.4-0.4,0.7-0.3C17.3,46.5,17.4,46.5,17.5,46.6z"/>
			<path fill="#F2BA7F" d="M16.5,46c0.3-0.1,0.7-0.2,1-0.2c0.1-0.1,0.3-0.1,0.4,0c0.1,0.5-0.5,0.2-0.6,0.4l0,0c-0.3,0-0.5,0-0.8,0
				C16.5,46.1,16.5,46.1,16.5,46z"/>
			<path fill="#E36722" d="M21.1,44.6c-0.4,0-0.7,0.1-1.2-0.2c0.6-0.1,0.9-0.5,1.4-0.3c0.4,0.1,0.2-0.1,0.2-0.3
				c0.9-0.4,1.8-0.6,2.7-0.7c0.3,0,0.7,0,1,0.2c0.2,0.2,0.1,0.4-0.1,0.6c-0.4,0.2-0.9,0.2-1.3,0.5c-0.7,0.2-1.4,0-2,0.4
				C21.5,44.8,21.2,44.8,21.1,44.6z"/>
			<path fill="#E66C23" d="M18.3,43.4c0.9-0.3,1.8-0.5,2.8-0.8c0.3-0.3,0.3-0.8,0.8-0.8c0.4,0.3,0.8,0.6,1.2,0.9
				c0.1,0.1,0.1,0.3,0,0.4c-0.2,0.2-0.5,0.2-0.8,0.2c-0.5,0-1.1,0-1.6,0.1C19.9,43.2,19.1,44.1,18.3,43.4z"/>
			<path fill="#DF6E1D" d="M20.7,43.4c0.3-0.5,0.9-0.3,1.3-0.4c0.3-0.1,0.7,0,1.1,0c0.9-0.4,1-0.3,1.2,0.4c-1-0.1-1.8,0.7-2.8,0.4
				C21.2,43.8,20.7,43.9,20.7,43.4z"/>
			<path fill="#FAD29F" d="M19.1,45.8c-0.1,0-0.3,0-0.4,0c-0.1,0.1-0.3,0.1-0.4,0c0.2-0.6,0.8-0.1,1-0.4c0.6-0.1,1.2-0.3,1.8-0.4
				c0.1-0.1,0.3-0.1,0.4,0c-0.3,0.7-1,0.7-1.6,1C19.6,46,19.3,46,19.1,45.8z"/>
			<path fill="#DC6C33" d="M21.5,45c-0.1,0-0.3,0-0.4,0c0-0.1,0-0.2,0-0.4c0.9-0.3,1.8-0.5,2.8-0.4c0.1-0.1,0.2,0,0.2,0.1
				C23.3,44.8,22.3,44.7,21.5,45L21.5,45z"/>
			<path fill="#DF6E1D" d="M18.7,44.5c0,0.3-0.1,0.5-0.3,0.5c-0.4,0-0.4-0.3-0.5-0.6c0-0.3,0.1-0.6,0.4-0.5
				C18.7,43.9,18.3,44.4,18.7,44.5z"/>
			<path fill="#D97936" d="M19.3,45.4c-0.3,0.1-0.7,0.3-1,0.4c-0.1,0.1-0.2,0.1-0.4,0c-0.1,0-0.3,0-0.4,0
				C18,45.2,18.7,45.4,19.3,45.4z"/>
			<path fill="#E97F1E" d="M22.3,38.7c0-0.1,0-0.3,0-0.4c0,0,0.1-0.1,0.1-0.1c0.3-0.1,0.5-0.3,0.6-0.6c0.5-0.5,1.4-0.7,2-0.7
				c1.3-0.1,2.4-0.8,3.7-1c0.6,0,1.1-0.2,1.6-0.5c0.3-0.2,0.7-0.2,1-0.1c0.4,0.3,0.9,0.4,1.3,0.1c0.2-0.1,0.4-0.1,0.5,0
				c0.1,0.1,0.1,0.2,0.1,0.2c-0.1,0.6-0.6,0.7-1.1,0.9c-0.7,0.3-1.5,0.5-1.9,1.3c-0.1,0.2-0.3,0.4-0.5,0.5c-0.1,0.1-0.3,0.1-0.4,0.1
				c-0.1,0-0.2-0.1-0.3-0.3c0.1-0.2,0.1-0.4,0-0.7c-0.8,0-1.3,0.6-2,0.7c-0.3,0-0.6,0.3-0.9,0c-0.2-0.3-0.6-0.2-0.9-0.2
				c0.4,0,0.8-0.1,1,0.4c-0.3,0.6-0.7,0.5-1.1,0.2C24.2,38.7,23.2,38.7,22.3,38.7z"/>
			<path fill="#E7791F" d="M25.2,38.7c0.3-0.1,0.9,0.2,1-0.4h0c1-0.4,2-0.8,3.1-1.2c0,0,0.1,0,0.1,0c0,0.1,0,0.1,0,0.2
				c-0.2,0.2-0.2,0.5-0.4,0.7c-0.2,0.2-0.4,0.3-0.5,0.5c-0.1,0.1-0.1,0.1-0.2,0.1c-0.5,0.3-0.5,1.2-1.2,1.3
				c-0.2-0.3-0.3-0.4-0.8-0.2c-1,0.4-2,1-3.1,0.4c-0.2-0.1-0.3-0.1-0.5-0.3c0.6-0.4,1.2-0.9,2-0.8C24.9,39.1,25.1,38.9,25.2,38.7z"
				/>
			<path fill="#D7571B" d="M21.9,41.8c-0.3,0.2-0.4,0.7-0.8,0.8c0-0.3-0.1-0.4-0.4-0.4c-0.3-0.3-0.9-0.2-0.8-0.8c0-0.1,0-0.1,0-0.2
				c0.7,0,1.2-0.4,1.6-1c0.4-0.2,0.8-0.1,1.3-0.1c0.6,0.6-0.2,0.9-0.3,1.3C22.3,41.6,22.2,41.9,21.9,41.8z"/>
			<path fill="#D86211" d="M22.8,40.3c-0.5,0-0.9,0-1.4,0c0.3-0.4,0.8-0.1,1.2-0.4c0.2,0,0.4,0,0.6,0c0.2,0.2,0.1,0.4-0.1,0.5
				C23,40.3,22.9,40.3,22.8,40.3z"/>
			<path fill="#EC7C2D" d="M19.1,40.6c0-0.1,0-0.1,0-0.2c0.1-0.2,0.2-0.2,0.4-0.1c0.2,0.1,0.2,0.3,0,0.5
				C19.4,40.8,19.2,40.7,19.1,40.6z"/>
			<path fill="#EA8520" d="M28.6,36.1c-1.2,0.1-2.1,1.3-3.5,0.9c-0.5,0.7-1.6,0.2-2.1,0.9c-0.2,0.3-0.6,0.1-0.8,0.4
				c-0.7,0-1.3,0-2,0c0-0.3-0.1-0.7,0.4-0.8c0.1,0.1,0.3,0.2,0.4,0c0.3-0.6,1-0.5,1.6-0.7c1.8-0.6,3.6-1,5.2-2.1
				c0.9,0.4,1.1-0.4,1.5-0.8c0.1-0.1,0.3-0.1,0.4,0c0.2,0.1,0.4,0.3,0.5,0.5c0.2,0.6-0.5,0.5-0.6,0.9C29.4,35.7,29,35.9,28.6,36.1z"
				/>
			<path fill="#EB8A21" d="M29.4,33.9c-0.3,0.9-0.7,1.1-1.6,0.8c0.3-0.1,0.8,0.1,0.8-0.5c-0.1-0.1-0.1-0.2-0.1-0.3
				c0-0.1,0.1-0.2,0.2-0.2C28.9,33.7,29.2,33.7,29.4,33.9z"/>
			<path fill="#F6821B" d="M21.1,37.5c0.1,0.1,0.3,0.1,0.3,0.2c0,0.1-0.1,0.2-0.2,0.2c-0.3,0-0.4-0.1-0.4-0.4
				C20.8,37.5,20.9,37.5,21.1,37.5z"/>
			<path fill="#C2471C" d="M19.9,41.4c0.3,0.3,0.5,0.5,0.8,0.8c-0.4-0.1-0.7,0.1-1.1,0.3C19.8,42.2,18.9,41.6,19.9,41.4z"/>
			<path fill="#EE9D5C" d="M49.1,58.2c0-0.5,0-1.1,0-1.6c0.4-0.3,0.9-0.4,1.4-0.4c3.1,0,6.2,0,9.2,0c0.6,0,1.1,0,1.6-0.2
				c-0.2,0.7,0.4,0.8,0.8,1c-0.4,0.3-1.3,0.1-1.1,1c0,0.2-0.2,0.3-0.5,0.1c-1-0.6-2-0.7-3.2-0.3c-0.9,0.3-1.9,0-2.9-0.2
				C52.7,57.5,50.8,57.2,49.1,58.2z"/>
			<path fill="#F9CE9F" d="M16.7,58.2c-0.5,0-1.1,0.1-1.6-0.1c-0.9-0.2-1.7-0.4-1.9,0.9c0-0.5-0.1-1-0.1-1.4c-0.3-0.5-0.3-1.1,0-1.6
				l0,0c0.3-0.5,0.8-0.7,1.4-0.7c3.9,0.1,7.7-0.1,11.6,0.1c0.3,0,0.6-0.1,1-0.2c0.9-0.2,1.8-0.6,2.8-0.1c0.2,0.5-0.3,0.5-0.5,0.5
				c-1.5,0-2.3,0.7-2.2,2.2c0,0.1-0.1,0.2-0.2,0.3l0,0c-0.2,0.2-0.5,0.3-0.8,0.3c-1.7,0-3.4,0.2-5.1,0.1c-0.6,0-0.7-0.4-0.8-0.9
				c-0.1-0.8-0.5-1-1.3-0.7c-0.1,0-0.3,0.1-0.4,0.1c-1,0-1.4,0.6-1.4,1.5C16.9,58.8,16.9,58.8,16.7,58.2z"/>
			<path fill="#F8CA9A" d="M16.7,58.2c0.4,0,0,0.6,0.4,0.6c0,0,0.1,0.1,0.1,0.1c0.2,0.6,0.2,1.2-0.1,1.8c-0.1,0.2-0.2,0.4-0.4,0.5
				c-1.2-0.2-2.4-0.2-3.6-0.2c0-0.4,0-0.8,0-1.3c1.1,0.9,2.2,0.5,3.3,0.5c0.3,0,0.3-0.3,0.3-0.5C16.7,59.1,16.7,58.7,16.7,58.2z"/>
			<path fill="#FAD0A2" d="M13.2,56c0,0.5,0,1.1,0,1.6c-0.1,0-0.3,0-0.4,0C12.9,57.1,12.4,56.4,13.2,56z"/>
			<path fill="#FAD0A2" d="M29.9,55.2c-1.1,0-2.3,0-3.3,0.6c-0.5,0.3-0.8-0.3-1.4-0.3c-1.4,0.1-2.8,0.1-4.2,0.1
				c-1.9,0.1-3.8,0-5.6-0.1c-0.8,0-1.6-0.1-2.3,0.4c0-0.7,0-1.3,0-2c0.5-0.3,0.9-0.6,1.2-1.2c0.1,0,0.1,0,0.2,0
				c0.5,0.1,0.8,0.2,0.8,0.7c0.1,0.7,0.5,0.6,0.8,0.1c0.2-0.3,0.5-0.6,0.9-0.7c0.5-0.5-0.1-1.3,0.4-1.8l0,0c0.3,0.3,0.3,0.7,0.3,1.1
				c0,0.2,0,0.3,0,0.5c0,1.2,0,1.2,1.1,1c0.3-0.1,0.6-0.2,0.9-0.2c0.3,0,0.5-0.1,0.7-0.3c0.3-0.8-0.1-1.7,0.3-2.6
				c0.1-0.1,0.2-0.1,0.3-0.1c0.2,0.1,0.2,0.4,0.3,0.6c0,0.2,0,0.4,0,0.6c-0.1,0.5,0.2,1,0.2,1.5c-0.4,1.4-0.6,1.5-2.2,1.4
				c1.1,0.4,2.2-0.3,3.4-0.4c0.6-0.1,1.2-0.1,1.9,0c1.4,0.1,2.7,0.1,4.1-0.3c0.3-0.1,0.6-0.1,0.9,0.1c0.7,0.4,1.5,0.5,2.4,0.4
				c2.3-0.2,4.6-0.1,6.9,0.1c0.1,0.1,0.2,0.1,0.2,0.2c0,0.2,0,0.3,0,0.5c-0.1,0.4-0.4,0.7-0.8,0.7c-2.1,0-4.2-0.1-6.3-0.1
				c-0.6,0-1-0.7-1.7-0.6C30.1,55.3,30,55.3,29.9,55.2z"/>
			<path fill="#F1B27E" d="M64.9,45c0.2,0.6-0.4,1.5,0.4,2c-0.3,0.3-0.8,0.6-0.6,1.2l-0.1,0l-0.1,0c-0.3-0.3-0.2-0.7-0.3-1.1
				c0-0.3,0-0.6,0-0.9c0-0.4,0-0.8,0.3-1.2C64.6,45,64.8,45,64.9,45z"/>
			<path fill="#F1AE72" d="M64.5,47c0,0.4,0,0.8,0,1.2c0,1.4-0.2,1.6-1.6,1.6c-3.6,0-7.2,0-10.8,0c-0.7,0-1.5-0.3-2.2,0
				c-0.3,0.1-0.6-0.1-0.6-0.5c0-0.4,0-0.7,0-1.1c0.4-0.8,1.3-0.7,2-0.7c2.1,0,4.3-0.2,6.4-0.1c1.5,0.1,3,0.1,4.5,0
				C63,47.3,63.7,47,64.5,47z"/>
			<path fill="#F2B176" d="M64.5,47c-0.5,0.6-1.3,0.6-2,0.6c-2.7,0.1-5.4-0.2-8.1,0c-1.4,0.1-2.9-0.3-4.3,0.4
				c-0.2,0.1-0.6-0.3-0.8,0.1c-0.1,0-0.1,0-0.2,0c-0.2-0.5,0-1-0.1-1.6c0-0.3-0.1-0.6,0.1-0.9c0.2-0.1,0.4-0.1,0.4,0.1
				c0.3,0.9,1,0.8,1.7,0.6c0.6-0.1,1.2-0.1,1.9-0.1c2.1,0.2,4.3,0.2,6.4,0c0.5,0,1-0.1,1.5,0c1.2,0.2,2.4,0.1,3.5-0.2
				C64.5,46.4,64.5,46.7,64.5,47z"/>
			<path fill="#FAA26B" d="M49.1,53.1c-0.1,0-0.1,0-0.2,0c0-1.1,0-2.2,0-3.4c0.1-0.1,0.1-0.1,0.2,0c0,0.5,0,1.1,0,1.6
				c0,0.2,0,0.4,0,0.6C49.1,52.3,49.1,52.7,49.1,53.1z"/>
			<path fill="#FDA873" d="M49.1,49.7L49.1,49.7l-0.2,0c0-1.1,0-2.1,0-3.2c0.1-0.1,0.1-0.1,0.2,0c0,0.5,0,1.1,0,1.6
				C49.1,48.7,49.1,49.2,49.1,49.7z"/>
			<path fill="#F4B980" d="M49.5,42.4c0.6,0.3,1.3,0,1.9,0c4,0,8,0,12,0c0.5,0,1,0.1,1.5,0.2c0.2,0.1,0.2,0.3,0.4,0.4
				c0,0.4,0,0.8,0,1.2c-0.5,0-0.3-0.5-0.6-0.7c-0.3,0.9-1,0.8-1.6,0.7C62.2,44,61.4,44,60.5,44c-0.5,0-1,0.1-1.4-0.3
				c-0.3-0.2-0.7-0.2-0.9-0.1c-2.2,0.9-4.4,0.2-6.6,0.2c-0.8,0-1.7-0.2-2.4-0.7c-0.1-0.3-0.1-0.5,0-0.8
				C49.2,42.4,49.4,42.4,49.5,42.4z"/>
			<path fill="#F2B378" d="M64.5,46.2c-1,1-2.2,0.6-3.4,0.5c-0.6,0-1.3,0-1.9,0c-2,0.1-4,0.2-6,0c-1-0.1-1.9-0.1-2.8,0.2
				c-0.8,0.3-0.9,0-0.9-0.5c0-0.3,0-0.5-0.4-0.6c-0.2-0.4-0.2-0.8,0-1.2c0.2,0,0.3,0.1,0.4,0.4c0.1,0.7,0.8,0.8,1.1,0.6
				c0.7-0.6,1.3-0.1,1.9-0.1c2.3,0,4.7,0,7,0c0.6,0,1.2-0.1,1.8,0.3c0.1,0.1,0.4,0.1,0.6,0.1c0.8-0.4,1.9-0.2,2.6-0.8
				C64.5,45.4,64.5,45.8,64.5,46.2z"/>
			<path fill="#FEAF79" d="M49.1,44.6c0,0.4,0,0.8,0,1.2c0,0.3,0,0.5,0,0.8c-0.1,0-0.1,0-0.2,0c0-1.6,0-3.2,0-4.7
				c0.2,0.1,0.2,0.4,0.2,0.6c0,0.3,0,0.5,0,0.8C49.1,43.7,49.1,44.1,49.1,44.6z"/>
			<path fill="#F6BE87" d="M65.3,43c-0.3,0-0.4-0.1-0.4-0.4c0-0.3-0.1-0.7,0.4-0.8C65.3,42.2,65.3,42.6,65.3,43z"/>
			<path fill="#FCBF8E" d="M47.5,65.1c0-0.4,0-0.8,0-1.2c0.4-0.6,0.1-1.3,0.2-1.9c0-0.3-0.2-0.8,0.4-0.9c-0.1,2.2,0.3,4.5-0.4,6.7
				c-0.4-0.3-0.1-0.8-0.2-1.2C47.5,66.2,47.5,65.6,47.5,65.1z"/>
			<path fill="#FBD5A8" d="M38.6,49.3c0.1-1.2-0.2-2.5,0.2-3.8c0.1,0.1,0.2,0.3,0.2,0.5c0.1,0.5,0,1,0,1.5c0,0.9,0,1.7,0,2.6
				c0.4,0.7,0.9,0,1.3,0.1c0.5,0,1-0.2,1.5-0.3c0.1,0,0.3-0.1,0.4-0.1c0.1,0,0.2,0,0.3,0.1c0.1,0,0.2,0.1,0.2,0.2
				c0,0.6,0.1,0.9,0.9,0.7c0.9-0.3,1.7,0.2,2.6,0.2c0.8,0,1.1-0.2,1.2-1c0.1-1.3,0.2-2.6,0.1-3.9c0-0.4-0.2-0.9,0.3-1.3
				c0.1,0,0.2,0,0.3,0.1c0,2.1,0,4.2,0,6.3c-0.4,0.6,0,1.5-0.6,2c-1-0.6-1.9-0.4-2.9,0.1c-0.3,0.1-0.6,0-0.8-0.2
				c-1.6-0.9-3.3-0.7-5-0.1c-0.4,0.1-0.8,0.2-1.1,0.2c-1.8-0.3-3.7-0.4-5.6-0.4c-0.2,0-0.7,0.3-0.8-0.2c-0.1-0.4,0.2-0.6,0.5-0.8
				c0.1-0.1,0.2-0.1,0.2-0.2c0.5-0.6,1.1-0.7,1.8-0.7c0.7,0,1.4,0,2.2,0.1c0.5,0.1,1,0,1.3-0.4c0.7-0.7,0.7-0.7,1.2,0.2
				c0,0.1,0.1-0.1,0,0C38.1,50.3,38.1,49.8,38.6,49.3z"/>
			<path fill="#FDD8AC" d="M47.9,45c-0.3,0.3-0.3,0.6-0.2,0.9c0.4,1.5-0.2,3,0,4.6c0.1,0.6-0.1,0.9-0.9,0.9c-1.2,0-2.3-0.6-3.5-0.1
				c-0.4,0.2-0.6-0.4-0.8-0.6c-0.3-0.2,0.2-0.4,0.3-0.6c-0.5-0.9-0.2-2-0.3-2.9c0-0.5,0-1,0-1.5c0-0.1,0-0.2-0.1-0.3
				c0-0.1,0-0.3,0-0.4c0.2-0.8,0.2-1.5-0.7-1.9c0.2-0.4,0.5-0.5,0.8-0.3c0.3,0.2,0.6,0.5,0.6,1c-0.1,1.2,0.6,2.4-0.1,3.6
				c-0.4,0.7,0.4,1.6,0,2.6c0.9-0.3,1.5-0.2,1.9,0.7c0.2-0.9,0.7-0.9,1.3-0.9c1.1,0,1.3-0.4,1.2-1.5c-0.2-1.6-0.3-3.3,0.1-4.9
				c0.2-0.8,0-1.6-0.4-2.3c0,0,0-0.1,0.1-0.1c0.2-0.2,0.3-0.3,0.3-0.6c-0.1-0.2-0.2-0.3-0.3-0.5c-0.1-0.5-0.5-0.4-0.8-0.4
				c-0.1-0.9,0.6-0.6,1-0.7c0.4-0.1,0.7,0.1,0.7,0.6c0,0.3-0.1,0.6,0.1,0.9c0,0.3,0,0.5,0,0.8c-0.2,1,0,1.9-0.1,2.9
				C48,44.3,48.1,44.6,47.9,45z"/>
			<path fill="#FACEA0" d="M48.1,54.7c0,1,0,2,0,3c-0.2,0.3,0,0.8-0.5,0.8C47.3,58.4,47.3,58,47,58c-0.5,0.1-1,0.4-1.1-0.4
				c0.2-0.6,0.2-1.2,0.2-1.8c0-0.3,0-0.7,0.3-1c0.4-0.2,0.8-0.2,1.1,0c0.3,0.2,0,0.6,0.2,0.8C47.7,55.2,47.2,54.7,48.1,54.7z"/>
			<path fill="#FACFA2" d="M48.1,40.2C48,40.1,48,40,47.9,39.8C47.9,39.5,48,39,47.6,39c-0.4,0-1.1-0.3-1.3,0.4
				c-1.5-0.2-2.8,0.5-4.1,0.9c-1.2,0.3-2.4,0.6-3.6,0.7c-0.7,0.1-1.4,0.6-2.2,0.4c-0.1,0.1-0.2,0-0.2,0c0-0.2,0.1-0.3,0.2-0.3
				c0.3-0.1,0.5-0.2,0.8-0.3c0.5-0.1,1-0.2,1.5-0.3c0.1,0,0.2-0.1,0.3-0.1c0.6-0.1,1.1-0.2,1.7-0.4c1.5-0.4,3-0.8,4.5-1.2
				c0.6-0.1,1.1-0.2,1.7-0.4c0.3-0.1,0.7-0.1,1,0.1C48.3,39.1,48,39.7,48.1,40.2z"/>
			<path fill="#DA6124" d="M47.9,38.6c-0.9,0.1-1.8,0.3-2.7,0.4c-0.1,0.1-0.3,0.1-0.5,0c-0.2-0.3,0-0.5,0.2-0.6
				c1.4-0.2,2.4-1.2,3.6-1.7c0.3-0.1,0.5-0.3,0.8-0.2c0.2,1-0.5,1.4-1.2,1.9C48.1,38.6,48,38.6,47.9,38.6z"/>
			<path fill="#F9C595" d="M47.5,58.4c0.4-0.1,0.3-0.6,0.6-0.8c0,1.2,0,2.4,0,3.6c-0.4,0.6-0.1,1.3-0.2,1.9c0,0.3,0.2,0.8-0.4,0.9
				c-0.1-0.9,0.2-1.9-0.2-2.8C47.2,60.2,47.1,59.3,47.5,58.4z"/>
			<path fill="#C34815" d="M48.3,38.5c0.3-0.7,1.1-1,1.2-1.8c0.1-0.4,0.5-0.7,0.7-1.1c0.4-0.4,0.6-1,1.3-1.1c0.1,0.5,0.4,1-0.4,1.3
				c-0.4,0.1-0.8,0.5-0.8,1.1c-0.1,0.3-0.9,0.4-0.4,1c-0.4,0.1-0.5,0.5-0.8,0.8c-0.3,0-0.5,0-0.8,0C48.3,38.6,48.3,38.6,48.3,38.5z"
				/>
			<path fill="#FED0A1" d="M48.1,54.7c-0.6,0.1-0.2,0.7-0.5,1c-0.2-0.2-0.1-0.5-0.1-0.8c-0.4-0.5-0.4-1.1,0-1.6c0.1-0.7,0-1.4,0.6-2
				C48.1,52.4,48.1,53.5,48.1,54.7z"/>
			<path fill="#FACFA2" d="M47.9,45c0.1-1.3-0.2-2.6,0.2-3.9c0,1.3,0,2.6,0,3.9C48,45,48,45,47.9,45z"/>
			<path fill="#F6C493" d="M45.5,62.8c-0.1,0-0.1,0.1-0.2,0.1c-0.4,0.2,0,1.1-0.6,1.1c-0.9,0-1.8,0.2-2.7-0.2c-0.7-0.3-1.4-0.3-2,0
				c-0.6,0.3-1.3,0.4-1.8,0.3c-1.6-0.2-3.3-0.1-4.9-0.1c-0.4,0-0.8,0-0.8-0.6c-0.3-0.9-0.2-1.1,0.7-1.2c1-0.1,1.9-0.3,2.9,0
				c0.3,0.1,0.7,0.1,1,0c0.7-0.2,1.5-0.4,1.3-1.4c0-0.2,0-0.5,0.2-0.6c0.1-0.1,0.2-0.1,0.3,0c0.2,0.3,0.2,0.7,0.2,1.1
				c0.1,0.3-0.2,0.7,0.3,1c0.7,0.1,1.4,0.1,2.1,0c0.4,0,0.9,0,1-0.6c0.1-0.8-0.2-1.7,0.2-2.5c0.5-0.2,0.4,0.2,0.5,0.5
				c0.1,0.4,0,0.8,0.1,1.2c0.1,0.5,0.5,0.9,0.2,1.5c0.6-0.2,1.3,0.3,1.7-0.5c0-0.1,0.3-0.1,0.4,0c0.3,0.3,0.3,0.6,0.1,0.9
				C45.6,62.7,45.6,62.7,45.5,62.8z"/>
			<path fill="#F8CA9A" d="M17.1,58.8c0-0.2,0-0.5,0-0.7c0-0.1,0-0.3,0-0.4c0-0.4,1.7-1.2,2.5-1.2c0.7,0,0.9,0.3,0.9,0.9
				c0,0.7,0.4,1.1,1.2,0.8c0.1,0,0.2-0.1,0.3-0.1c1.7,0.5,3.3-0.1,5,0.1c0,0.3,0,0.5,0,0.8c-0.3,0.3-0.2,0.7-0.2,1.1
				c0,0.4-0.1,0.8-0.6,1c-0.8,0-1.6-0.1-2.3,0.2c-0.3,0.1-0.7,0.1-1-0.1c-0.4-0.2-0.8-0.2-1.2-0.1c-0.8,0.3-1,0.1-1.1-0.8
				c0-0.3,0-0.7-0.1-1c-0.1-0.1-0.1-0.3-0.2-0.4c-0.1-0.3-0.1-0.6-0.3-0.9c-1-0.4-1.9-0.4-2.4,0.2C17.5,58.6,17.5,58.9,17.1,58.8
				L17.1,58.8z"/>
			<path fill="#F7C797" d="M38.6,60c0,0.7,0,1.5,0,2.2c-0.3,0.1-0.4-0.6-0.8,0c-0.4,0.4-1.3,0.4-2,0.1c-1-0.3-1.9,0.1-2.9,0.1
				c-0.6,0-0.3,0.6-0.4,0.9c-0.1-0.1-0.1-0.1-0.2-0.2c-0.5-0.6-0.7-1.2-0.4-2c-0.2,0.2,0,0.7-0.6,0.4c0-0.3,0-0.5,0-0.8
				c0-0.6,0-0.6,0.5-1.1c0.1-0.1,0-0.4,0.1-0.6c0.1-0.1,0.1-0.1,0.2-0.1c0.1,0,0.3,0.1,0.3,0.2c0.2,1.6,1.5,1.2,2.5,1.3
				c0.9,0.1,1.9-0.5,2.9,0c0.3,0.1,0.3-0.4,0.6-0.5C38.5,60,38.6,60,38.6,60z"/>
			<path fill="#F6C696" d="M20.7,59.2c0.3,0.3,0.2,0.7,0.2,1c0,1,0.1,1.1,0.9,0.6c0.3-0.2,0.6-0.2,0.8-0.1c0.7,0.5,1.3,0.3,2,0.1
				c0.5-0.2,1.1-0.2,1.6,0.1c0.4,0,0.6,0.3,0.8,0.6c0,0.4,0.1,0.9-0.4,1.2c-1.4-0.4-2.8,0.2-4.2-0.1c-0.3-0.1-0.4,0.2-0.5,0.4
				c-0.2,0.3-0.2,0.6-0.4,0.9c-0.8-0.2-0.2-0.9-0.5-1.4c-0.3,0.3,0,0.7-0.3,1C20.2,62.1,20.2,60.6,20.7,59.2z"/>
			<path fill="#F6C493" d="M21.5,63.9c-0.1-0.5,0-1,0.4-1.4c0.1-0.1,0.2-0.4,0.3-0.3c0.9,0.8,1.8-0.1,2.7,0c0.6,0.1,1.2,0,1.7,0.4
				c0.2,1,0,1.2-1.1,1.2C24.2,64,22.8,63.9,21.5,63.9z"/>
			<path fill="#F9C997" d="M27,58.2c0-0.2,0-0.3,0-0.5c0-1.8,0.3-2.2,2.2-2.3c0.3,0,0.6,0.1,0.8-0.2c0.7-0.3,1.2,0,1.3,0.7
				c0.1,0.6,0.4,1.2,0.1,1.9c-0.1,0.1-0.1,0.2-0.2,0.2c-0.2,0-0.3-0.2-0.4-0.4c-0.1-0.5-0.4-0.5-0.8-0.6c-0.5,0-1,0-1.5,0
				c-0.7-0.1-1.1,0.2-1.1,0.9c0,0.1-0.1,0.2-0.2,0.2C27.1,58.2,27.1,58.2,27,58.2z"/>
			<path fill="#EE9A65" d="M30.9,62.9c-1,0-2,0.3-3,0.2c-0.6,0-0.8-0.2-0.7-0.8c0.2-0.8,0.7-1.1,1.5-1c0.3,0,0.7,0,1,0
				c0.7-0.1,1.1,0.2,1.3,0.8C31,62.4,31.1,62.7,30.9,62.9z"/>
			<path fill="#F6C493" d="M31.3,61.6c0.4,0,0.3-0.4,0.7-0.7c-0.3,1,0.4,1.6,0.3,2.3c0,0.7-0.6,0.8-1.1,0.8c-1.3,0-2.6,0-3.8,0
				c-0.1,0-0.2-0.1-0.3-0.1c0.2-0.3,0.6-0.2,0.8-0.2c0.6,0,1.2,0,1.8,0C31.3,63.4,31.6,63.1,31.3,61.6z"/>
			<path fill="#EDA26C" d="M30.9,62.2c-1.2-0.9-2.9-0.8-3.7,0.2c0-0.3,0-0.5,0-0.8c0.2-1,0.3-1.1,1.4-1c0.8,0.1,1.7-0.4,2.4,0.4
				C31,61.4,31.1,61.8,30.9,62.2z"/>
			<path fill="#F3B37E" d="M27.2,60c0-0.3,0-0.5,0-0.8c0.1-0.3,0.3-0.6,0.7-0.6c1,0,2.1-0.2,3.1,0.2c0.2,0.3,0.2,0.6,0.1,0.9
				c-0.3,0.3-0.8,0.3-1.2,0.3C28.9,59.9,28.1,59.9,27.2,60z"/>
			<path fill="#F1AC77" d="M27.2,60c0.7-0.6,1.5-0.3,2.3-0.4c0.5,0,1,0,1.4,0c0.2,0.1,0.3,0.3,0.4,0.5c0,0.3,0,0.5-0.2,0.7
				c-0.1,0.7,0.2,1.5-0.2,2.2c0-0.3,0-0.5,0-0.8c0-0.4,0-0.8,0-1.2c-0.3-0.5-0.8-0.4-1.4-0.5c-0.8,0-1.6-0.1-2.4,0.1
				C27.2,60.4,27.2,60.2,27.2,60z"/>
			<path fill="#F5B985" d="M30.9,58.8c-0.9,0-1.8,0-2.7,0c-0.4,0-0.8,0.1-1,0.4c0-0.3,0-0.5,0-0.8c0.6-0.7,2.8-1,3.5-0.4
				C31,58.2,31.2,58.4,30.9,58.8z"/>
			<path fill="#F9C595" d="M47.3,62c0,0.6,0,1.2,0,1.9c-0.6-0.9-0.6,0.2-1,0.1c-0.2-0.2-0.2-0.4-0.3-0.6c0-0.2,0-0.3,0-0.5
				c0-0.7-0.1-1.4,0.1-2c0.3-0.5,0.6-0.4,1-0.1C47.4,61.1,47.1,61.6,47.3,62z"/>
			<path fill="#E69865" d="M20.3,63.7c-0.8,0-1.6,0-2.4,0c-0.6,0.2-0.6-0.3-0.9-0.6c0-0.1,0-0.2,0.1-0.3c0.1-0.1,0.3-0.1,0.4-0.2
				c0.8-0.1,1.5,0.1,2.3-0.3c0.2,0,0.3,0,0.5,0.1c0.2,0.3,0.2,0.6,0.1,0.9C20.4,63.6,20.4,63.7,20.3,63.7z"/>
			<path fill="#F6BE8B" d="M30.9,58.8c0.1-0.5-0.2-0.7-0.6-0.7c-1.1,0-2.2-0.3-3.2,0.3c0-0.1,0-0.1,0-0.2c0-0.1,0-0.1,0-0.2
				c0.2-0.6,0.6-0.8,1.2-0.8c0.9,0.1,1.8-0.3,2.6,0.4c0,0.2,0,0.3,0.2,0.4c0.4,0.7,0.4,1.3,0,2c-0.2-0.1-0.2-0.2-0.2-0.4
				C30.9,59.3,30.9,59.1,30.9,58.8z"/>
			<path fill="#EEA771" d="M27.2,60.6c0.4-0.3,0.8-0.4,1.4-0.4c0.5,0,1.1,0.2,1.6,0.1c0.4-0.1,0.8,0.2,0.8,0.8c-1-0.4-2,0-3.1-0.2
				c-0.6-0.1-0.4,0.6-0.7,0.8C27.2,61.2,27.2,60.9,27.2,60.6z"/>
			<path fill="#F8CA9A" d="M31.1,60c0-0.7,0-1.3,0-2l0,0c0.3,0.4,0.9,0.4,1,1c0,0.5,0.1,1-0.1,1.5c-0.4-0.1-0.2-0.5-0.4-0.7
				c-0.3,0.3,0.1,0.7-0.3,1c-0.1,0-0.1,0-0.2,0C31.1,60.5,31.1,60.3,31.1,60z"/>
			<path fill="#F3CD9A" d="M47.3,62c-0.4-0.3-0.1-0.8-0.2-1.2c-0.5-0.7-0.2-1.5-0.3-2.3c0-0.3,0.1-0.5,0.3-0.7
				c0.7-0.2,0.3,0.4,0.4,0.6c0,0.9,0.1,1.9-0.2,2.8C47.3,61.4,47.3,61.7,47.3,62z"/>
			<path fill="#FDC191" d="M17.1,62.9c0,0.1,0,0.1,0,0.2c0.2,0.3,0.2,0.5,0,0.8c-0.7-0.3-0.3-0.9-0.4-1.4c0-0.5,0-0.9,0-1.4
				c0-0.2,0-0.3,0.2-0.4c0.1-0.1,0.2-0.1,0.3,0c0.2,0.2,0.2,0.5,0.2,0.8c0,0.2,0,0.4,0,0.6C17.4,62.5,17.3,62.7,17.1,62.9z"/>
			<path fill="#F9C997" d="M27,61.6c-0.4,0-0.5-0.4-0.8-0.6c0.4-0.3,0.4-0.7,0.4-1.1c0-0.3-0.2-0.8,0.4-0.8C27,59.9,27,60.7,27,61.6
				z"/>
			<path fill="#FEC493" d="M20.3,63.7c0-0.1,0-0.1,0-0.2c0.3-0.7-0.2-1.5-0.1-2.2c0.1-0.7-0.1-1.4,0.1-2c0-0.1,0.1-0.2,0.2-0.3
				c0.1,0.1,0.1,0.1,0.2,0.2c0,1.4,0,2.9,0,4.3C20.6,63.8,20.6,64,20.3,63.7z"/>
			<path fill="#F6C493" d="M46.3,62.9c0,0.1,0,0.3,0,0.4c-0.2,0.2-0.4,0.5-0.8,0.2c0-0.3,0-0.5,0-0.8C45.9,62.5,46.1,62.7,46.3,62.9
				z"/>
			<path fill="#F6C796" d="M45.5,63.5c0.3-0.1,0.5-0.1,0.8-0.2c0,0.2,0,0.4,0,0.6C46,63.9,45.6,64.1,45.5,63.5z"/>
			<path fill="#E49C6B" d="M17.1,63.9c0-0.3,0-0.5,0-0.8c0.4,0,0.3,0.7,0.8,0.6C17.7,64,17.4,63.9,17.1,63.9z"/>
			<path fill="#FDD6A8" d="M64.1,27.5c0.1,0.2,0.2,0.3,0.3,0.5L64.3,28c-1.1,0.1-1.8-0.6-1.9-1.8c0-0.1,0.1-0.2,0.2-0.2
				c0.1,0,0.2,0,0.3,0C63.2,26.5,63.8,26.9,64.1,27.5z"/>
			<path fill="#B44F26" d="M64.1,27.5c-0.5-0.4-1-0.9-1.4-1.4c0.2-0.2,0.4-0.2,0.6,0C63.4,26.6,64.3,26.8,64.1,27.5z"/>
			<path fill="#C84319" d="M63.3,26c-0.2,0-0.4,0-0.6,0l0,0c-0.2-0.6,0-0.8,0.6-0.8l0,0C63.3,25.5,63.3,25.8,63.3,26z"/>
			<path fill="#C14711" d="M63.3,25.2c-0.3,0.2-0.6,0.4-0.6,0.8c-0.1,0-0.1,0-0.2,0c-0.1-0.1-0.1-0.1-0.1-0.2c0-0.2,0.1-0.5-0.3-0.6
				c-0.2-0.1-0.5-0.2-0.4-0.6c-0.1-0.6,0.4-0.6,0.8-0.6C62.6,24.6,63.3,24.7,63.3,25.2z"/>
			<path fill="#DB802A" d="M61.1,22.5c-0.2,0.3-0.4,0.5-0.6,0.8c0,0.3-0.1,0.4-0.4,0.5c-0.6-0.3-1.1,0.3-1.6,0.2
				c-0.3,0-0.6,0-0.8-0.3c0-0.2,0-0.3,0.2-0.4c0.1-0.1,0.2-0.1,0.3-0.1c0.4,0,0.8-0.1,1.2-0.4c0.4-0.1,0.8,0,1.2-0.2l0,0
				C60.7,22.5,60.9,22.5,61.1,22.5z"/>
			<path fill="#FDD8AC" d="M62.5,25.9c0,0.1,0,0.1,0,0.2c0,1.1,0.8,1.7,1.8,2c-0.1,0.1-0.1,0.3-0.2,0.4c-1.5,1.3-3.3,0.8-5.1,0.8
				c-0.1,0-0.7,0.1-0.2-0.5c0.4-0.5,0.7-1.1,1.2-1.5c0.3-0.3,0.5-0.6,0.2-0.9c0.3-0.3,0.5-0.7,0.8-1c0.3-0.5,0.6-0.5,1-0.2
				C62.2,25.3,62.4,25.6,62.5,25.9z"/>
			<path fill="#C04911" d="M57.8,28c-0.3-0.4-0.5-0.1-0.7,0.1c-0.2,0.2-0.2,0.7-0.7,0.5c-0.2-0.2-0.1-0.4,0-0.6
				c0.1-0.2,0.2-0.3,0.3-0.4c0.1-0.1,0.2-0.3,0.3-0.4c0.4-0.3,0.8-0.7,1-1.1c0.1-0.1,0.2-0.2,0.2-0.3c0.3-0.4,0.6-0.9,1.1-1.1
				c0.6,0.1,0.5,0.4,0.3,0.8c-0.2,0.3-0.5,0.5-0.5,0.9c0,0.2-0.1,0.4-0.3,0.6c-0.1,0-0.1,0-0.2,0c-0.3,0.1-0.3,0.4-0.4,0.6
				c-0.1,0.1-0.1,0.1-0.2,0.2C58,27.7,57.9,27.9,57.8,28L57.8,28z"/>
			<path fill="#C14B1F" d="M59.2,26.2c-0.3-0.4,0-0.7,0.3-0.9c0.4-0.3,0.4-0.5-0.1-0.6c-0.1-0.1-0.1-0.2-0.1-0.3
				c0.1-0.4,0.3-0.6,0.7-0.6c0.3,0.1,0.8,0.1,0.5,0.7c-0.3,0-0.6,0.1-0.5,0.4c0.1,0.7-0.3,1-0.7,1.3C59.3,26.3,59.2,26.3,59.2,26.2z
				"/>
			<path fill="#C7451E" d="M60.5,24.5c0-0.4-0.4-0.3-0.6-0.6c-0.1-0.2,0-0.2,0.2-0.2c0.1-0.1,0.3-0.2,0.4-0.4c0.3,0,0.7-0.1,0.7,0.3
				C61.3,24.1,61,24.3,60.5,24.5z"/>
			<path fill="#BA5125" d="M62.5,25.9c-0.2-0.2-0.5-0.4-0.6-0.6c-0.3-0.4-0.6-0.3-0.9,0c0-0.5,0.4-0.6,0.8-0.6
				C62,25,62.8,25.1,62.5,25.9z"/>
			<path fill="#BF4A1D" d="M58.4,27.4c-0.3-0.4-0.1-0.6,0.2-0.8c0.2-0.1,0.1,0.1,0.2,0.2C59,27.3,58.6,27.3,58.4,27.4z"/>
			<path fill="#BF4A1D" d="M59.2,26.2c0.1,0,0.1,0,0.2,0c0,0.3,0,0.6-0.4,0.6C59,26.6,59.1,26.4,59.2,26.2z"/>
			<path fill="#BF4A1D" d="M57.8,28c0-0.3,0.1-0.4,0.4-0.4C58.2,27.9,58.3,28.2,57.8,28z"/>
			<path fill="#F4C792" d="M52.8,35.1c0,0.5,0.3,1,0.2,1.6c-0.3,0.7-0.9,0.3-1.7,0.4C51.9,36.3,52.7,35.9,52.8,35.1z"/>
			<path fill="#DF6620" d="M51.5,34.5c-0.4,0.4-0.7,0.9-1.2,1.2c-0.6,0.8-1.6,1.1-2.5,1.3c-1.4,0.3-2.7,0.9-4.1,1.2
				c-0.5,0.1-1.2-0.2-1.4,0.6c-0.9-0.1-1.5,0.9-2.4,0.9c-0.3,0-0.6,0-0.9,0c-0.3,0-0.6,0.1-0.9,0.2c-0.1,0-0.3,0-0.4-0.1
				c-0.1-0.1-0.1-0.3-0.2-0.4c0-0.1,0-0.3,0.1-0.4c0.3-0.5,1-0.6,1.2-1.2c0.1-0.2,0.3-0.3,0.4-0.3c0.6,0.2,1.1-0.1,1.7-0.2
				c0.6-0.1,1.3-0.3,1.9-0.5c0.2,0,0.4-0.1,0.5-0.1c0.6,0.1,0.7-0.7,1.3-0.6c0.4,0.1,0.8,0.2,1.2-0.1c0.9-0.6,1.9-0.9,3-0.9
				c0.8,0,1.2-0.6,1.7-1c0.5-0.2,0.8-0.9,1.5-0.5c0,0.1,0,0.3-0.1,0.4C51.7,34.2,51.5,34.3,51.5,34.5z"/>
			<path fill="#C34A12" d="M55.2,30.4c-0.1,0.4-0.8,0.6-0.4,1.2c-0.5,0.2-1,0.9-1.1,1.4c0,0.2-0.2,0.4-0.3,0.6c-0.3,0-0.5,0-0.8,0
				c-0.2,0.1-0.2,0-0.3-0.2c0.1-0.7,0.7-1.1,1.1-1.7c0.5-0.5,0.8-1.2,1.5-1.5C55.1,30.1,55.2,30.2,55.2,30.4z"/>
			<path fill="#C94B15" d="M52.5,33.3c0.1,0.1,0.1,0.1,0.2,0.2c0,1-0.1,1-0.8,0.6c0-0.1,0-0.3,0-0.4C52,33.4,52.1,33.2,52.5,33.3z"
				/>
			<path fill="#C45014" d="M56.2,28.8c0,0.3,0.1,0.7-0.4,0.8c-0.1,0.1-0.2,0.1-0.2,0c-0.1-0.3,0-0.5,0.1-0.7
				C55.8,28.8,56,28.7,56.2,28.8z"/>
			<path fill="#E47226" d="M56.2,28.8c-0.1,0.1-0.3,0.1-0.4,0.2c-0.1-0.1-0.1-0.2-0.1-0.3c0.1-0.5,0.3-0.9,0.9-0.7
				c-0.1,0.2-0.1,0.4-0.2,0.6C56.3,28.6,56.3,28.7,56.2,28.8z"/>
			<path fill="#BF4D0F" d="M55.6,29.6c0.1,0,0.1,0,0.2,0c0,0.4-0.4,0.5-0.6,0.8c-0.1-0.1-0.1-0.1-0.2-0.2
				C55,29.7,55.2,29.5,55.6,29.6z"/>
			<path fill="#FBD3A5" d="M47.5,53.3c0,0.5,0,1.1,0,1.6c-0.4,0-0.8,0-1.2,0c-0.3-0.1-0.5-0.2-0.8-0.1c-1,0.4-1.5,0.3-2.3-0.4
				c-0.4-0.3-0.5-0.9-0.9-1.1c-0.8,0.2-1.7,0.4-2.5,0.3c-0.8-0.1-0.5,0.8-0.9,1.1c-1,0.3-2.1,0.2-3,0.1c-1.4-0.1-2.8-0.1-4.2,0.1
				c-0.8,0.1-1.6-0.1-2.2-0.5c-0.2-0.1-0.4-0.3-0.6-0.2c-1.5,0.7-3,0.5-4.6,0.4c-0.9-0.1-1.9,0-2.7,0.3c-1.2,0.5-2.3,0.1-3.4-0.1
				c0.6-0.3,1.2-0.2,1.8-0.2c0.6,0,1.3,0,1.2-0.9c0-0.2,0.2-0.2,0.4-0.3c1.1-0.5,2.3-0.5,3.4-0.5c0.7,0,1.4,0.1,1.5-0.9
				c0-0.2,0.3-0.4,0.5-0.3c0.4,0.1,0.3,0.6,0.6,0.7c1,0.1,1.9-0.2,2.9-0.4c0.3-0.1,0.5-0.3,0.5-0.6c0-0.7,0-1.3,0-2
				c0.1-0.5-0.1-1.1,0.3-1.5c0.4,0.6,0.1,1.3,0.2,2c0.4,0.4,0.1,1,0.4,1.5c0.1,0.2,0.7,0.2,0.4,0.7c-0.2,0.3-0.6,0.4-0.7,0.9
				c2.2-0.2,4.4,0,6.5,0.3c0.4,0.1,0.7,0.1,1-0.3c0.3-0.4,4.4-0.3,4.7,0c0.8,0.7,1.4,0.7,2.1-0.2c0.4-0.5,0.6-0.3,0.8,0
				C46.8,52.9,47,53.3,47.5,53.3z"/>
			<path fill="#FED8AC" d="M32.1,51.9c0-0.1,0-0.3,0-0.3c-1.1-0.3-0.7-1.2-0.8-1.9c0.2,0,0.3,0.1,0.5,0.1c0.1,0,0.1,1.1,0.4,0.1
				c0-0.1,0.2-0.2,0.3-0.1c1.5,0.1,2.9-0.3,4.4-0.1c1,0.2,0.6-0.6,0.8-0.9c0.3,0.2,0,0.6,0.3,0.8c0-0.8,0-1.6,0-2.4
				c0.4,0.7,0.2,1.5,0.6,2.1c-0.2,0.6-0.3,1.2-0.1,1.9c-0.5-0.1-0.4-0.6-0.7-0.9c-0.5,1-1.3,1.3-2.4,1c-0.8-0.2-1.6,0-2.4-0.1
				C32.5,51.3,32.5,51.8,32.1,51.9z"/>
			<path fill="#FED8AC" d="M21.1,50.7c-0.1,0-0.1,0-0.2,0c-0.3-0.3-0.3-0.7,0-1l0,0c0.1-0.1,0.1-0.2,0.2-0.2
				c0.6,0.6,1.1,0.5,1.9,0.1c0.8-0.4,1.9-0.2,2.9-0.1c0.7,0.1,0.8-0.1,0.8-0.7c0-0.3-0.1-0.7,0.4-0.8c0.2,0.2,0.3,0.5,0.3,0.8
				c0,0.5,0.1,1-0.1,1.5c-0.4,0.9-1,1.2-2,1.1c-1.1-0.1-2.2-0.2-3.3,0.4c-0.2,0.1-0.5,0.1-0.7-0.1c0-0.2,0-0.4,0-0.6
				C21.3,51.1,21.2,50.9,21.1,50.7z"/>
			<path fill="#FCD4A4" d="M27,48.9c0-0.3,0-0.5,0-0.8c0-0.2,0-0.4,0-0.6c0-1.5,0-1.5,1.5-1.8c0.1,0,0.2-0.1,0.3-0.1
				c2.3-0.7,2.3-0.7,2.3,1.7C30.1,46.8,29,47,28,47c-0.8,0-0.5,0.6-0.5,1c0,0.2,0,0.4-0.1,0.6c0,0.1-0.1,0.2-0.1,0.3
				C27.2,49,27.1,49,27,48.9z"/>
			<path fill="#FDD2A1" d="M38.8,44.8c0-0.3,0-0.5,0-0.8c1.1-0.7,2.3-0.5,3.5-0.4c0.5,0.1,0.3,0.7,0.3,1.1c-0.2,0.3-0.5,0.2-0.7,0.2
				C40.9,44.8,39.9,45,38.8,44.8z"/>
			<path fill="#FBCD9B" d="M27.2,48.1c0-0.3,0-0.6,0-0.9c0.1-0.4,0.2-0.7,0.8-0.6c0.7,0.1,1.4,0.1,2.1,0c0.5,0,0.9,0.2,1.1,0.6
				c0,0.1,0,0.3,0,0.4c0,0.5,0,1.1,0,1.6c-0.4,0-0.4-0.3-0.4-0.5c0-0.2,0-0.4,0-0.6c-0.1-0.5-0.5-0.5-0.8-0.5
				C28.9,47.6,28,47.5,27.2,48.1z"/>
			<path fill="#FCD5A6" d="M42.6,44.8c0.1-0.9-0.2-1.1-1.1-1c-0.9,0.1-1.8-0.1-2.7,0.2c0-0.2,0.1-0.5,0.3-0.5
				c0.9,0.1,1.7-0.6,2.6-0.5c1,0.1,1.2,0.7,0.8,2C42.5,44.9,42.5,44.9,42.6,44.8C42.6,44.8,42.6,44.8,42.6,44.8z"/>
			<path fill="#FAD8A8" d="M36.3,41.4c0.1,0,0.1,0,0.2,0c-1,0.5-2.1,0.6-3,1.2c-0.3,0.2-0.5,0.1-0.8,0c-0.5-0.1-1-0.1-1.5,0.3
				c-0.5,0.4-1,0.2-1.5,0.1c0.1-0.5,0.5-0.4,0.8-0.6c0.6-0.1,1.1-0.3,1.6-0.4c1-0.2,2-0.4,2.9-0.7C35.5,41.3,35.9,41.1,36.3,41.4z"
				/>
			<path fill="#FAD29F" d="M21.5,45c0.8-0.4,1.8-0.4,2.6-0.8c0.6-0.3,1.2-0.3,1.8-0.6c0.8-0.1,1.5-0.6,2.3-0.2
				c-0.3,0.9-1.1,0.5-1.7,0.6C24.9,44.5,23.2,45,21.5,45z"/>
			<path fill="#D66C29" d="M28.2,43.4c-0.8,0.1-1.6,0.3-2.3,0.4c-0.3,0.1-0.5,0.1-0.8,0c0.1-0.1,0.1-0.3,0.2-0.4
				c0.1-0.1,0.3-0.2,0.4-0.2c0.9,0,1.8-0.4,2.7-0.6c0.5-0.1,0.9-0.2,1.4-0.2c0.3,0,0.6,0,0.8,0.3c-0.3,0.1-0.6,0.3-0.8,0.4
				C29.2,43,28.7,43.1,28.2,43.4z"/>
			<path fill="#FBCA97" d="M38.8,46c0-0.1,0-0.3,0-0.4c0-0.1,0-0.1,0-0.2c0.4-1,1.3-0.6,2-0.6c0.6,0,1.4-0.3,1.8,0.6l0,0
				c0.1,0.1,0.1,0.3,0,0.4c-0.6,0-1.3-0.2-1.9-0.2C40.1,45.7,39.4,45.7,38.8,46z"/>
			<path fill="#FED7B2" d="M47.1,39.9c0.3,0,0.5,0.1,0.6,0.4c-0.1,0.1-0.2,0.1-0.2,0.2c-0.3,0.1-0.7,0.1-1,0.1
				c-0.4,0-0.8-0.1-1.2,0.1c0,0-0.1,0-0.1,0c-0.3,0-0.6,0-0.7-0.4c0-0.4,0.4-0.4,0.6-0.4C45.8,39.8,46.5,39.8,47.1,39.9z"/>
			<path fill="#FCCE9C" d="M42.6,45.4c-0.7-0.6-3-0.6-3.7,0c0-0.2,0-0.4,0-0.6c1.2-0.3,2.5-0.3,3.7,0c0,0.1,0,0.1,0,0.2
				C42.6,45.1,42.6,45.2,42.6,45.4z"/>
			<path fill="#F9DDAB" d="M46.3,40.2c0.4,0,0.8,0,1.2,0c0.3,0.5-0.2,0.6-0.4,0.8c-0.6-0.2-1.5,0.4-2-0.4l0,0
				C45.5,40.3,46,40.6,46.3,40.2z"/>
			<path fill="#FCD5A8" d="M21.1,49.5c-0.1,0.1-0.1,0.1-0.2,0.2c-0.1-0.4-0.3-0.8-0.2-1.2c0.1-0.6-0.2-0.8-0.8-0.7
				c0.1-0.5,0.5-0.4,0.8-0.4c0.4,0,0.3,0.4,0.3,0.7C21.1,48.6,21.1,49,21.1,49.5z"/>
			<path fill="#FED5A1" d="M17.9,45.8c0.1,0,0.3,0,0.4,0c0.1,0,0.3,0,0.4,0c-0.3,0.7-0.9,0.3-1.4,0.4C17.5,46,17.7,45.9,17.9,45.8z"
				/>
			<path fill="#F4DDB0" d="M19.9,46.2c0.2,0,0.5-0.1,0.7,0.2c0,0-0.1,0.2-0.1,0.2C20.1,46.6,19.9,46.5,19.9,46.2L19.9,46.2z"/>
			<path fill="#F4DDB0" d="M19.1,45.8c0.3,0,0.6-0.1,0.8,0.2c0,0.1,0,0.1,0,0.2h0C19.6,46.1,19.2,46.3,19.1,45.8z"/>
			<path fill="#FAD4A6" d="M17.1,53.1c-0.2,0.5-0.9,0.6-0.9,1.2c0,0.2-0.5,0.1-0.7,0.1c-0.3,0-0.4-0.3-0.3-0.5
				c0.1-0.5-0.2-0.8-0.6-1.1C15.4,52.8,16.3,52.1,17.1,53.1z"/>
			<path fill="#F9CB98" d="M20.9,49.7c0,0.3,0,0.7,0,1c-0.1,1,0.2,2-0.2,3c-0.2-0.2-0.3-0.5-0.3-0.8c0-0.4,0-0.8,0-1.1
				c0-0.3,0-0.5,0-0.8c0-0.3,0.2-0.7-0.5-0.6c-0.8,0.1-1.5-0.1-2.2,0.3c-0.2-1,0.3-1.3,1.2-1.2C19.6,49.6,20.3,49.4,20.9,49.7z"/>
			<path fill="#F9C28F" d="M17.7,50.7c0.4-0.5,2.3-0.9,2.8-0.5c0.2,0.2,0.1,0.4,0.1,0.7c-0.1,0.3-0.2,0.5-0.6,0.4
				c-0.6-0.2-1.3-0.1-1.9,0c-0.1,0-0.1,0.1-0.2,0.1c-0.1,0-0.2,0-0.2-0.1C17.7,51.1,17.7,50.9,17.7,50.7z"/>
			<path fill="#F8BD8A" d="M17.7,51.3c0.1,0,0.1,0,0.2,0c0.1,0.5,0.2,1-0.4,1.2c0-0.4,0-0.8,0-1.2C17.6,51.3,17.6,51.3,17.7,51.3z"
				/>
			<path fill="#E26A1F" d="M25.6,43.4c-0.1,0-0.3,0-0.4,0c-0.3,0-0.7,0-1,0C24,42.7,23.4,43.1,23,43c0-0.1,0-0.3,0-0.4
				c0,0,0.1-0.1,0.1-0.1c0.3-0.2,0.8-0.1,1.1-0.4c1-0.2,1.9-0.7,2.7-1.5c0.1-0.1,0.3-0.2,0.4-0.2c0.3,0.2,0.1,0.6,0.4,0.8
				c0.6,0.1,1.1,0.1,1.5-0.5c0.2-0.2,0.5-0.2,0.8-0.1c0,0.5,0.7,0.2,0.8,0.6c0.2,0.4,0.1,0.6-0.3,0.7c-0.3,0.1-0.6,0.2-0.9,0.3
				c-0.2,0-0.4,0-0.6-0.1c-0.1,0-0.2-0.1-0.3-0.2c0,0.2,0.2,0.2,0.1,0.4c-0.6,0.4-1.4,0.3-2.1,0.6C26.2,43.1,25.9,43.1,25.6,43.4z"
				/>
			<path fill="#D96E31" d="M25,43.8c0.3,0,0.5,0,0.8,0c-0.6,0.3-1.1,0.4-1.8,0.4c-0.1,0-0.2,0-0.2,0C24,43.5,24.6,43.9,25,43.8z"/>
			<path fill="#E3701E" d="M27,40.6c0.2,0.8-0.7,0.8-1.1,1.1c-0.3,0.3-1,0.7-1.7,0.5c-0.3,0.4-0.9,0-1.2,0.4l0,0
				c-0.6,0.1-1-0.2-1.2-0.8c0.1-0.1,0.3-0.3,0.4-0.4c0.1-0.1,0.2-0.2,0.4-0.2c0.5,0.1,1,0,1.5-0.3c0.9-0.5,2-0.4,2.9-1
				C27.5,40.2,27,40.4,27,40.6z"/>
			<path fill="#E87C1E" d="M56.6,28c-0.4,0.1-0.7,0.4-0.8,0.8c-0.1,0.1-0.1,0.1-0.2,0.1c-0.4,0-0.6,0.3-0.8,0.5
				c-1.2,1.1-2.8,0.9-4.2,1.5c-1.4,0.7-3,0.8-4.4,1.6c-0.5,0.3-1.2,0.2-1.8,0.5c-0.5,0.3-1,0.4-1.6,0.4c0.2,0.7-0.1,1-0.7,1.2
				c-0.3,0-0.5-0.6-0.9-0.4c-0.3,0-0.5,0.2-0.9,0.2c-0.5-0.2-1.1,0-1.5,0.2c-1.4,0.7-3,0.9-4.4,1.5c-0.5,0.2-1,0-1.3-0.4
				c0-0.1,0-0.1,0-0.2c0.1-0.2,0.3-0.2,0.5-0.2c0.8-0.2,1.3-0.8,2.1-1.1c1.9-0.7,4-1.1,5.8-2c0.1-0.1,0.3-0.1,0.4-0.1
				c1.5-0.2,2.7-0.9,4.1-1.3c1.6-0.5,3.2-1.2,4.8-1.7c1.3-0.4,2.6-0.9,4-1.3c0.4-0.1,0.8-0.3,1.1-0.6c0.5-0.5,0.7-0.2,0.8,0.4
				C56.7,27.8,56.7,27.9,56.6,28z"/>
			<path fill="#E7791D" d="M33.1,35.7c0.7,0.3,1.2,0.3,1.9-0.2c0.5-0.4,1.3-0.3,1.9-0.5c0.9-0.3,1.8-0.7,2.8-1
				c0.4-0.1,0.6-0.1,0.7,0.3c0.2,0.5-0.2,0.8-0.3,1.2c-0.1,0.1-0.2,0.1-0.3,0.1c-0.6-0.2-1.1-0.1-1.7,0.1c-1.8,0.6-3.6,1-5.5,1.4
				c-0.1,0-0.2,0.1-0.2,0.1c-0.6,0.1-1.2,0-1.7,0.6c-0.1,0.1-0.1,0.1-0.2,0.1c-0.1,0-0.3,0-0.4-0.1c0.1-1.2,1.2-1.2,1.9-1.5
				C32.4,36.1,32.8,36,33.1,35.7z"/>
			<path fill="#ED821C" d="M30.1,34.3c-0.3,0-0.4-0.2-0.4-0.4c0,0,0.1-0.1,0.1-0.1c0.9-0.1,1.8-0.8,2.6,0c0.3,0.3,0.8,0.3,0.9,0.7
				c0,0.1,0,0.2-0.1,0.2c-0.2,0.2-0.5,0.2-0.8,0.4c-0.1,0-0.1,0.1-0.2,0.1c-0.4,0-0.6,0.5-1,0.2c-1-0.2-1.8,0.7-2.8,0.6
				c0.2-0.3,0.7-0.5,0.8-1c0.5-0.3,1.1-0.1,1.5-0.5C30.7,34.5,30.3,34.6,30.1,34.3z"/>
			<path fill="#E16821" d="M29.4,38.3c0.1,0,0.3,0,0.4,0c0.3-0.1,0.6-0.2,0.8-0.4h0c0.5-0.4,0.9-0.8,1.6-0.7
				c-0.3,0.9-0.9,1.5-1.9,1.8c-0.1,0-0.2,0-0.3,0C29.6,38.9,29.3,38.7,29.4,38.3z"/>
			<path fill="#C24E0C" d="M29.4,38.3c0.1,0.3,0.3,0.5,0.6,0.6c0.1,0.2,0,0.2-0.2,0.3c-0.5,0-0.9-0.3-1.4-0.1
				c-0.2-0.2-0.2-0.4,0-0.6c0-0.4,0.1-0.6,0.6-0.6c0.1,0,0.2,0.1,0.2,0.2C29.2,38.1,29.3,38.2,29.4,38.3z"/>
			<path fill="#E97E24" d="M31.3,35.5c0.4-0.1,0.7-0.5,1.2-0.4c0.1,0.1,0.1,0.3,0,0.4C32.1,36.1,31.7,36.1,31.3,35.5z"/>
			<path fill="#E47F26" d="M26.2,38.3c-0.5,0-1.1,0.1-1.6-0.2C25.1,38,25.7,37.5,26.2,38.3L26.2,38.3z"/>
			<path fill="#E4821D" d="M32.5,35.5c0-0.1,0-0.3,0-0.4l0,0c0.2-0.2,0.5-0.2,0.8-0.2c0.3,0.1,0.6,0.2,0.4,0.6c-0.2,0-0.4,0-0.6,0
				C32.9,35.5,32.7,35.5,32.5,35.5z"/>
			<path fill="#E67320" d="M30.5,37.9c-0.1,0.4-0.3,0.7-0.8,0.4c0-0.3,0.1-0.4,0.4-0.4C30.3,37.9,30.4,37.9,30.5,37.9z"/>
			<path fill="#EE7D30" d="M29.2,38.1C29.1,38,29,37.9,29,37.9c-0.2-0.4,0-0.6,0.4-0.6C29.2,37.5,29.8,37.9,29.2,38.1z"/>
			<path fill="#ED821B" d="M22.3,38.3c0.1-0.5,0.5-0.4,0.8-0.4C23,38.4,22.6,38.2,22.3,38.3z"/>
			<path fill="#E6741E" d="M27,40c-0.4,0.5-1,0.7-1.6,0.7c-0.5,0-1,0.3-1.5,0.5c-0.4,0.2-0.7,0.6-1.2,0.2c-0.2-0.5,0.4-0.7,0.4-1.2
				c0.2-0.1,0.2-0.2,0.2-0.4c0.2,0.4,0.6,0.4,0.9,0.3c1-0.4,2.1-0.3,2.9-1.2c0.2,0.4-0.5,0.6,0,0.9C27,39.9,27.1,39.9,27,40
				C27,40,27,40,27,40z"/>
			<path fill="#C24B14" d="M28.4,38.5c0,0.2,0,0.5,0.2,0.6c0.3,0.3-0.1,0.6-0.1,1c0.7,0.1,1.3-0.1,2-0.5c0.2,0,0.4,0.1,0.5,0.2
				c0.1,0.4-0.2,0.6-0.5,0.7c-0.2,0.1-0.3,0.1-0.5,0.1c-0.3,0-0.6-0.1-0.8,0.2c-0.5,0.3-1,0.4-1.6,0.4c-0.7-0.1-0.1-0.5-0.2-0.8
				c0-0.8,0.5-1.3,0.8-2C28.2,38.5,28.3,38.5,28.4,38.5z"/>
			<path fill="#E47127" d="M28.2,38.5c-0.1,0.7-0.4,1.4-0.8,2c-0.1,0.1-0.3,0.1-0.4,0.2c-0.1-0.2,0.2-0.4,0-0.6c0-0.1,0-0.1,0-0.2
				c0.4-0.3,0.6-0.8,0.8-1.2C27.9,38.3,28,38.4,28.2,38.5z"/>
			<path fill="#E66C23" d="M23,40.3c0.2,0.5-0.3,0.8-0.4,1.2c-0.1,0-0.3,0-0.4,0c0-0.5,0.6-0.7,0.6-1.2C22.9,40.2,23,40.3,23,40.3z"
				/>
			<path fill="#E78626" d="M30.1,34.3c0.5,0,1-0.1,1.5,0.1c-0.7,0.6-1.5,0.7-2.3,0.7C29.3,34.5,30.2,34.9,30.1,34.3z"/>
			<path fill="#F5C18D" d="M20.5,59c0,0.1,0,0.1,0,0.2c-0.1,0.1-0.2,0.1-0.3,0.1c-0.6-0.3-1.3-0.2-1.9-0.2c-0.4,0-0.6,0.2-0.7,0.6
				c0,0.2,0,0.4,0,0.6c-0.1,0.2,0,0.6-0.4,0.5c-0.1,0-0.1,0-0.2,0c0.2-0.6,0.2-1.3,0.2-2c0.2-0.1,0.2-0.4,0.2-0.6c1-0.4,2-0.4,3-0.2
				C20.5,58.3,20.5,58.7,20.5,59z"/>
			<path fill="#F9CE9F" d="M32.1,59c-0.4-0.3-0.8-0.5-1-1c0.4-0.8,0-1.6-0.2-2.4c-0.1-0.6-0.6-0.3-1-0.3c0.4-0.3,0.9-0.3,1.2,0
				c0.5,0.6,1.2,0.5,1.8,0.5c1.3,0,2.6-0.1,3.9,0.1c0.7,0.1,1.5,0.3,2-0.5c0.3,0.3,0.2,0.6,0.3,0.9c0,0.4,0,0.8,0,1.1
				c0,0.1,0,0.2-0.1,0.3c-0.1,0.3-0.2,0.5-0.4,0.7c-0.4,0.3-0.9,0.3-1.3,0.2c-1.3-0.1-2.5,0-3.8-0.1C33,58.5,32.5,58.6,32.1,59z"/>
			<path fill="#FCD5A8" d="M21.1,51.9c1.2-0.5,2.5-0.7,3.9-0.6c1,0.1,1,0,2.1-0.8c0.3,0.4,0.3,0.8,0,1.2c-0.5,0.1-0.6,0.5-0.6,0.9
				c0.1,0.7-0.1,0.6-0.6,0.5c-1.5-0.2-2.9,0.2-4.4,0.2C20.9,52.9,21.1,52.4,21.1,51.9z"/>
			<path fill="#FBCE9B" d="M38.8,54.7c0-1.4,0-1.5,1.3-1.4c0.9,0.1,1.6-0.5,2.4-0.4c0,0.7,0.6,1.3,0.2,2c-1.3,0.1-2.6,0.2-3.9,0
				C38.8,54.8,38.8,54.7,38.8,54.7z"/>
			<path fill="#F2B27F" d="M17.5,52.5c0.4-0.3,0.1-0.8,0.4-1.2l0,0c0.9-0.1,1.9-0.3,2.8,0.4c0,0.4,0,0.8,0,1.2
				c-0.1,0.1-0.3,0.2-0.4,0.2c-0.8,0.1-1.5,0.1-2.3,0.1c-0.2,0-0.3-0.1-0.4-0.2C17.5,52.8,17.5,52.6,17.5,52.5z"/>
			<path fill="#F8C693" d="M38.8,54.9c1.3-0.3,2.6-0.3,3.9,0c0,0,0.1,0.1,0.1,0.1c0.2,0.5,0.1,1.1,0.2,1.7c0,0.3,0,0.7-0.2,1
				c-0.5,0-0.4-0.4-0.5-0.7c0-0.3,0-0.5,0-0.8c0-0.2,0-0.3-0.2-0.4c-0.7-0.4-2.5,0-3.1,0.5c-0.1,0-0.2,0-0.3,0c0-0.3,0-0.7,0-1
				C38.8,55.1,38.8,55,38.8,54.9z"/>
			<path fill="#E6A672" d="M17.5,52.9c0.1,0,0.3,0,0.4,0c0.5,0.7,1.3,0.4,2,0.7c0.1,0.1,0.1,0.2,0,0.3c-0.4,0.1-0.7,0.1-1.1,0.2
				C17.5,54.3,17.5,54.3,17.5,52.9z"/>
			<path fill="#E7A879" d="M19.9,53.9c0-0.1,0-0.1,0-0.2c-0.3-0.5,0.2-0.6,0.4-0.8c0.1,0,0.3,0,0.4,0c0,0.3,0,0.5,0,0.8
				C20.4,53.8,20.2,53.9,19.9,53.9z"/>
			<path fill="#FCD5A8" d="M21.1,50.7c0.3,0.2,0.6,0.4,0,0.6C21.1,51.1,21.1,50.9,21.1,50.7z"/>
			<path fill="#F9C693" d="M38.8,46c0.7-0.7,2.7-0.8,3.7-0.2c0.2,0.2,0.1,0.5,0.1,0.7c-0.9-0.2-1.8,0-2.7-0.1
				c-0.3,0-0.7-0.1-0.7,0.4c0,0.2,0,0.5-0.2,0.7c-0.1,0.1-0.2,0.1-0.3,0C38.8,47,38.8,46.5,38.8,46z"/>
			<path fill="#F4B582" d="M38.8,47.6c0.1,0,0.1,0,0.2,0c1.1-0.5,2.3-0.4,3.5-0.1c0.3,0.3,0.1,0.7,0.2,1c0,0.1-0.1,0.2-0.2,0.2
				c-0.8-0.3-1.6-0.2-2.4-0.2c-0.4,0-0.7,0.1-0.7,0.6c0,0.4,0,0.7,0,1.1c-0.1,0.2-0.1,0.4-0.4,0.4C38.8,49.5,38.8,48.5,38.8,47.6z"
				/>
			<path fill="#EAA676" d="M38.8,50.5c0.2-0.1,0.2-0.2,0.2-0.4c1.1-0.4,2.1-1,3.4-0.5c0.1,0.2,0.1,0.3,0,0.4c-0.1,0-0.3,0-0.4,0
				c-0.5,0.1-1.1,0.1-1.6,0.4C39.9,50.4,39.4,51,38.8,50.5z"/>
			<path fill="#F8C18E" d="M42.6,48.5c0-0.3,0-0.7,0-1c-0.2-0.2-0.2-0.3-0.1-0.5c0.1-0.1,0.2-0.1,0.3-0.1c0,1.1,0,2.1,0,3.2
				c-0.1,0-0.1,0-0.2,0C42.4,49.6,42.1,49.1,42.6,48.5z"/>
			<path fill="#EBB07F" d="M40.4,50.5c0.4-0.5,1-0.4,1.6-0.4C41.5,50.4,41,50.5,40.4,50.5z"/>
			<path fill="#EBB07F" d="M42.6,48.5c0,0.5,0,1,0,1.6l-0.1,0l-0.1,0c0-0.1,0-0.3,0-0.4c-0.2-0.2-0.3-0.5-0.2-0.8
				c0-0.2,0.1-0.3,0.2-0.4C42.5,48.5,42.5,48.5,42.6,48.5z"/>
			<path fill="#FCCE9C" d="M42.8,47c-0.1,0-0.1,0-0.2,0c0,0-0.1-0.1-0.1-0.1c0-0.1,0-0.2,0.1-0.3c0-0.3,0-0.5,0-0.8
				c0-0.1,0-0.3,0-0.4C43,45.9,42.7,46.4,42.8,47z"/>
			<path fill="#FEDAAE" d="M47.1,41c0.1-0.3,0.3-0.5,0.4-0.8c0.1,0,0.1,0,0.2,0C47.7,40.7,47.8,41.1,47.1,41z"/>
			<path fill="#F6D0A0" d="M45.5,54.5c0.3,0,0.7-0.1,0.8,0.4c0,0.7,0,1.4,0,2c0,0.4-0.1,0.7-0.4,0.9c0,0.4-0.2,0.3-0.4,0.2
				c-0.1-0.1-0.1-0.2-0.2-0.3c-0.1-0.7-0.1-1.4-0.1-2.2C45.2,55.2,45.3,54.8,45.5,54.5z"/>
			<path fill="#FACE9E" d="M45.5,58c0.2,0,0.3,0,0.4-0.2c0.4,0.2,0.8-0.1,1.2,0c0,0.2,0,0.4,0,0.6C46.5,58.6,45.9,58.7,45.5,58z"/>
			<path fill="#DF621F" d="M38.8,39.5c0.4,0,0.7,0,1.1,0c0.3,0,0.7,0.1,0.8-0.4c0-0.2,0.3-0.3,0.5-0.3c0.4,0,1.1,0.5,0.9-0.5
				c0.3,0,0.6-0.1,0.9-0.1c0.7,0,1.3-0.2,2-0.5c1.3-0.6,2.7-0.7,4-1.1c0.5-0.2,0.7-0.7,1.2-0.6c-0.1,0.5-0.4,0.7-0.8,1
				c-1.1,0.6-2.3,1-3.3,1.8c-0.3,0.2-0.5,0.2-0.8,0.2c-0.3,0-0.6,0-0.7,0.4c-0.1,0.1-0.2,0.1-0.4,0.1c-0.4-0.1-0.8-0.7-1.1,0.2
				c-0.6,0.5-1.3,0.5-2,0.7c-0.3,0.1-0.7,0-0.9,0.3c-0.5,0.2-1.1,0-1.6,0.4l0,0c-0.5,0.2-1.1,0-1.6,0.4c-0.3,0.1-0.5,0.1-0.8,0.2
				c-0.4-0.1-1.1,0.2-1.2-0.7c0.7-0.6,1.4-1,2.4-0.7c0.1,0,0.3,0,0.4,0C38.2,39.6,38.6,39.7,38.8,39.5z"/>
			<path fill="#DF6621" d="M35.3,40.6c0.3,0.5,0.9,0.2,1.2,0.6c-0.1,0.1-0.1,0.1-0.2,0.2c-1.4,0.2-2.7,0.8-4.1,0.8
				c0,0-0.1,0-0.1-0.1c-0.7-0.3-0.6-0.7-0.1-1.1c0.4-0.4,0.8-0.8,1.5-0.8c0.4,0,0.9,0.1,1.3,0.1C34.9,40.4,35.1,40.5,35.3,40.6z"/>
			<path fill="#CF682E" d="M44.4,39.1c0.1,0,0.3,0,0.4,0c0.2,0,0.3,0,0.5,0c-1.5,0.5-3,0.9-4.6,1.2c-0.1,0.1-0.2,0.1-0.2,0
				c0.1-0.5,0.5-0.3,0.8-0.4c0.7-0.1,1.4-0.3,2-0.8C43.6,38.8,44,38.8,44.4,39.1z"/>
			<path fill="#D1763E" d="M40.4,40.2c0.1,0,0.2,0,0.2,0c-0.6,0.3-1.2,0.4-1.8,0.4C39.2,39.8,39.9,40.4,40.4,40.2z"/>
			<path fill="#D67137" d="M37.3,41c0.4-0.8,1.1-0.2,1.6-0.4C38.3,40.9,37.8,41,37.3,41z"/>
			<path fill="#F8CA9A" d="M45.5,58c0.5,0.3,1.1,0.2,1.6,0.4c0,0.8,0,1.6,0,2.4c-0.3,0.1-0.5-0.4-0.8,0c-1,0.3-2.1,0.1-3.2,0.2
				c-0.5-0.6,0.1-1.4-0.4-2c-0.4-0.5-0.4-0.9,0-1.4c0-0.3,0-0.7,0-1c0.6,0.1,0.4,0.6,0.4,0.9c0,0.4,0.1,0.5,0.5,0.4
				C44.3,57.8,44.9,57.8,45.5,58z"/>
			<path fill="#F6C796" d="M43.2,61c0-0.5,0.4-0.2,0.6-0.2c0.9,0,1.7-0.3,2.6,0c0,0.7,0,1.4,0,2.2c-0.3-0.1-0.5-0.1-0.8-0.2
				c-0.1-0.3,0.1-0.6-0.3-1c0,0.9-0.5,1-1.1,0.6c-0.3-0.2-0.5,0.2-0.9,0.2C43.6,62,43,61.5,43.2,61z"/>
			<path fill="#F2AE7A" d="M38.8,61.2c0-0.4,0-0.8,0-1.2c-0.4-0.5-0.3-1-0.1-1.6c0.5-1,2.6-1.5,3.6-0.9c0.4,0.3,0.4,0.8,0.4,1.2
				c0,0.3-0.2,0.4-0.5,0.3c-0.7,0-1.4,0.1-2.1,0c-0.4-0.1-0.8,0-0.9,0.6c0,0.3,0,0.7,0,1c0,0.2-0.1,0.3-0.2,0.4
				C39,61.2,38.9,61.2,38.8,61.2z"/>
			<path fill="#F5B885" d="M42.6,59c-0.1-1.4-0.1-1.4-1.5-1.4c-0.8,0-1.8-0.3-2.3,0.8c-0.2-0.3-0.1-0.5,0-0.8c0-0.1,0-0.1,0-0.2
				c0-0.7,0.5-0.8,1.1-0.9c0.9-0.2,1.8-0.4,2.6,0.3c0,0.3-0.1,0.6,0.2,0.8c0,0.5,0,0.9,0,1.4c0,0.9,0,1.8,0,2.8
				c-0.6-0.1-0.4-0.6-0.5-1C42.4,60.2,42.1,59.5,42.6,59z"/>
			<path fill="#E89F6C" d="M42.6,60.8c0.1,0.3-0.1,0.7,0.2,1c-0.3,0.6-0.9,0.5-1.4,0.6c-0.8,0.1-1.6,0-2.3,0c-0.1-0.1-0.1-0.3,0-0.4
				c0.6-0.4,1.2-0.2,1.8-0.2c0.5,0,1.1-0.1,1.3-0.7c0-0.1,0.1-0.2,0.2-0.3C42.4,60.7,42.5,60.7,42.6,60.8z"/>
			<path fill="#F7C797" d="M38.8,57.6c0,0.3,0,0.5,0,0.8c0,0.5,0,1.1,0,1.6c-0.1,0-0.1,0-0.2,0l0,0c-0.4-0.6-0.3-1.2,0-1.8
				C38.6,58,38.6,57.8,38.8,57.6z"/>
			<path fill="#F0A46F" d="M39,62c0,0.1,0,0.3,0,0.4c-0.4-0.3-0.1-0.8-0.2-1.2c0.1,0,0.1,0,0.2,0c0,0,0.1,0.1,0.1,0.1
				C39.2,61.5,39.2,61.8,39,62z"/>
			<path fill="#F9C792" d="M20.3,58c-1,0.3-2,0.3-3,0.2c0-0.1,0-0.2,0.1-0.3C17.9,57.4,19.8,57.5,20.3,58z"/>
			<path fill="#F8CA9A" d="M38.6,58.2c0,0.6,0,1.2,0,1.8c-0.3,0.3-0.3,0.8-0.7,1c-0.5-1.2-1.5-0.5-2.1-0.4c-1,0.2-1.9-0.2-2.8-0.1
				c-0.4,0.1-0.4-0.3-0.4-0.6c0-0.4,0-0.7-0.4-0.9c-0.1-0.6,0.2-0.8,0.8-0.8c1.7,0,3.5,0,5.2,0.1C38.3,58.4,38.5,58.3,38.6,58.2z"/>
			<path fill="#F8C490" d="M30.9,57.6c-0.9-0.3-1.9,0.1-2.8-0.1c-0.4-0.1-0.7,0.3-1,0.5c-0.1-0.9,0-1.4,1.1-1.2
				c0.6,0.1,1.2,0.1,1.8,0C30.8,56.8,31,57,30.9,57.6z"/>
			<path fill="#EDA26D" d="M17.1,62.2c0-0.2,0-0.4,0-0.6c0.1-0.1,0.1-0.1,0.2-0.2c0.5-0.2,2.5-0.1,3,0.1c0,0.3,0.1,0.7-0.1,1
				c-0.1,0-0.3,0-0.4,0c-0.8-0.2-1.6-0.2-2.4-0.2C17.3,62.3,17.2,62.3,17.1,62.2z"/>
			<path fill="#ED9A66" d="M17.5,62.2c0.6,0,1.2,0,1.7,0c0.3,0,0.6,0,0.6,0.4c-0.1,0.6-0.6,0.4-0.9,0.4c-0.5,0-1,0-1.4,0
				C17.3,62.7,17.3,62.4,17.5,62.2z"/>
			<path fill="#F5B989" d="M20.3,62.6c0-0.4,0-0.8,0-1.2c-0.2-0.1-0.2-0.3-0.2-0.5c0-0.2,0-0.4,0-0.6c0-0.3-0.3-0.6-0.2-0.9
				c0.1-0.2,0.3-0.3,0.5-0.1c0.1,0,0.1,0,0.2,0c0,1.1,0,2.3,0,3.4c0,0.3,0.1,0.7-0.2,0.9C20.3,63.2,20.3,62.9,20.3,62.6z"/>
			<path fill="#E49C6B" d="M17.5,62.2c0,0.3,0,0.5,0,0.8c-0.1,0-0.3,0-0.4,0c0-0.3,0-0.5,0-0.8C17.3,62.2,17.4,62.2,17.5,62.2z"/>
			<path fill="#F1AE7B" d="M20.3,60.2c0,0.2,0,0.4,0,0.6c-0.6,0.4-1.3,0.3-1.9,0.2c-0.5,0-0.8,0.1-1,0.5c-0.1,0-0.1,0-0.2,0
				c0-0.3,0-0.5,0-0.8c0.2-0.1,0.2-0.4,0.2-0.6C18.3,59.7,19.3,59.7,20.3,60.2z"/>
			<path fill="#F2861B" d="M60.1,23.6c-0.1,0.1-0.1,0.2-0.2,0.2c-0.3,0.1-0.5,0.3-0.6,0.6c-0.1,0.1-0.2,0.2-0.4,0.2
				c-0.4,0-0.8,0.1-1.2,0.1c-0.2-0.1-0.3-0.2-0.3-0.5c0.2-0.6,0.8-0.3,1.1-0.6c0.3,0,0.6,0,0.9-0.3C59.7,23.2,60,23.2,60.1,23.6z"/>
			<path fill="#EB8825" d="M58.6,23.7c-0.2,0.4-0.7,0.3-1,0.6c-0.3,0.1-0.4,0-0.6-0.2c-0.1-0.4,0.3-0.3,0.4-0.4
				c0.1,0,0.3-0.1,0.4-0.1C58,23.7,58.3,23.6,58.6,23.7z"/>
			<path fill="#EA811E" d="M56.8,27.6c-0.2,0-0.2-0.9-0.7-0.1c-0.4,0.8-1.4,0.6-2,0.9c-1.2,0.6-2.5,0.8-3.8,1.3
				c-1.4,0.5-2.9,1-4.4,1.5c-0.9,0.3-1.8,0.5-2.7,0.9c-0.4,0.2-0.9,0.3-1.3,0.3c-0.2-0.3-0.5-0.1-0.8-0.3c-0.1-0.1-0.1-0.1-0.1-0.2
				c0-0.2,0.1-0.3,0.2-0.4c2.5-1,5.3-1.3,7.7-2.7c0.3-0.2,0.5-0.5,0.9-0.4c0.7,0.4,1.1-0.2,1.6-0.4c1.3-0.5,2.6-1.2,4-1.3
				c0.5-0.1,0.8-0.5,1.3-0.5c0.3,0,0.7-0.2,1,0c0.1,0.7-0.6,0.8-0.8,1.2C57,27.4,57,27.5,56.8,27.6z"/>
			<path fill="#ED861D" d="M57.8,26c-0.8,0-1.4,0.6-2,0.7c-1,0.1-1.9,0.6-2.9,0.8c-0.5,0.1-0.9,0.5-1.4,0.4c-0.5,0.1-1,0.6-1.6,0.4
				c-0.3,0.1-0.5,0.3-0.8,0.4c0,0-0.1,0-0.1,0c-0.2-0.1-0.4-0.1-0.6-0.2c-0.1,0-0.1-0.1-0.2-0.2c0-0.1,0-0.2,0-0.2
				c0-0.1,0.1-0.1,0.1-0.2c0.2-0.2-0.1-0.2-0.1-0.4c0-0.1,0-0.3,0.1-0.4c0.2-0.1,0.5-0.2,0.7-0.2c0.5-0.2,1-0.4,1.5-0.3
				c0.3,0.1,0.7,0.5,0.8-0.3c0-0.2,0.2-0.3,0.4-0.4c0.2-0.1,0.4-0.1,0.6-0.1c0.8-0.2,1.7,0.2,2.3-0.5c0.5-1,1.2-0.5,1.9-0.3
				c0.4,0,0.8,0.7,1.1-0.1c0-0.1,0.1-0.1,0.2-0.2c0.4-0.2,0.8-0.2,1.2-0.2c0.2,0.2,0.1,0.4-0.1,0.5c-0.4,0.2-0.5,0.5-0.5,0.8
				c-0.1,0.1-0.1,0.1-0.2,0.2C58.1,26.1,57.9,26.2,57.8,26z"/>
			<path fill="#EB8825" d="M58.4,25.8c-0.3-0.5-0.5-0.9,0.4-1c0.2,0,0.2-0.2,0.2-0.4c0.1,0,0.3,0,0.4,0c0,0.1,0,0.1,0,0.2
				C59,25,58.7,25.4,58.4,25.8z"/>
			<path fill="#E97C27" d="M57.8,26c0.1,0,0.3,0,0.4,0c-0.3,0.5-0.5,1.1-1.2,1.2C57,26.7,57.7,26.6,57.8,26z"/>
			<path fill="#E36C1E" d="M34.7,40.6c-0.5,0-1,0.1-1.4-0.2c-0.2,0-0.4,0-0.6,0c-0.6,0-0.8-0.3-0.6-0.9c0.1-0.3,0.1-0.6,0.2-0.9
				c0.1-0.2,0.2-0.3,0.3-0.3c0.3,0,0.5,0,0.8,0c1.4-0.2,2.8-0.3,4-1c0.4-0.2,0.9-0.5,1.5-0.3c0.2,0.3,0.1,0.5-0.1,0.8
				c0.1,0.9-0.7,0.8-1.2,1.2c-0.4,0.4-0.9,0.2-1.4,0.3c-0.6,0.1-1.2,0-1.6,0.6C34.8,40.2,34.8,40.4,34.7,40.6z"/>
			<path fill="#E36E1E" d="M52.5,33.3c-0.2,0.1-0.4,0.3-0.6,0.4c-0.5,0-0.8,0.4-1.2,0.6c-0.8,0.4-1.7-0.1-2.4,0.5
				c-0.3,0.2-0.7,0.4-1,0.6c-0.6,0.5-1,0.3-1-0.6c0.1-0.2,0.3-0.4,0.5-0.6c1.1-0.4,2.1-1.2,3.4-1.2c0.3,0,0.5-0.2,0.7-0.4
				c0.1-0.1,0.3-0.4,0.5-0.3c0.8,0.4,1.3-0.3,1.9-0.6c0.2,0,0.3,0,0.4,0.1C53.2,32.3,52.8,32.8,52.5,33.3z"/>
			<path fill="#E26A1F" d="M46.3,34.7c0,0.3-0.1,0.6,0.3,0.7c0.4,0.1,0.4-0.3,0.6-0.4c1.1-0.6,2.1-1.2,3.4-0.7
				c-0.6,0.7-1.1,1.2-2.2,1.2c-0.9,0-1.8,0.2-2.6,0.9c-0.4,0.4-0.9,0.4-1.3-0.1c0,0,0-0.1,0-0.1c0.2-0.2,0.3-0.5,0.4-0.7
				c0-0.1,0.1-0.2,0.1-0.2c0.2-0.2,0.3-0.6,0.7-0.5C45.9,35.5,46.2,34.3,46.3,34.7z"/>
			<path fill="#C14A11" d="M40.8,37.7c-0.4,0.1-0.8,0.2-1.1,0.3c-0.3,0.1-0.4,0-0.5-0.3c-0.1-0.9,0.5-1.5,0.9-2.2
				c0.2-0.5,0.3-1.2,0.9-1.5c0.3,0,0.5,0.3,0.8,0.5c0.2,0.2,0.3,0.3,0.5,0.5c0.1,0.1,0.2,0.3,0.3,0.5c0.1,0.3,0,0.5-0.3,0.5
				c-0.1,0-0.3,0-0.4-0.1c-0.3-0.1-0.6-0.8-0.9-0.2c-0.3,0.5-1.1,1-0.2,1.7C40.9,37.5,40.9,37.6,40.8,37.7z"/>
			<path fill="#D8541E" d="M45.1,35.3c0,0.1,0,0.1,0,0.2c-0.2,0.2-0.3,0.6-0.6,0.8l0,0c-0.4,0.2-0.5,1-1.2,0.8
				c-0.1-0.2,0.1-0.5-0.2-0.6c-0.1-0.1-0.1-0.1-0.2-0.2c-0.1-0.2-0.4-0.4-0.2-0.7c0.7-0.3,1.2-0.8,1.8-1.3c0.3-0.2,0.5-0.6,1-0.4
				C45.7,34.5,45.3,34.8,45.1,35.3z"/>
			<path fill="#DF6A21" d="M34.7,40c-0.2,0-0.5-0.1-0.5-0.4c0-0.3,0.3-0.2,0.4-0.2c1-0.5,2-0.4,3-0.4c0,0.1,0,0.3,0,0.4
				C36.7,39.8,35.8,40.3,34.7,40z"/>
			<path fill="#E5641F" d="M34.7,40c1-0.1,1.9-0.6,3-0.6c0,0.1,0,0.3,0,0.4c-0.9,0.1-1.6,0.5-2.4,0.8c-0.2,0-0.4,0-0.6,0
				C34.6,40.4,34.6,40.2,34.7,40z"/>
			<path fill="#E26D25" d="M40.2,35.5c-0.3,0.7-0.7,1.4-1,2.2c-0.1,0.1-0.3,0.1-0.4,0.2c0-0.3,0-0.5,0-0.8c-0.2-0.4,0.1-0.6,0.3-0.9
				c0.2-0.2,0.4-0.5,0.6-0.7c0.1,0,0.1,0,0.2,0C40.1,35.4,40.1,35.4,40.2,35.5z"/>
			<path fill="#C34917" d="M40.8,37.7c0-0.1,0-0.1,0-0.2c0.5-1,0.8-1.1,1.9-0.5c0,0,0.1,0.1,0.1,0.1C42.2,37.4,41.5,37.5,40.8,37.7z
				"/>
			<path fill="#C34917" d="M43.2,36.3c0.7,0.1,0.6,0.4,0.2,0.8c-0.2,0-0.4,0-0.6,0l0,0C42.6,36.6,42.9,36.5,43.2,36.3z"/>
			<path fill="#DA6824" d="M38.8,39.5c-0.1,0.5-0.5,0.4-0.8,0.4C38.1,39.3,38.5,39.5,38.8,39.5z"/>
			<path fill="#E47324" d="M53.6,31.8c-0.1,0-0.3,0-0.4,0c-0.2-0.4,0.1-0.6,0.2-0.9c0.5-0.9,1.3-1.5,2.2-2c0.1,0,0.1,0,0.2,0
				c0,0.1,0,0.1,0,0.2c-0.1,0.2-0.1,0.4-0.2,0.6c-0.3,0.1-0.5,0.3-0.6,0.6C54.6,30.7,54.1,31.2,53.6,31.8z"/>
			<path fill="#FBD1A2" d="M45.5,54.5c0,0.4,0,0.8,0,1.2c-1.2,0.6-1.8,0.4-2.8-0.8l0,0c-0.1-0.7-0.3-1.3-0.2-2
				c0.3,0.4,0.3,0.9,0.7,1.2C44,54.8,44.7,55.1,45.5,54.5z"/>
			<path fill="#E9A776" d="M31.1,51.5c0,0.3,0,0.5-0.4,0.6c-1.2,0.2-2.3,0.5-3.5,0.6c-0.2-0.5-0.1-1.1-0.1-1.6
				c0-0.1,0.1-0.2,0.2-0.2c0.1-0.1,0.3,0,0.4,0c0.4,1.2,1.1,1.4,2.1,0.6c0.2-0.2,0.4-0.4,0.7-0.6c0.1-0.1,0.3-0.1,0.4,0
				C31.1,51,30.9,51.3,31.1,51.5z"/>
			<path fill="#F6BC89" d="M31.1,51.5c-0.2-0.1-0.2-0.4-0.2-0.6c-0.1-0.2-0.2-0.3-0.2-0.5c0-0.5-0.3-0.7-0.8-0.7
				c-0.9,0-1.8-0.1-2.8,0c0-0.2-0.1-0.4,0-0.6c0.8-0.8,2.7-0.9,3.8-0.3c0,0.2,0,0.4,0.2,0.6C31.1,50.1,31.1,50.8,31.1,51.5z"/>
			<path fill="#FBCD9B" d="M27.2,49.1c0,0.2,0,0.4,0,0.6c0.3,0.4,0.3,0.8,0,1.2c0,0.6,0,1.2,0,1.8c-0.3-0.3-0.1-0.7-0.2-1
				c0-0.4,0-0.8,0-1.2c0-0.5,0-1.1,0-1.6c0.1,0,0.1,0,0.2,0C27.2,49,27.3,49,27.2,49.1C27.2,49.1,27.2,49.1,27.2,49.1z"/>
			<path fill="#FAC895" d="M27.2,48.1c0.2-0.6,0.6-0.9,1.3-0.8c0.5,0.1,1,0,1.6,0c0.5,0,0.9,0.1,0.9,0.8c-0.4,0.4-1,0.2-1.5,0.3
				c-0.8,0.1-1.5,0-2.3,0.3C27.2,48.5,27.2,48.3,27.2,48.1z"/>
			<path fill="#F9C08D" d="M27.2,48.7c0.5-0.7,1.2-0.6,1.9-0.6c0.6,0,1.2,0,1.8,0c0,0.2,0,0.4,0,0.6c-1.3,0-2.5-0.2-3.7,0.4
				c0-0.1,0-0.1,0-0.2C27.2,48.9,27.2,48.8,27.2,48.7z"/>
			<path fill="#DF6621" d="M30.6,42.6c-0.3,0-0.5,0-0.8,0c0.5-0.8,1.1-0.9,2.4-0.4l0,0C31.6,42.5,31.1,42.6,30.6,42.6z"/>
			<path fill="#E0681F" d="M32.1,42.2c-0.8,0.1-1.7-0.3-2.4,0.4c-1,0-1.9,0.4-2.8,0.7c-0.5,0.2-0.9,0.1-1.3,0.1
				c0.1-0.4,0.2-0.7,0.8-0.7c0.7,0,1.4-0.6,2.2-0.5c0.2-0.3,0.5-0.2,0.8-0.2c0.3-0.1,0.7-0.3,1-0.4c0.3-0.1,0.3-0.2,0.2-0.4
				c0.5-0.4,0.9-0.8,1.4,0C31.4,41.7,32.1,41.9,32.1,42.2z"/>
			<path fill="#FEDAAE" d="M46.3,40.2c-0.2,0.7-0.8,0.3-1.2,0.4C45.4,39.9,45.9,40.4,46.3,40.2z"/>
			<path fill="#F8BD8A" d="M20.7,51.7c-0.9-0.4-1.9,0-2.8-0.4c0.7-0.7,1.5-0.4,2.2-0.3c0.3,0,0.4,0,0.5-0.1
				C20.7,51.2,20.7,51.4,20.7,51.7z"/>
			<path fill="#E26822" d="M31.9,41.2c-0.5-0.5-0.9,0-1.4,0c0-0.4-0.9,0.1-0.6-0.6c0.1-0.2,0.2-0.2,0.4-0.2c0.3-0.1,0.6-0.2,0.8-0.4
				c0.5-0.4,0.5-1.3,1.4-1.3c0,0.1,0,0.3,0,0.4c-0.5,0.9-0.1,1.3,0.8,1.4C32.7,40.5,32.5,41.2,31.9,41.2z"/>
			<path fill="#E16926" d="M27.6,41.2c0.5-0.3,1-0.4,1.6-0.4C28.8,41.7,28.2,41.6,27.6,41.2z"/>
			<path fill="#E96A22" d="M23,42.6c0.2-0.7,0.8-0.3,1.2-0.4C24,42.9,23.4,42.5,23,42.6z"/>
			<path fill="#DF6621" d="M29.4,42c-0.2,0.3-0.5,0.2-0.8,0.2c0-0.1-0.5-0.3,0-0.4C28.8,41.8,29.2,41.7,29.4,42z"/>
			<path fill="#E7771E" d="M55.6,28.8c-0.6,0.7-1.5,1.3-2,2.2c-0.6,0.6-1.3,1-2.2,1c-0.8,0-1.4,0.4-2.1,0.7
				c-1.2,0.5-2.4,0.7-3.7,0.7c-0.1,0-0.2,0.1-0.3,0.1c-0.9,0-1.6,0.5-2.2,1.1c-0.3,0.3-0.6,0.6-1.1,0.2c-0.1-0.1-0.1-0.2,0-0.3
				c0.4-0.4,1.4-0.7,0-1.3c1.4,0.3,2.6-0.5,3.8-0.9c1.3-0.4,2.6-0.8,3.9-1.3c1.2-0.4,2.3-1,3.6-1c0.6,0,1.1-0.7,1.7-1.1
				C55.2,28.8,55.3,28.5,55.6,28.8z"/>
			<path fill="#EB811E" d="M41.6,32.4c-0.6,0.7-1.5,0.8-2.3,1c-1.2,0.3-2.3,0.9-3.6,1c-0.1-0.1-0.2-0.3-0.2-0.4c0-0.3,0-0.5,0-0.8
				c0-0.6,0.2-0.9,0.9-1c0.3,0,0.7,0,0.9-0.2c0.5-0.1,1.2,0.6,1.6-0.2c0.2-0.2,0.4-0.3,0.6-0.3c0.1,0,0.2,0,0.3,0.1
				c0.3,0.2,0.6,0.2,0.9,0.2c0.2,0,0.5,0.1,0.6,0.2l0,0C41.3,32.1,41.5,32.2,41.6,32.4z"/>
			<path fill="#EA7E21" d="M35.7,33.9c0,0.1,0,0.3,0,0.4c-0.7,0.4-1.1,1.1-2,1.2c0-0.3-0.1-0.4-0.4-0.4c-0.1-0.1-0.1-0.3,0-0.4l0,0
				c0.3-0.3,1-0.2,1-0.8c0-0.1,0.1-0.3,0.2-0.4c0.1-0.1,0.3-0.1,0.4-0.1C35.1,33.6,35.4,33.7,35.7,33.9z"/>
			<path fill="#E17022" d="M40.2,35.5c-0.1,0-0.1,0-0.2,0c-0.1-0.5,0.3-0.8,0.4-1.2c0.2-0.2,0.4-0.5,0.8-0.4c0.1,0,0.1,0.1,0.1,0.1
				c0,0,0,0.1-0.1,0.1C40.4,34.3,40.6,35.1,40.2,35.5z"/>
			<path fill="#EC7B2E" d="M41.2,34.1c0-0.1,0-0.1,0-0.2c0.5-0.1,0.7,0.1,0.8,0.6c0,0.1,0,0.1,0,0.2c-0.1,0.1-0.1,0.1-0.2,0
				C41.5,34.6,41.3,34.4,41.2,34.1z"/>
			<path fill="#EB841D" d="M41.6,32.4c-0.3,0-0.4-0.1-0.4-0.4c0.3,0,0.7-0.1,0.8,0.4C41.9,32.4,41.7,32.4,41.6,32.4z"/>
			<path fill="#E6741F" d="M39.8,35.5c-0.2,0.2-0.1,0.8-0.6,0.8c-0.6,0.4-1.2,0.6-1.9,0.8c-0.7,0.2-1.5,0.3-2.1,0.7
				c-0.4,0.3-0.9,0.2-1.4,0c-0.2-0.1-0.3-0.4-0.6-0.4c-0.1,0-0.2-0.1-0.3-0.1c-0.2,0-0.3-0.1-0.4-0.2c0-0.3,0.2-0.4,0.5-0.4
				c1.9,0,3.6-1,5.5-1.2c0.4,0,0.3-0.5,0.5-0.6C39.3,35.1,39.3,35.7,39.8,35.5z"/>
			<path fill="#DD611F" d="M32.5,37.1c0.2,0,0.4,0,0.6,0c-0.4,1-2,2.1-2.9,2c-0.1-0.1-0.1-0.2,0-0.3c0.9-0.2,1.3-1.1,2-1.6
				c0-0.1,0.1-0.1,0.2-0.2C32.4,37.1,32.5,37.1,32.5,37.1z"/>
			<path fill="#E67320" d="M32.3,37.1c-0.1,0.1-0.1,0.1-0.2,0.2c-0.6-0.1-1,0.5-1.6,0.6C30.8,36.9,31.6,37.1,32.3,37.1z"/>
			<path fill="#EB8A21" d="M29.8,33.6c0.7,0.1,1.2-0.5,1.9-0.5c0.2-0.1,0.5-0.2,0.7-0.1c0.2,0.1,0.2,0.2,0.3,0.4
				c0,0.2,0,0.3-0.1,0.4c0,0-0.1,0.1-0.1,0.1c-0.9-0.7-1.9,0.2-2.8,0C29.7,33.8,29.8,33.7,29.8,33.6z"/>
			<path fill="#E78519" d="M34.5,33.9c0.1,1-0.6,0.7-1.2,0.8c0-0.6-0.8-0.2-0.8-0.8l0,0C33.2,33.5,33.8,33.5,34.5,33.9z"/>
			<path fill="#F17C29" d="M33.3,34.7c0,0.1,0,0.3,0,0.4c-0.3,0-0.5,0-0.8,0C32.6,34.6,33,34.8,33.3,34.7z"/>
			<path fill="#C24B14" d="M30.1,38.9c0,0.1,0,0.1,0,0.2c0.1,0.2,0.7,0,0.3,0.5c-0.4,0.1-0.8,0.2-0.7-0.5c0.1-0.1,0.1-0.1,0.2-0.2
				C30,38.9,30.1,38.9,30.1,38.9z"/>
			<path fill="#BF481B" d="M29.8,39.1c0.1,0.5,0.5,0.4,0.8,0.4c0,0,0.1,0.1,0,0.1c0,0,0,0.1,0,0.1c-0.5,1-1.6,0.3-2.2,0.9
				c-0.4-0.6,0.1-1,0.2-1.5C29,38.1,29.4,39.1,29.8,39.1z"/>
			<path fill="#D8561B" d="M30.5,39.7c0-0.1,0-0.1,0-0.2c-0.1-0.1-0.3-0.3-0.4-0.4c1.2-0.3,2-1.2,3-2c0.1,0.1,0.1,0.1,0.2,0.2
				c0.1,0.6,0,1-0.6,1.2c-0.1,0.1-0.1,0.1-0.2,0.2c-0.6,0.4-0.7,1.1-1.2,1.6c-0.1-0.1-0.3-0.2-0.4-0.4
				C30.8,39.8,30.7,39.7,30.5,39.7z"/>
			<path fill="#CA4D14" d="M30.9,39.9c0.3,0,0.4,0.1,0.4,0.4c-0.3,0.1-0.7,0.1-1,0.2C30.5,40.2,30.7,40,30.9,39.9z"/>
			<path fill="#F4B480" d="M20.3,60.2c-1,0-2,0-3,0c0-0.2,0-0.4,0-0.6c0.8-0.4,1.7-0.7,2.6-0.2C20.1,59.6,20.4,59.8,20.3,60.2z"/>
			<path fill="#F5BB87" d="M19.9,59.4c-0.9-0.1-1.7,0.2-2.6,0.2c0.1-0.6,0.4-0.9,1-0.8c0.7,0.2,1.5-0.5,2,0.4
				C20.1,59.2,20,59.2,19.9,59.4z"/>
			<path fill="#F6BC88" d="M42.6,56.8c-1.1-0.4-2.2-0.1-3.3,0c-0.3,0-0.2,0.4-0.5,0.6c0-0.4,0-0.8,0-1.2c0.1,0,0.1,0,0.2,0
				c1.1-0.7,2.3-0.7,3.6-0.2C42.6,56.3,42.6,56.6,42.6,56.8z"/>
			<path fill="#F1A471" d="M20.3,52.9c-0.1,0.3-0.3,0.5-0.4,0.8c-0.4,0-0.8,0-1.2,0c-0.5,0-0.8-0.2-0.8-0.8
				C18.7,52.9,19.5,52.9,20.3,52.9z"/>
			<path fill="#FACE9E" d="M42.8,54.9c0.8,0.5,1.7,1.1,2.8,0.8c0,0.8,0,1.6,0,2.4c-0.7,0.3-1.5,0-2.2,0.3c-0.3,0.1-0.4-0.1-0.4-0.4
				c0-0.4,0.2-0.9-0.2-1.2C42.8,56,42.8,55.4,42.8,54.9z"/>
			<path fill="#F6C18E" d="M42.6,56c-1.2,0-2.4-0.1-3.6,0.2c0.1-0.8,0.6-1,1.4-0.9c0.5,0.1,1,0.1,1.5,0.1
				C42.4,55.3,42.5,55.6,42.6,56z"/>
			<path fill="#F7BB87" d="M42.6,47c0,0.2,0,0.4,0,0.6c-1.2,0-2.4,0-3.6,0c0-0.3,0-0.5,0-0.8C40.2,46.5,41.4,46.1,42.6,47L42.6,47z"
				/>
			<path fill="#F8C18E" d="M42.6,47c-1.2-0.5-2.4,0-3.6-0.2c0-0.6,0.2-0.8,0.8-0.7c0.7,0.1,1.4,0.2,2.1-0.1c0.6-0.3,0.3,0.5,0.7,0.5
				C42.6,46.7,42.6,46.8,42.6,47z"/>
			<path fill="#F2A875" d="M42.4,48.9c0,0.3,0,0.5,0,0.8c-0.9,0-1.7-0.1-2.5,0.4c-0.3,0.2-0.6,0-0.8,0c0-0.4,0-0.8,0-1.2
				C40.1,48.4,41.3,48.4,42.4,48.9z"/>
			<path fill="#F3B07D" d="M42.4,48.9c-1.1,0-2.2,0-3.4,0c-0.1-0.6,0.1-0.8,0.8-0.8c0.6,0,1.3,0,1.9,0c0.3,0,0.6,0,0.7,0.4
				C42.4,48.7,42.4,48.8,42.4,48.9z"/>
			<path fill="#E45D1E" d="M44.4,39.1c-0.4,0-0.8,0-1.2,0c-0.1,0-0.4-0.2-0.3-0.2C43.4,38.7,44,38.3,44.4,39.1z"/>
			<path fill="#F0A874" d="M42.6,60.8c-0.1,0-0.1,0-0.2,0c-0.2-0.2-0.2-0.4-0.3-0.6c-0.6-0.6-1.4-0.3-2.1-0.2c-0.4,0.1-0.7,0-1-0.3
				c0.1-0.7,0.4-0.9,1.1-0.7c0.8,0.2,1.7-0.3,2.5,0.1C42.6,59.6,42.6,60.2,42.6,60.8z"/>
			<path fill="#F0A46F" d="M39,59.6c0.7,0.3,1.5-0.1,2.2,0c0.4,0.1,0.9-0.1,1.2,0.4c-0.2,0.4-0.5,0.6-0.9,0.6
				c-0.8-0.1-1.6,0.2-2.5,0.2C39,60.4,39,60,39,59.6z"/>
			<path fill="#EFA06C" d="M39,60.8c0.6-0.3,1.1-0.6,1.8-0.4c0.5,0.1,1.1,0.1,1.6-0.4c0,0.3,0,0.5,0,0.8c0,0.1,0,0.1,0,0.2
				c-0.2,0.2-0.3,0.4-0.6,0.4c-0.9-0.1-1.9,0.2-2.8-0.2l0,0C39,61,39,60.9,39,60.8z"/>
			<path fill="#EE9A64" d="M39,61.2c1.1-0.3,2.2,0.1,3.4-0.2c-0.1,0.7-0.5,1-1.2,1c-0.7,0-1.4,0-2.2,0C39,61.7,39,61.4,39,61.2z"/>
			<path fill="#EFA772" d="M17.3,61.6c0-0.6,0.3-0.8,0.8-0.8c0.7,0,1.4,0,2.1,0c0,0.2,0,0.4,0,0.6c-0.6,0.3-1.3,0.3-1.9,0.1
				C17.9,61.4,17.7,61.5,17.3,61.6z"/>
			<path fill="#EA8822" d="M36.5,32.4c-0.6-0.1-0.9,0.2-0.8,0.8c-0.2,0.2-0.4,0.2-0.7,0.1c-0.2-0.1-0.4-0.3-0.6-0.3
				c-0.2,0-0.4-0.1-0.5-0.3c0-0.5,0.4-0.6,0.8-0.6c0.4,0,0.7-0.3,1-0.5l0-0.1c0.1-0.1,0.2-0.1,0.4-0.1c0.4,0.1,0.7,0,1-0.3
				c0.2-0.1,0.4-0.3,0.6-0.4c0.2-0.2,0.5-0.4,0.8-0.5c0.1,0,0.2-0.1,0.3-0.1c0.2,0,0.5,0,0.7,0c0.1,0,0.2,0.1,0.2,0.1
				c0.3,0.6-0.4,0.6-0.5,0.9c0,0.2-0.3,0.3-0.1,0.5c-0.5,1.1-1.1,0.5-1.8,0.2C37.1,32.2,36.7,32.1,36.5,32.4z"/>
			<path fill="#E58D2E" d="M37.1,31.2c-0.2,0.5-0.5,0.8-1,0.4c-0.1-0.4,0.3-0.2,0.4-0.4C36.7,31.2,36.9,31.2,37.1,31.2z"/>
			<path fill="#E58D2E" d="M35.7,31.6c-0.2,0.4-0.4,0.7-0.8,0.7c-0.1-0.1-0.1-0.2-0.1-0.4c0.1-0.2,0.3-0.3,0.5-0.4
				C35.4,31.6,35.6,31.6,35.7,31.6z"/>
			<path fill="#D7943A" d="M34.3,32c0.2,0,0.4,0,0.6,0c0,0.1,0,0.3,0,0.4c-0.4,0-0.8-0.1-1,0.4c-0.2,0.2-0.5,0.2-0.7,0.4
				c-0.2,0.1-0.4,0.2-0.7,0c-0.3,0-0.5,0-0.8,0c0.1-0.1,0.3-0.3,0.4-0.4c0.7-0.1,1.4-0.3,2-0.8C34.2,32,34.2,32,34.3,32z"/>
			<path fill="#EA8C21" d="M56.6,25.2c-0.2,0-0.5,0-0.6-0.1c-0.6-0.6-0.9-0.2-1.1,0.3c-0.5,0.1-1,0.2-1.4-0.2c0.9-0.6,2-0.7,3-1.2
				c0.2-0.1,0.4-0.2,0.6,0c0.2,0.1,0.4,0.1,0.6,0.2c0.1,0.1,0.1,0.3,0.2,0.4c0,0.1,0,0.1,0,0.2C57.5,25.3,56.9,24.9,56.6,25.2z"/>
			<path fill="#EC8A22" d="M53.4,25.2c0.5,0,1-0.1,1.4,0.2c-0.7,1-1.7,0.5-2.6,0.6c-0.1-0.1-0.1-0.3,0-0.4l0,0
				c0.2-0.2,0.6-0.2,0.8-0.4C53.2,25.3,53.3,25.2,53.4,25.2z"/>
			<path fill="#DD9F56" d="M52.2,25.6c0,0.1,0,0.3,0,0.4c-0.2,0-0.4,0-0.6,0c-0.1,0.1-0.2,0.1-0.2,0c0-0.1,0-0.2,0.1-0.3
				C51.7,25.7,52,25.6,52.2,25.6z"/>
			<path fill="#DBAF72" d="M53.1,25.3c-0.2,0.2-0.5,0.4-0.8,0.4C52.4,25.2,52.7,25.3,53.1,25.3z"/>
			<path fill="#EC8A22" d="M50.3,26.4c0.1-0.1,0.3-0.2,0.4-0.4c0.2,0,0.5,0,0.7-0.1c0.1,0,0.2,0,0.2,0c-0.1,0.2-0.2,0.3-0.2,0.5
				c0,0.9-0.3,0.8-0.8,0.3C50.6,26.6,50.2,26.8,50.3,26.4z"/>
			<path fill="#EB841D" d="M38.8,31.2c0-0.6,0.8-0.2,0.8-0.8c0.3-0.3,0.6-0.3,1-0.2c0,0,0.1,0.1,0.1,0.1c0.1,0.1,0.1,0.1,0.2,0.2
				c0-0.1-0.2-0.1-0.2-0.2c0-0.2,0-0.3,0.1-0.4c0.3-0.2,0.7-0.2,1-0.1c0.8,0.4,1.1,0,1.3-0.7c0.2-0.1,0.4-0.1,0.7-0.1
				c0.4,0,0.8,0.7,1.2,0.1c0.5-0.1,0.5-0.9,1-0.9c0.5-0.1,0.9-0.1,1.4-0.1c0.3,0,0.5,0.1,0.8,0.3l0,0c0.2,0.3,0.6,0.1,0.8,0.4l0,0
				c-1,1-2.2,1.3-3.4,1.6c-0.9,0.2-1.9,0.3-2.6,0.9c-0.6,0.4-1.2,0.2-1.8,0.3c-0.2,0.2-0.5,0.2-0.8,0.2c-0.3,0-0.6,0-0.8-0.2l0,0
				C39.4,31.3,39,31.4,38.8,31.2z"/>
			<path fill="#EA8326" d="M49.9,28.4c0.5-0.3,1-0.5,1.6-0.4C50.8,28.8,50.3,28.9,49.9,28.4z"/>
			<path fill="#E18727" d="M40.4,31.6c0.3,0,0.5,0,0.8,0c0,0.1,0,0.3,0,0.4c-0.3,0-0.5,0-0.8,0C40.3,31.8,40.3,31.7,40.4,31.6z"/>
			<path fill="#ED8920" d="M47.5,28.4c-0.5,0-1.1,0-1.6,0c0,0-0.1-0.1-0.1-0.1c-0.1-0.1-0.1-0.2,0-0.4c0.1-0.3,0.4-0.2,0.5-0.3l0,0
				c0.6,0.1,1.1-0.6,1.7-0.4c0.1-0.1,0.2-0.1,0.2,0.1c0,0.1,0,0.2,0,0.4c0.1,0.1,0.1,0.3,0,0.4l0,0C48.1,28.3,47.7,28.1,47.5,28.4z"
				/>
			<path fill="#EB8825" d="M56.6,25.2c0.2-0.7,0.8-0.3,1.2-0.4C57.8,26.3,57.1,25.4,56.6,25.2z"/>
			<path fill="#EE8C27" d="M50.3,26.4c0.1,0.1,0.3,0.3,0.4,0.4c-0.6-0.1-1.1,0.1-1.6,0.4c-0.1-0.1-0.1-0.3,0-0.4
				c0.1-0.1,0.3-0.2,0.4-0.3C49.8,26.5,50,26.4,50.3,26.4z"/>
			<path fill="#D89E48" d="M49.1,26.8c0,0.1,0,0.3,0,0.4c-0.3,0-0.5,0-0.8,0c-0.1,0-0.2,0-0.2,0c0.1-0.1,0.2-0.2,0.3-0.4
				C48.6,26.8,48.8,26.8,49.1,26.8z"/>
			<path fill="#E78B27" d="M48.3,28c0-0.1,0-0.3,0-0.4c0.2,0,0.5-0.1,0.7,0.2C48.8,28.1,48.5,28,48.3,28z"/>
			<path fill="#F5811A" d="M49.1,28.8c-0.3,0-0.7,0.1-0.8-0.4C48.6,28.4,49,28.3,49.1,28.8z"/>
			<path fill="#E48C21" d="M47.5,28.4c0.1-0.5,0.5-0.4,0.8-0.4c0,0.1,0,0.3,0,0.4C48,28.4,47.8,28.4,47.5,28.4z"/>
			<path fill="#E4701E" d="M33.7,37.7c1.2,0.4,2.1-0.6,3.2-0.8c0.7-0.1,1.6-0.1,2.1-0.8c0.1-0.1,0.2,0.1,0.2,0.2
				c-0.1,0.3-0.3,0.5-0.4,0.8c-1.7,0.9-3.5,1.6-5.5,1.6C33.1,38.2,33.4,38,33.7,37.7z"/>
			<path fill="#E76D24" d="M33.7,37.7c0.1,0.4-0.4,0.6-0.4,1c-0.2,0-0.5,0-0.6-0.2c0.2-0.4,0.4-0.8,0.6-1.2
				C33.8,37.1,33.7,37.4,33.7,37.7z"/>
			<path fill="#E4711E" d="M45.3,33.3c0.1-0.1,0.2-0.2,0.3-0.2c1.8,0.2,3.2-0.7,4.8-1.2c1.1-0.3,2.1-0.5,3.1-1
				c-0.1,0.3-0.3,0.5-0.4,0.8c-0.2,0.6-0.9,0.6-1.2,1.1c-1-0.8-1.4,0.8-2.4,0.6c-1-0.2-1.7,0.8-2.6,0.9c-0.1,0-0.2,0-0.3,0
				c-0.2-0.1-0.2-0.3-0.3-0.5c-0.1-0.2-0.4-0.3-0.6-0.3C45.6,33.5,45.5,33.5,45.3,33.3z"/>
			<path fill="#E66D25" d="M46.5,33.7c0.2,0.1,0.2,0.4,0.2,0.6c0,0.3-0.1,0.4-0.4,0.4c-0.2,0.1-0.2,0.5-0.5,0.4
				c-0.1,0-0.1-0.3-0.1-0.4C45.7,34.2,45.9,33.8,46.5,33.7z"/>
			<path fill="#D65818" d="M46.5,33.7c-0.4,0.2-0.5,0.7-0.8,1c-0.2,0.2-0.4,0.4-0.6,0.6c-0.2-0.5,0.3-0.9,0.4-1.4
				c-0.3-0.5,0.2-0.4,0.4-0.6C46.2,33.3,46.5,33.3,46.5,33.7z"/>
			<path fill="#DF6620" d="M44.6,36.3c0.2-0.3,0.2-0.6,0.6-0.8C45.1,35.9,45,36.2,44.6,36.3z"/>
			<path fill="#C0481C" d="M43.2,36.3c-0.1,0.3-0.3,0.5-0.4,0.8c-0.7-0.2-1.4-0.3-2,0.4c-0.7,0-1-0.1-0.5-0.9
				c0.8-1.5,0.8-1.5,2.1-0.7C42.6,36.1,43,36.1,43.2,36.3L43.2,36.3z"/>
			<path fill="#DD5D21" d="M45.9,33.3c-0.1,0.2-0.4,0.3-0.4,0.6c-0.6,0.5-1.1,0.9-1.7,1.4c-0.3,0.2-0.6,0.4-1.1,0.4
				c-0.1,0-0.3-0.1-0.4-0.2c-0.1-0.1-0.1-0.3-0.2-0.4c0.5-0.2,1-0.4,1.4-0.9c0.4-0.5,1.1-0.8,1.8-0.9l0,0
				C45.5,33.3,45.7,33.3,45.9,33.3z"/>
			<path fill="#E4711E" d="M45.3,33.3c-0.8,0.3-1.5,0.7-1.9,1.5c-0.3,0.4-0.8,0.2-1.2,0.3c-0.2-0.1-0.3-0.2-0.4-0.4
				c0.1,0,0.1,0,0.2,0c0.3,0.2,0.5,0.1,0.8-0.2C43.5,33.8,44.3,33.2,45.3,33.3z"/>
			<path fill="#C34917" d="M42.4,35.5c0.2,0,0.3,0,0.4,0.2c0.1,0.2,0.4,0.3,0.4,0.6c-0.3,0-0.7,0.1-0.8-0.4
				C42.6,35.8,42.4,35.6,42.4,35.5z"/>
			<path fill="#F4B683" d="M27.2,50.9c0-0.4,0-0.8,0-1.2c0.2-0.3,0.5-0.4,0.9-0.4c0.7,0,1.3,0.2,2,0.1c0.6-0.1,0.9,0.4,0.8,0.9
				c-0.6,0.3-1.1,0-1.7,0.1c-0.7,0-1.3,0.1-1.8,0.5C27.3,50.9,27.3,50.9,27.2,50.9z"/>
			<path fill="#F3A36F" d="M30.5,50.9c-0.4,0.8-1.1,1.3-2,1.2c-0.9-0.1-1.1-0.4-0.7-1.2c0.3-0.3,0.6-0.3,1-0.2
				c0.4,0.2,0.7,0.3,1.1,0C30.1,50.7,30.4,50.7,30.5,50.9z"/>
			<path fill="#F3AE7A" d="M29,50.9c-0.4,0-0.8,0-1.2,0c-0.1,0-0.3,0-0.4,0c0.2-0.6,0.6-0.8,1.2-0.8c0.8,0,1.6-0.1,2.4,0.2
				c0,0.2,0,0.4,0,0.6c-0.1,0-0.3,0-0.4,0c-0.3,0-0.5,0-0.8,0C29.5,51.1,29.2,51.1,29,50.9z"/>
			<path fill="#EB8418" d="M34.9,33.1c0.3,0,0.5,0,0.8,0c0,0.3,0,0.5,0,0.8c-0.3,0-0.7,0.1-0.8-0.4C34.8,33.4,34.8,33.3,34.9,33.1z"
				/>
			<path fill="#E58A24" d="M38.8,31.2c0.3,0,0.7-0.1,0.8,0.4c-0.2,0-0.4,0-0.6,0.2C38.8,31.6,38.8,31.4,38.8,31.2z"/>
			<path fill="#E58815" d="M40.4,31.6c0,0.1,0,0.3,0,0.4c-0.3,0-0.7,0.1-0.8-0.4C39.9,31.6,40.1,31.6,40.4,31.6z"/>
			<path fill="#F28717" d="M36.5,32.4c0.1-0.5,0.5-0.4,0.8-0.4C37.2,32.5,36.8,32.3,36.5,32.4z"/>
			<path fill="#F2841C" d="M34.9,33.1c0,0.1,0,0.3,0,0.4c-0.1,0-0.3,0-0.4,0c-0.7,0.3-1.3,0.3-2,0c0-0.1,0-0.3,0-0.4
				c0.2-0.1,0.4-0.1,0.6-0.2c0.5-0.1,1,0.2,1.4-0.2C34.7,32.8,34.9,32.9,34.9,33.1z"/>
			<path fill="#EA8328" d="M32.5,33.5c0.7,0,1.3,0,2,0c0,0.1,0,0.3,0,0.4c-0.7,0-1.3,0-2,0C32.5,33.8,32.5,33.7,32.5,33.5z"/>
			<path fill="#ED8917" d="M34.5,32.7c-0.4,0.7-0.9,0.3-1.4,0.2c0.2-0.3,0.5-0.2,0.8-0.2C34.1,32.7,34.3,32.7,34.5,32.7z"/>
			<path fill="#E68D31" d="M40.8,30c0,0.1,0,0.3,0,0.4l0,0c-0.4,0-0.8,0-1.2,0c-0.1,0-0.2,0-0.2-0.1c0-0.2,0.1-0.3,0.3-0.4l0,0
				c0.2-0.2,0.5-0.2,0.8-0.2C40.6,29.8,40.7,29.9,40.8,30z"/>
			<path fill="#E18F37" d="M40.8,30c-0.1,0-0.3,0-0.4,0c-0.1-0.4,0.3-0.2,0.4-0.4l0,0c0.3-0.3,0.8-0.1,1.2-0.4
				c0.7-0.2,1.4-0.4,2-0.8c0.2-0.2,0.5-0.2,0.7-0.1c0.1,0.1,0.2,0.2,0.2,0.4c-0.1,0.2-0.3,0.2-0.4,0.3c-0.2,0-0.3,0.1-0.4,0.2
				c-0.3,0-0.5,0-0.8,0c-0.3,0.3-0.8,0.6-1.2,0.8C41.6,30,41.2,30,40.8,30z"/>
			<path fill="#CCD6D0" d="M44.4,28"/>
			<path fill="#ED8920" d="M42,30c0.2-0.6,0.7-0.6,1.2-0.8c-0.2,0.3,0.7,0.6,0.1,0.7C42.9,30,42.4,30.9,42,30z"/>
			<path fill="#ED8920" d="M44.8,28.8c0-0.1,0-0.3,0-0.4l0,0c0.4-0.1,0.8-0.3,1.2,0l0,0c-0.3,0.3-0.2,0.9-0.8,0.8c0,0-0.1,0-0.1,0
				C44.9,29.1,44.6,29.1,44.8,28.8z"/>
			<path fill="#ED8920" d="M44,29.2c0-0.2,0-0.3,0.2-0.4c0.3,0.2,0.7,0.2,1,0.4C44.7,30.3,44.4,29.2,44,29.2z"/>
			<path fill="#ED8B21" d="M40.8,30.4c0.2,0,0.4,0,0.9,0C41.2,30.6,40.9,31,40.8,30.4L40.8,30.4z"/>
			<path fill="#E0983D" d="M45.9,28.4c-0.4,0-0.8,0-1.2,0c0.1-0.1,0.3-0.3,0.4-0.4c0.1,0,0.2,0,0.4-0.1c0.1,0,0.3,0,0.4,0
				C45.9,28.1,45.9,28.3,45.9,28.4z"/>
			<path fill="#E9A776" d="M29,50.9c0.3,0,0.5,0,0.8,0c0,0.2-0.1,0.4-0.3,0.4C29.1,51.3,29,51.2,29,50.9z"/>
			<path fill="#EB841D" d="M45.1,29.2c-0.4,0-0.7-0.1-1-0.4c0.2,0,0.4,0,0.6,0C44.9,28.9,45,29.1,45.1,29.2z"/>
		</g>
		<linearGradient id="SVGID_2_" gradientUnits="userSpaceOnUse" x1="64.2343" y1="27.2564" x2="53.2055" y2="68.2757">
			<stop  offset="0" style="stop-color:#FDD8AC"/>
			<stop  offset="0.1603" style="stop-color:#FBD1A3"/>
			<stop  offset="0.4267" style="stop-color:#F7BF89"/>
			<stop  offset="0.7644" style="stop-color:#EFA260"/>
			<stop  offset="0.9944" style="stop-color:#E98B40"/>
		</linearGradient>
		<polygon fill="url(#SVGID_2_)" points="68,57.4 49,69.5 49.1,39.3 61.3,25 67.6,31.5 		"/>
	</g>
	<linearGradient id="SVGID_3_" gradientUnits="userSpaceOnUse" x1="13.5305" y1="46.5987" x2="9.0632" y2="69.9614">
		<stop  offset="0.2066" style="stop-color:#FCDAAD"/>
		<stop  offset="0.3486" style="stop-color:#F9D2A6"/>
		<stop  offset="0.6823" style="stop-color:#F3C59B"/>
		<stop  offset="0.9944" style="stop-color:#F1C197"/>
	</linearGradient>
	<polygon fill="url(#SVGID_3_)" points="10.9,70.6 10.9,47.5 15.7,46.3 11.4,70.6 	"/>
	<linearGradient id="SVGID_4_" gradientUnits="userSpaceOnUse" x1="13.3995" y1="39.6832" x2="15.2481" y2="44.0076">
		<stop  offset="0.3804" style="stop-color:#E98926"/>
		<stop  offset="0.6447" style="stop-color:#E78024"/>
		<stop  offset="0.9944" style="stop-color:#E36C21"/>
	</linearGradient>
	<polygon fill="url(#SVGID_4_)" points="20.4,37.1 12.1,40.1 8.9,47.9 16,46.2 	"/>
</g>
</svg>
