<?xml version="1.0" encoding="utf-8"?>
<!-- Generator: Adobe Illustrator 19.2.1, SVG Export Plug-In . SVG Version: 6.00 Build 0)  -->
<svg version="1.1" id="Layer_1" xmlns="http://www.w3.org/2000/svg" xmlns:xlink="http://www.w3.org/1999/xlink" x="0px" y="0px"
	 viewBox="0 0 75 75" enable-background="new 0 0 75 75" xml:space="preserve">
<g>
	<rect fill="#CCCCCC" width="75" height="75"/>
	<g>
		<rect x="31.9" y="33" width="4.5" height="4.5"/>
		<rect x="38.6" y="33" width="4.5" height="4.5"/>
		<rect x="45.4" y="33" width="4.5" height="4.5"/>
		<rect x="25.1" y="39.8" width="4.5" height="4.5"/>
		<rect x="31.9" y="39.8" width="4.5" height="4.5"/>
		<rect x="38.6" y="39.8" width="4.5" height="4.5"/>
		<rect x="45.4" y="39.8" width="4.5" height="4.5"/>
		<rect x="25.1" y="46.5" width="4.5" height="4.5"/>
		<rect x="31.9" y="46.5" width="4.5" height="4.5"/>
		<rect x="38.6" y="46.5" width="4.5" height="4.5"/>
		<path d="M49.9,24v-3.4c0-0.6-0.5-1.1-1.1-1.1h-4.5c-0.6,0-1.1,0.5-1.1,1.1V24H31.9v-3.4c0-0.6-0.5-1.1-1.1-1.1h-4.5
			c-0.6,0-1.1,0.5-1.1,1.1V24h-4.5v31.5h33.8V24H49.9z M45.4,21.8h2.3v4.5h-2.3V21.8z M27.4,21.8h2.3v4.5h-2.3V21.8z M52.1,53.3
			H22.9V30.8h29.3V53.3z"/>
	</g>
</g>
</svg>
