<?xml version="1.0" encoding="utf-8"?>
<!-- Generator: Adobe Illustrator 19.2.1, SVG Export Plug-In . SVG Version: 6.00 Build 0)  -->
<svg version="1.1" id="Layer_1" xmlns="http://www.w3.org/2000/svg" xmlns:xlink="http://www.w3.org/1999/xlink" x="0px" y="0px"
	 viewBox="0 0 75 75" enable-background="new 0 0 75 75" xml:space="preserve">
<g>
	<g>
		<rect fill="#CCCCCC" width="75" height="75"/>
	</g>
	<g>
		<path fill="#231F20" d="M19.5,24v26.8c0,2.4,2.2,4.6,4.5,4.7v-36C21.7,19.5,19.5,21.3,19.5,24z"/>
		<path fill="#231F20" d="M53.3,28.5c-2.3,0-2.3,0-2.3,0v6.8h4.5V31C55.5,31,55.5,28.5,53.3,28.5z"/>
		<path fill="#231F20" d="M51,53.3c0,0,0,0,2.3,0s2.3-2.2,2.3-2.2v-4.6H51V53.3z"/>
		<rect x="51" y="37.5" fill="#231F20" width="4.5" height="6.8"/>
		<path fill="#231F20" d="M44.2,19.5c-2.3,0-17.9,0-17.9,0v36c0,0,15.7,0,18,0s4.5-1.8,4.5-4.5V24.2C48.8,21.8,46.5,19.5,44.2,19.5z
			 M44.2,42H30.8c0,0-0.1-1.4,0.3-2c0.4-0.6,1.8-1.1,3.1-1.6c1.3-0.6,1.7-0.8,1.7-0.8l0-1.3c0,0-0.5-0.4-0.7-1.6
			c-0.3,0.1-0.6-0.5-0.7-0.8c0-0.3,0-1.1,0.4-1c-0.1-0.6-0.1-1.1-0.1-1.4c0.1-1,1.1-2.1,2.7-2.1c1.6,0,2.6,1.1,2.7,2.1
			c0,0.3,0,0.8-0.1,1.4c0.4-0.1,0.4,0.7,0.4,1c0,0.3-0.3,0.9-0.7,0.8c-0.2,1.2-0.7,1.6-0.7,1.6l0,1.3c0,0,0.3,0.2,1.7,0.8
			c1.3,0.6,2.7,1,3.1,1.6C44.3,40.6,44.2,42,44.2,42z"/>
		<polygon fill="#231F20" points="24,55.5 24.1,55.5 24,55.5 		"/>
	</g>
</g>
</svg>
