<?xml version="1.0" encoding="utf-8"?>
<!-- Generator: Adobe Illustrator 19.2.1, SVG Export Plug-In . SVG Version: 6.00 Build 0)  -->
<svg version="1.1" id="Layer_1" xmlns="http://www.w3.org/2000/svg" xmlns:xlink="http://www.w3.org/1999/xlink" x="0px" y="0px"
	 viewBox="0 0 75 75.4" enable-background="new 0 0 75 75.4" xml:space="preserve">
<g>
	<rect x="0" fill="#FFFFFF" width="75" height="75"/>
	<g>
		<path fill="#FEFEFE" d="M26.5,49.5c0-13.1,0-26.2,0-39.2c0-0.2,0-0.3,0.3-0.3c3.4,0,6.7,0,10.1,0c0.1,0.3,0.1,0.6,0,0.9
			c0,0.2,0,0.3,0,0.4c0.1,0.3,0.3,0.7,0.2,1.1c-0.3,0.7-0.1,1.4-0.2,2c0,0.2-0.1,0.4-0.3,0.6c-0.2,0.2-0.3,0.2-0.4-0.1
			c0,0,0,0.1-0.1,0.1c0,0.1,0,0.3-0.2,0.2c-0.2,0-0.1-0.2-0.1-0.3c0,0.5,0,0.9,0,1.4c0,0.1,0,0.2,0.1,0.3c0.1,0.2,0.1,0.4,0,0.6
			c-0.1,0.4-0.1,0.7,0,1.1c0,0.3,0,0.6,0.1,0.8c0.1,0.1,0.1,0.2,0,0.3C35.9,19.8,36,20,36,20.3c0,0.4-0.1,0.8-0.1,1.2
			c-0.1,0.3-0.2,0.7-0.3,1c-0.1,0.2-0.1,0.4-0.2,0.6c-0.1,0.1,0,0.2,0.1,0.3c0.1,0.2,0.1,0.2-0.1,0.3c-0.1,0,0,0,0,0
			c0.1,0.1,0.1,0.7,0,0.8c-0.1,0.1-0.1,0.2-0.1,0.3c0.1,0.2,0.1,0.5,0,0.7c0,0.1,0,0.1,0,0.2c0,0.1,0,0.2,0,0.4
			c0,0.2-0.1,0.5-0.1,0.7c0,0.1,0,0.2-0.1,0.3c0,0.2-0.1,0.4-0.1,0.6c0,0.1,0,0.1,0,0.2c0,0.1,0,0.2-0.1,0.4c0,0.1,0,0.2,0,0.3
			c0,0.1,0,0.1,0,0.2c0,0.2-0.1,0.4-0.1,0.6c0,0,0,0.1,0,0.1c0,0.2-0.1,0.4-0.1,0.6c0,0.3-0.1,0.6-0.1,1c0,0.2-0.1,0.5-0.1,0.7
			c0,0,0,0.1,0,0.1c0,0.2-0.1,0.4-0.1,0.6c0,0.1,0,0.2,0,0.2c-0.1,0.5-0.2,1-0.2,1.5c0,0.3-0.1,0.5-0.1,0.8c0,0,0,0.1,0,0.1
			c0,0.2-0.1,0.4-0.1,0.7c-0.1,0.6-0.2,1.3-0.3,1.9c0,0.1,0,0.2-0.1,0.3c-0.1,0.1-0.1,0.3-0.1,0.4c0,0.1,0,0.3,0,0.4
			c0,0,0,0.1,0,0.1c-0.2,0.2-0.1,0.4-0.1,0.6c0,0-0.1,0-0.1,0.1c0,0.3-0.3,0.7-0.1,1c0.2,0.3,0,0.6-0.1,0.9c0,0.1-0.1,0.1-0.2,0.1
			c-0.2,0-0.1-0.2-0.2-0.3c-0.1,0.7,0,1.4-0.4,2c0.1-0.2,0.3-0.3,0.2-0.5c0-0.1,0-0.1,0.1-0.1c0.1,0,0.1,0.1,0.1,0.1
			c0.1,0.3,0,0.6-0.2,0.9c-0.1,0.2-0.2,0.3-0.1,0.5c0,0.1,0,0.2,0,0.2c-0.2,0.2-0.3,0.5-0.6,0.6c-0.2,0.1-0.3,0.2-0.4,0.4
			c0,0.2,0,0.4-0.3,0.4c-0.1,0-0.1,0.1-0.1,0.2c0,0.2,0.1,0.1,0.2,0.1c0.1,0.1,0.1,0.3,0.2,0.4c0,0.1,0,0.2-0.1,0.2
			c-0.2,0.1-0.4,0.3-0.5,0.5c0,0,0,0-0.1,0.1c-0.1,0.1-0.2,0.2-0.3,0c0,0.1,0.1,0.2,0,0.3c0,0.1-0.1,0.2-0.2,0.3
			c-0.1,0-0.2,0.1-0.2,0.2c0,0,0,0-0.1,0c-0.2,0-0.3,0.2-0.4,0.3c-0.1,0.1-0.2,0.2-0.4,0.3c-0.1,0-0.1,0.1-0.2,0
			c-0.4-0.2-0.7,0-1,0.1c0.1,0,0.2,0,0.3,0c0.1,0,0.2,0,0.2,0.2c0,0.1-0.1,0.2-0.2,0.2c-0.1,0-0.1,0-0.2,0c0,0.1,0.1,0.4-0.2,0.4
			c-0.1,0-0.2,0-0.3-0.1c0,0.2-0.1,0.2-0.3,0.2C27,49.6,26.7,49.7,26.5,49.5z"/>
		<path fill="#FEFEFE" d="M48.6,49.9c0,0,0,0.1,0,0.1c-0.4,0.1-0.6,0-0.5-0.4c-0.1,0.1-0.2,0.2-0.3,0.2c-0.1,0-0.2,0-0.2-0.1
			c-0.1-0.1,0.1-0.1,0.2-0.2c-0.2,0.1-0.3,0.1-0.5,0.1c-0.1,0-0.2-0.1-0.1-0.2c0.1-0.2,0.1-0.4-0.2-0.4c0,0,0,0,0-0.1
			c-0.1-0.3-0.3-0.3-0.5-0.2c-0.2,0.1-0.2,0-0.3-0.1c-0.1-0.1-0.2-0.2,0-0.3c0.1-0.1,0.1-0.2,0-0.2c-0.1-0.1-0.2-0.2-0.3-0.3
			c0,0,0,0-0.1,0c-0.3,0-0.4-0.2-0.4-0.5c0-0.2,0-0.4-0.3-0.5c-0.2-0.1-0.4-0.3-0.5-0.6c-0.1-0.3-0.4-0.4-0.6-0.6
			c-0.1-0.1-0.1,0-0.2,0c-0.1,0.2-0.2,0.1-0.2-0.1c0-0.1-0.1-0.2,0-0.4c0.1-0.1,0-0.3-0.1-0.3c-0.4-0.1-0.4-0.4-0.4-0.7
			c0-0.3-0.1-0.7-0.1-1c0-0.2-0.2-0.2-0.3-0.3c-0.1-0.2-0.1-0.4-0.1-0.6c0-0.3,0-0.5-0.1-0.8c-0.1-0.2-0.2-0.4,0-0.6
			c0,0,0-0.1,0-0.1c-0.2-0.2-0.2-0.5-0.2-0.7c0-0.4-0.2-0.7-0.1-1.1c0-0.1,0-0.2,0-0.2c-0.2-0.4-0.1-0.9-0.2-1.3c0,0,0-0.1,0-0.1
			c-0.4-0.3-0.2-0.7-0.3-1c-0.1-0.4-0.1-0.8-0.2-1.2c0-0.3-0.1-0.6,0-0.8c0,0,0,0,0-0.1C41,34,41,33.6,40.8,33.3
			c-0.1-0.1-0.1-0.3-0.1-0.4c0,0,0-0.1,0-0.1c0-0.2-0.1-0.5-0.1-0.7c0,0,0-0.1,0-0.1c0-0.2-0.1-0.5-0.1-0.7c0,0,0-0.1,0-0.1
			c0-0.2-0.1-0.5-0.1-0.7c0,0,0-0.1,0-0.1c0-0.2-0.1-0.5-0.1-0.7c0-0.1,0-0.2,0-0.3c0-0.2,0-0.4-0.1-0.5c0-0.2,0-0.3-0.1-0.5
			c0-0.1,0-0.2,0-0.3c0-0.1,0-0.1,0-0.2c0-0.2-0.1-0.4-0.1-0.6c0-0.1,0-0.3,0-0.4c0-0.6-0.1-1.2-0.2-1.8c-0.1-0.4-0.1-0.7-0.2-1.1
			c0-0.1,0-0.3-0.1-0.4c-0.1-0.1,0-0.3-0.1-0.4c0-0.1,0-0.3-0.1-0.4c0-0.1,0-0.3-0.1-0.4c0-0.1,0-0.2-0.1-0.4c0-0.1,0-0.3-0.1-0.4
			c0-0.1,0-0.2,0-0.3c0-0.2,0-0.4-0.1-0.5c0-0.3,0-0.6-0.1-0.8c0,0,0-0.1,0-0.1c0-0.1,0-0.2,0-0.3c0-0.2,0-0.3,0-0.5
			c-0.1-0.3-0.1-0.6-0.1-0.9c0-0.1,0-0.2-0.1-0.2c-0.1-0.1-0.1-0.3,0-0.4c0.1-0.1,0-0.3,0.1-0.4c0.1-0.3,0.1-0.6,0.1-0.9
			c0-0.7-0.1-1.3,0-2c0-0.2,0-0.4-0.1-0.6c-0.1-0.7,0.1-1.3,0.1-1.9c0-0.1,0-0.2,0-0.3c0-0.2-0.1-0.3-0.4-0.3c-0.2,0-0.5,0-0.7-0.1
			c-0.1-0.1-0.1-0.1-0.1-0.2c0.1-0.2,0.1-0.4,0.2-0.6c3.5,0,7,0,10.4,0c0.2,0,0.2,0,0.2,0.2c0,13.1,0,26.2,0,39.3
			C48.3,49.6,48.4,49.8,48.6,49.9z"/>
		<path fill="#FEFEFE" d="M48.6,50.3c0,4.8,0,9.6,0,14.4c0,0.2,0,0.3-0.3,0.3c-3.6,0-7.1,0-10.7,0c0,0-0.1-0.1-0.1-0.1
			c0-0.1,0-0.2,0-0.4c0-0.1,0-0.2,0.1-0.2c0.2-0.2,0.1-0.5,0.2-0.7c0-0.1,0-0.2,0-0.3c0,0,0-0.1,0-0.1c0.2-0.3,0.2-0.6,0.2-0.9
			c0-0.3,0.2-0.6,0.2-0.9c0-0.1,0.1-0.2,0.1-0.2c0.1-0.2,0.2-0.4,0.5-0.4c0,0,0.2-0.1,0-0.2c-0.2-0.1-0.1-0.3-0.1-0.4
			c0-0.1,0-0.2,0-0.3c0,0,0-0.1,0-0.1c0.4-0.3,0.5-0.7,0.4-1.1c0-0.1,0.1-0.2,0.1-0.4c0.2-0.5,0.4-0.9,0.7-1.3
			c0.2-0.2,0.3-0.3,0.6-0.2c-0.1-0.3-0.1-0.5,0.2-0.5c-0.1-0.1-0.2-0.1-0.2-0.2c0-0.1,0.1-0.1,0.2-0.2c0.1,0,0-0.1,0.1-0.1
			c0.1-0.3,0.2-0.6,0.5-0.7c0.1-0.1,0.2-0.1,0.2-0.2c0-0.1,0.1-0.1,0.3-0.1c-0.1,0-0.2,0-0.2-0.1c0-0.1,0-0.2,0.1-0.2
			c0.2-0.1,0.2-0.2,0.2-0.3c0-0.2,0.1-0.3,0.2-0.4c0.1-0.1,0.3-0.3,0.4-0.4c0.1,0,0.2-0.1,0.2-0.2c0,0,0-0.1,0.1-0.1
			c0.1,0,0.1-0.1,0.1-0.2c0-0.1,0.1-0.2,0.2-0.3c0.2-0.1,0.4-0.3,0.6-0.5c0.1-0.1,0.2-0.2,0.3-0.2c0.1,0,0.3-0.1,0.4-0.1
			c0.1,0.1,0.2,0.1,0.2-0.1c0-0.2,0.1-0.3,0.3-0.2c0.2,0,0.3-0.1,0.4-0.2c0.1-0.1,0.1-0.1,0.2-0.1c0.1,0.1,0.1,0.3,0.3,0.1
			c-0.1-0.1-0.2,0-0.3-0.1c0-0.2,0.1-0.3,0.4-0.2c0.3,0.1,0.6,0,0.8-0.2c0.2-0.2,0.4,0,0.5,0c0.1-0.1-0.2-0.1-0.1-0.2
			c0.1-0.1,0.3,0,0.4,0c-0.2-0.4,0.2-0.3,0.3-0.5c0,0,0.1,0,0.1,0C48.4,50.2,48.5,50.3,48.6,50.3z"/>
		<path fill="#FEFEFE" d="M36.9,65c-3.4,0-6.8,0-10.2,0c-0.2,0-0.2,0-0.2-0.2c0-4.8,0-9.7,0-14.5c0.1-0.1,0.1-0.1,0.2-0.1
			c0.1,0,0.2,0.1,0.2,0.1c0,0,0.1,0,0.1,0c0.1,0.1,0.2,0.2,0.3,0.3c0.1,0.1,0.2-0.2,0.3-0.1c0,0,0.1,0,0.1,0
			c0.2,0.1,0.3,0.2,0.5,0.2c0.2,0,0.3,0.1,0.5,0.2c0.1,0,0.2,0.1,0.3,0.1c0.1,0.1,0.2,0.1,0.3,0.2c0,0.1,0.1,0.1,0.1,0.2
			c0,0.2,0.1,0.3,0.2,0.4c0.3,0.1,0.6,0.2,0.9,0.2c0,0,0.1,0,0.1,0c0.1,0.1,0.2,0.3,0.2,0.4c0,0.1-0.1,0.1-0.1,0.1
			c0.1,0,0.1-0.1,0.2-0.1c0.2,0,0.2,0.3,0.4,0.2c0,0,0.1,0.1,0.1,0.1c-0.2,0.2,0,0.2,0.1,0.2c0.1,0.1,0.2,0.1,0.3,0.3
			c0.1,0.1,0.2,0.2,0.4,0.1c0,0,0.1,0,0.1,0c0,0.1,0.1,0.2,0,0.3c0,0-0.1,0-0.1,0.1c0,0,0.1,0,0.1-0.1c0.1,0,0.1,0.1,0.2,0.1
			c0.2,0.2,0.4,0.3,0.5,0.5c0,0,0,0,0.1,0.1c0,0.1,0.1,0.2,0.2,0.2c0,0,0.1,0.1,0.1,0.1c0,0.1-0.1,0.1,0.1,0.2
			c0.1,0,0.1,0.1,0.1,0.2c-0.1,0.2-0.2,0.3-0.2,0.5c0.2,0,0.4-0.2,0.6-0.1c0.2,0.2,0.4,0.5,0.5,0.7c0,0.1,0,0.2,0.1,0.3
			c0,0.1,0,0.1,0,0.2c-0.1,0.1-0.2,0.1-0.1,0.2c0.1,0.1,0.1,0.3,0.3,0.2c0.1,0,0.2,0,0.2,0.1c-0.1,0.3,0.3,0.5,0.3,0.8
			c0,0,0,0.1,0,0.1c0.3,0,0.2,0.3,0.4,0.4c0.2,0.1,0.2,0.3,0,0.4c-0.1,0.1-0.1,0.1-0.1,0.2c0.1,0,0.1-0.3,0.3-0.2
			c0.1,0.1,0.1,0.2,0.3,0.2c0.1,0.1,0.1,0.2,0.1,0.4c-0.1,0.2-0.1,0.3,0,0.5c0.1,0.2,0.3,0.5,0.1,0.8c-0.1,0.2,0.1,0.3,0.1,0.5
			c0,0.2,0.3,0.1,0.4,0.2c0,0,0,0,0,0.1c0,0.3,0.1,0.5-0.1,0.8c-0.1,0.1,0,0.1,0,0.2c0.2,0.2,0.1,0.6,0.3,0.8c0,0,0,0.1-0.1,0.1
			c0,0,0,0,0,0.1c-0.1,0.2,0,0.3,0,0.5C37,64.3,37,64.7,36.9,65z"/>
		<path fill="#FDFDFD" d="M37.7,10.5c0,0.1,0,0.2,0,0.2c0,0,0.1,0.1,0,0.2c0,0,0,0-0.1,0c-0.2,0-0.1-0.2-0.1-0.3c0,0,0,0,0,0
			c0,0,0,0.1,0,0.1c0,0.1-0.1,0.2-0.1,0.3c0,0.1,0,0.1,0,0.2c0,0.1-0.1,0.1-0.1,0.2c0,0,0,0,0,0.1c0,0,0,0-0.1,0c0,0,0,0,0,0
			c0,0.5,0,0.9-0.1,1.4c0,0.1-0.1,0.2-0.1,0.3c0,0,0,0.1,0,0.1c0,0,0,0,0,0c0,0,0,0,0,0.1c0,0,0,0,0-0.1c0.1-0.4,0.2-0.8,0.2-1.2
			c0,0,0-0.1,0-0.1c0-0.1,0-0.3,0-0.4c0-0.1,0-0.1,0.1-0.2c0.2,0,0.2,0.2,0.1,0.3c0,0.3,0,0.6,0,0.8c0,11.4,0,22.8,0,34.2
			c0,0.2,0,0.4-0.1,0.6c-0.2,0.1-0.2,0-0.3-0.1c-0.1-0.2-0.3-0.4-0.4-0.6c-0.2-0.3-0.5-0.6-0.7-0.9c0-0.1-0.1-0.2-0.1-0.3
			c0,0,0.1,0,0.1-0.1c-0.3,0.1-0.4-0.3-0.7-0.3c0-0.1-0.3-0.2-0.1-0.4c0.3-0.1,0.5,0,0.7,0.2c0.2,0.2,0.4,0.4,0.6,0.5
			c0,0,0.1,0.1,0.1,0.1c0.1,0,0.1-0.1,0.1-0.2c0-0.2,0-0.4,0-0.6c0-0.9,0-1.8,0-2.7c0-0.2,0-0.5,0.1-0.7c0-0.1,0-0.2,0-0.2
			c-0.1-0.4-0.1-0.8-0.1-1.2c0-5.1,0-10.2,0-15.4c0-2.5,0-5,0-7.5c0-0.1,0-0.3-0.1-0.4c-0.1-0.1-0.1-0.2-0.1-0.3
			c0.1-0.4,0.1-0.7,0.2-1.1c0.1-0.2,0-0.5,0.1-0.8c0,0,0,0,0,0s0,0,0,0c0,0.1,0,0.1,0,0.2c0,0.1,0,0.3-0.1,0.4
			c0,0.2-0.1,0.4-0.1,0.5c0,0.2-0.1,0.3-0.1,0.5c-0.1,0.4-0.1,0.7-0.2,1.1c0,0.1,0,0.2-0.1,0.3c-0.2,0.2-0.2,0.5-0.2,0.8
			c-0.1,0.1-0.1,0.2-0.2,0.2c0,0,0,0,0,0c-0.1,0-0.1,0-0.1-0.1c0-0.4,0-0.7,0.1-1.1c0.1-0.1,0.1-0.4-0.1-0.5c0,0,0-0.1,0-0.1
			c0-0.6,0-1.2,0-1.9c0,0,0,0,0.1-0.1c0.1,0.2,0,0.4,0.1,0.6c0.1-0.2,0.1-0.5,0.2-0.6c0.1,0,0.1,0.1,0.1,0.1c0,0.1-0.1,0.3,0.1,0.3
			c0.1,0,0.1-0.1,0.2-0.2c0.1-0.2,0.2-0.4,0.2-0.6c0-0.6,0-1.1,0-1.7c0,0,0-0.1,0-0.1c0.3,0,0.1-0.2,0.1-0.3c0.1-0.2,0-0.3-0.1-0.4
			c0,0-0.1-0.1,0-0.1c0.1-0.2,0-0.3-0.1-0.4c-0.1-0.1-0.1-0.3,0-0.4c0.1-0.3,0-0.6,0.1-1c0,0,0.1,0,0.1,0c0.1,0.1,0,0.3,0.1,0.4
			c0-0.1-0.1-0.3,0.1-0.4c0.2,0,0.4,0,0.6,0C37.8,10.2,37.8,10.3,37.7,10.5z"/>
		<path fill="#FCFDFC" d="M26.9,50.3c-0.1,0.1-0.2,0-0.2,0c-0.1-0.1-0.1-0.1-0.2,0c0-0.3,0-0.5,0-0.8c0.2,0,0.5,0,0.7,0
			c0.2,0,0.3-0.2,0.2-0.5c0.2,0,0.1,0.1,0.1,0.2c0,0.1,0.1,0.1,0.2,0.1c0.1,0,0.2-0.1,0.1-0.2c-0.1-0.3,0-0.3,0.2-0.2
			c0.1,0,0.2,0,0.2-0.1c0-0.1-0.1-0.1-0.2-0.1c-0.1,0-0.3,0-0.4,0c0,0-0.1,0.1-0.1,0c0-0.1,0-0.1,0-0.1c0.1,0,0.2-0.1,0.2-0.1
			c0.3,0,0.6-0.4,0.9,0c0,0,0.1,0,0.2,0c0,0,0,0.1,0,0.1c-0.1,0.2-0.3,0.3-0.5,0.4c-0.2,0.1-0.3,0.2-0.5,0.3
			c-0.2,0.1-0.4,0.2-0.6,0.3c-0.1,0-0.2,0.1-0.2,0.1c-0.1,0-0.2,0-0.3,0.1c0,0,0,0-0.1,0c0,0-0.1,0-0.1,0.1c0,0,0.1,0,0.1,0.1
			C26.9,50.2,27,50.2,26.9,50.3C27,50.3,27,50.3,26.9,50.3z"/>
		<path fill="#FCFDFD" d="M36.9,65c0-0.4,0.1-0.8-0.1-1.1c-0.1-0.1,0-0.3,0.1-0.5c0.1,0.1,0.1,0.1,0.1,0.2c0-0.1,0-0.2-0.1-0.2
			c0,0,0,0,0,0c-0.1-0.2-0.1-0.5-0.2-0.7c-0.1-0.2-0.3-0.3,0-0.4c0.1-0.1,0.1-0.2,0.1-0.3c0-0.1,0-0.2,0-0.3c0.2,0,0.2,0.2,0.2,0.4
			c0,0.1,0,0.3,0.1,0.4c0,0,0,0,0,0.1c0,0.1,0,0.3,0.1,0.4c0,0,0,0.1,0,0.1c0,0.1,0,0.2,0.1,0.3c0,0,0,0,0,0.1
			c0.1,0.2,0.1,0.3,0.2,0.5c0,0,0,0.1,0,0.1c0,0.1,0,0.3,0,0.4c0,0.1,0,0.1,0,0.2c0,0.1,0,0.1,0,0.2c0,0.1,0,0.2,0.1,0.3
			c0,0,0,0.1,0,0.1c-0.1,0-0.2,0-0.4,0c0-0.1,0.1-0.3-0.1-0.4c-0.1,0.1,0,0.3-0.1,0.4C37,65,36.9,65,36.9,65z"/>
		<path fill="#FBFCFB" d="M48.6,50.3c-0.1,0-0.2,0-0.3-0.1c-0.1-0.1-0.2-0.1-0.3-0.2c-0.3-0.1-0.6-0.3-0.8-0.4
			c-0.1,0-0.2-0.1-0.1-0.2c0,0,0,0,0.1,0c0.2,0,0.4,0.1,0.5-0.2c0,0,0.1,0,0.1,0c0,0,0,0.1,0,0.1c0,0.1-0.1,0.2-0.3,0.3
			c0.3,0.1,0.5,0.2,0.6-0.1c0,0,0.1-0.1,0.1-0.1c0,0,0,0.1,0,0.1c0,0.4,0,0.4,0.4,0.4c0,0,0,0,0,0C48.6,50.1,48.6,50.2,48.6,50.3z"
			/>
		<path fill="#FEFEFE" d="M37,65c0-0.1,0-0.2,0-0.3c0-0.1-0.1-0.2,0.1-0.3c0.1,0,0.1,0.1,0.2,0.1c0.1,0.1,0.2,0.2,0.1,0.3
			c0,0-0.1,0.1-0.1,0.1C37.2,65,37.1,65,37,65z"/>
		<path fill="#FEFEFE" d="M37.7,10.5c0-0.2-0.1-0.4-0.1-0.5c0.1,0,0.2,0,0.3,0C37.9,10.2,37.9,10.4,37.7,10.5z"/>
		<path fill="#FEFEFE" d="M37,10c0,0.2,0,0.5-0.1,0.8c-0.1-0.3,0-0.6-0.1-0.8C36.9,10,37,10,37,10z"/>
		<path fill="#FBFCFB" d="M48.6,49.9c-0.2,0-0.3,0-0.2-0.3c0-0.2,0.1-0.2,0.2-0.1C48.6,49.6,48.6,49.8,48.6,49.9z"/>
		<path fill="#FDFDFD" d="M42.4,42.8c0.3,0,0.4,0.2,0.4,0.4c0,0.2,0,0.4,0.1,0.7c0.1,0.1,0,0.4,0,0.5c0,0.1,0.1,0.3,0.2,0.3
			c0.2,0,0.3,0.3,0.2,0.4c-0.1,0.2,0,0.3,0.1,0.6c0.1-0.4,0.2-0.3,0.4-0.2c0.4,0.2,0.5,0.7,0.8,0.9c0.1,0.1,0.1,0.2,0.3,0.1
			c0.2,0,0.2,0.3,0.2,0.4c0,0.1,0.1,0.2,0,0.4c0,0.1,0.1,0.1,0.2,0.1c0.1,0,0.2,0,0.2,0.1c-0.1,0.1-0.2,0.3-0.3,0.3
			c-0.2,0-0.2-0.2-0.4-0.3c-0.3-0.3-0.6-0.6-0.8-0.9c-0.1-0.1-0.1-0.1-0.1-0.2c0,0,0.1-0.1,0.1-0.1c0,0,0,0.1-0.1,0.1
			c-0.2,0-0.2-0.1-0.3-0.1c0,0-0.1-0.1-0.1-0.1c0-0.1-0.1-0.2-0.2-0.3c-0.1-0.1-0.2-0.2-0.3-0.3c-0.1-0.3-0.3-0.3-0.6-0.2
			c-0.1,0-0.2,0-0.3,0.1c-0.1,0-0.2,0-0.2,0.1c-0.3,0-0.5,0.2-0.7,0.3c-0.8,0.4-1.5,1-2,1.7c0,0,0,0.1-0.1,0.1
			c-0.1,0.1-0.1,0.2-0.2,0.3c0,0,0,0,0,0.1c-0.1,0.1-0.1,0.2-0.2,0.3c-0.4,0.6-0.7,1.3-1,2c0,0-0.1,0.1-0.2,0.1
			c-0.1,0-0.1-0.1-0.2-0.2c-0.1-0.1-0.1-0.2-0.2-0.3c-0.2-0.3-0.3-0.6-0.5-0.9c-0.1-0.1-0.1-0.2-0.2-0.3c-0.2-0.2-0.3-0.4-0.4-0.7
			c0-0.1-0.1-0.2-0.2-0.2c-0.1,0-0.1-0.1-0.1-0.2c0.1-0.2,0.2-0.1,0.4-0.1c-0.2-0.1-0.4,0-0.4-0.2c0-0.1-0.1,0.1-0.2,0
			c-0.2-0.1-0.3-0.2-0.4-0.3c-0.2-0.2-0.4-0.4-0.7-0.5c-0.3-0.3-0.6-0.5-0.9-0.7c-0.3-0.2-0.6-0.3-0.9-0.3c-0.1,0-0.2,0-0.3,0
			c-0.1,0-0.1,0-0.1-0.1c0,0,0.1,0,0-0.1C32,45,32,45,32,45.1c0,0.1,0,0.2-0.1,0.3c0,0.1,0,0.2-0.2,0.2c-0.1,0-0.2-0.1-0.2-0.2
			c0,0,0-0.1,0-0.1c0,0.2,0,0.4-0.2,0.5c0.2,0,0.3,0,0.2,0.2c0,0,0,0,0,0c-0.1,0.1-0.1,0.2-0.3,0.2c-0.2,0-0.1-0.2-0.2-0.2
			c-0.1,0.1-0.3,0.1-0.3,0c-0.1-0.1,0-0.3,0-0.4c0-0.1,0.1,0,0.2,0c0.1,0,0.1,0,0.1-0.1c0.1-0.4,0.2-0.7,0.7-0.9
			c0.2-0.1,0.3-0.4,0.5-0.5c0,0,0-0.1-0.1-0.1c-0.1-0.2-0.1-0.3,0-0.4c0.2-0.3,0.3-0.6,0.3-0.9c0,0,0-0.1,0-0.1c0,0,0,0-0.1-0.1
			c0.1,0.4-0.3,0.6-0.3,0.9c-0.1-0.3-0.1-0.4,0.1-0.6c0.2-0.2,0.1-0.4,0.1-0.7c0.1-0.3,0.1-0.6,0.1-0.9c0-0.1,0-0.1,0-0.2
			c0-0.1,0.1-0.2,0.2-0.1c0.1,0,0,0.1,0.1,0.2c0,0.1-0.1,0.2,0.1,0.2c0.1,0,0.1-0.1,0.1-0.2c0.2-0.3,0.1-0.7,0-1
			c-0.1-0.3,0.2-0.6,0.1-0.9c0-0.1,0.1,0.1,0.2,0c0,0,0.1,0.1,0.1,0.1c0,0.5-0.1,1.1-0.2,1.6c0,0.2,0,0.3-0.1,0.5c0,0.1,0,0.2,0,0.3
			c-0.1,0.4-0.1,0.8-0.2,1.2c0,0.2-0.1,0.5-0.1,0.7c0,0.1,0,0.2,0,0.3c0,0.1,0,0.2,0,0.2c0.1,0.1,0.3,0.1,0.5,0.2
			c0.2,0.1,0.5,0.2,0.7,0.3c0.1,0,0.2,0.1,0.3,0.1c0.1,0,0.1,0.1,0.2,0.1c0,0,0,0,0.1,0c0,0,0.1,0,0.1,0.1c0,0,0.1,0,0.1,0.1
			c0.1,0,0.1,0.1,0.2,0.1c0,0,0,0,0.1,0c0.1,0,0.1,0.1,0.2,0.1c0,0,0,0,0.1,0c0.1,0.1,0.2,0.1,0.3,0.2c0,0,0,0,0.1,0
			c0.4,0.3,0.8,0.7,1.2,1.1c0.3,0.3,0.5,0.7,0.7,1c0,0,0.1,0,0.1,0c0.1-0.3,0.4-0.6,0.6-0.8c0.1-0.1,0.1-0.1,0.2-0.2
			c0.2-0.2,0.3-0.3,0.5-0.5c0.3-0.2,0.5-0.5,0.9-0.7c0.2,0,0.3-0.3,0.5-0.1c0,0,0,0,0,0c0.1-0.2,0.2-0.3,0.3-0.3
			c0.1,0,0.2,0,0.2-0.1c0-0.1,0.1-0.1,0.2-0.1c0.1-0.1,0.2-0.1,0.3-0.1c0.2-0.1,0.4-0.2,0.6-0.2c0.1,0,0.3-0.1,0.4-0.1
			c0.1,0,0.2,0,0.2-0.1c0.1-0.1,0.1-0.2,0-0.3c-0.1-0.2-0.1-0.4-0.1-0.7c0-0.1,0.1-0.1,0-0.2C42.3,43,42.3,42.9,42.4,42.8z"/>
		<path fill="#063A7F" d="M32.8,43c0-0.4,0.1-0.8,0.2-1.2c0,0,0,0,0,0c0-0.1,0-0.3,0-0.4c0.1-0.7,0.2-1.4,0.3-2.1c0,0,0,0,0,0
			c0,0,0,0,0,0c0,0,0,0,0,0c-0.1-0.1,0-0.3,0-0.4c0-0.1,0-0.2,0.1-0.3c0,0,0,0,0-0.1c0.1-0.3,0-0.6,0.1-0.8c0.1-0.6,0.2-1.2,0.3-1.8
			c0-0.1,0-0.3,0.1-0.4c0.1-0.2,0-0.4,0.1-0.7c0,0,0,0,0,0c0.1-0.2,0.1-0.5,0.1-0.7c0.1,0,0.1-0.1,0.1-0.2c0-0.5,0.2-1,0.2-1.5
			c0-0.1,0-0.1,0-0.2c0.1-0.2,0-0.4,0.1-0.6c0,0,0-0.1,0-0.1c0.1-0.2,0.1-0.5,0.1-0.7c0-0.3,0.1-0.7,0.1-1c0.1-0.2,0-0.4,0.1-0.7
			l0,0c0.3,0,0.2,0.3,0.2,0.4c0,0.2,0,0.3,0,0.5c0,0.1,0,0.1,0,0.2c-0.1,0.2,0,0.4-0.1,0.7c0,0,0,0.1,0,0.1
			c-0.1,0.1-0.1,0.2-0.1,0.3c0,0.2,0,0.5-0.1,0.7c0,0.4,0,0.8-0.1,1.1c0,0.2,0,0.4,0,0.5c0,0,0,0.1,0,0.1c-0.1,0.3,0,0.6-0.1,0.9
			c0,0.1,0,0.3-0.1,0.4c-0.1,0-0.1-0.1-0.1-0.1c0,0.2,0.1,0.4,0,0.6c0,0,0,0.1,0,0.1c-0.1,0.3,0,0.5-0.1,0.8c0,0.1,0,0.3,0,0.4
			c0,0,0,0.1,0,0.1c0,0.2-0.1,0.5-0.1,0.7c0,0,0,0.1,0,0.1c0,0,0,0-0.1,0c0,0.2,0,0.3,0,0.5c0,0.1,0,0.3,0,0.4c0,0,0,0-0.1,0.1
			c0,0-0.1,0,0-0.1c0,0,0,0,0,0c0,0.1,0.1,0.3,0,0.4c0,0,0,0.1,0,0.1c-0.1,0.3,0,0.5,0,0.8c0,0.1,0,0.2,0,0.4c0,0,0,0.1,0,0.1
			c0,0,0,0-0.1,0c0,0,0,0,0,0c0,0,0,0,0,0c0.1,0.2,0,0.3,0,0.5c0,0.1,0,0.3,0,0.4c0,0,0,0-0.1,0c0,0,0,0,0,0c0.1,0.1,0,0.3,0,0.4
			c0,0.1,0,0.3-0.1,0.4c0,0.1-0.1-0.1-0.1,0c0,0.1,0,0.3,0,0.4c0,0.1,0,0.1-0.1,0.2c-0.1,0.2,0,0.4-0.1,0.6
			c-0.1,0.3-0.1,0.3,0.2,0.5c0,0,0.1,0,0.1,0c0,0.1,0.1,0.1,0.2,0.1c0,0,0,0,0,0.1c0,0.2-0.1,0.3-0.3,0.2c-0.1,0-0.2,0-0.3,0
			c-0.2,0-0.4-0.1-0.5-0.1c-0.1-0.1,0-0.2,0-0.3c0-0.1,0-0.2,0-0.2C32.8,43.5,32.7,43.3,32.8,43z"/>
		<path fill="#073A7E" d="M33.5,45.5c0.3,0.2,0.7,0.4,0.9,0.6c0.1,0.2,0,0.3-0.2,0.2c-0.1,0-0.2,0-0.3,0c0,0,0,0-0.1,0
			c-0.1-0.1-0.2-0.1-0.2-0.1c-0.3-0.1-0.6-0.2-0.9-0.3c-0.2-0.1-0.4,0-0.5,0.2c-0.1,0.2-0.2,0.3-0.3,0.5c-0.2,0.3-0.5,0.6-0.8,0.9
			c-0.1,0.1-0.2,0.3-0.3,0.4c0,0,0,0-0.1,0.1c0,0-0.1,0.1-0.1,0.1c0,0,0,0-0.1,0c-0.1,0.1-0.2,0.2-0.3,0.3c-0.2,0.2-0.4,0.4-0.6,0.5
			c0,0,0,0-0.1,0c-0.1,0-0.2,0.1-0.3,0.1c-0.1,0-0.1,0-0.2,0c-0.2-0.1-0.2-0.2-0.1-0.3c0.1,0,0.1-0.1,0-0.2c0,0,0-0.1,0-0.1
			c0.2-0.2,0.4-0.5,0.7-0.6l0,0c0.1-0.1,0.1-0.2,0.2-0.2c0.1-0.1,0.2-0.1,0.2-0.2c0.1-0.2,0.2-0.3,0.3-0.4l0,0
			c0.1-0.1,0.2-0.3,0.3-0.4c0.1,0,0.1-0.1,0.1-0.1c0,0,0,0,0-0.1c0.1,0,0.1-0.1,0.1-0.2c0.1-0.3,0.4-0.5,0.5-0.8c0,0,0.1,0,0.1-0.1
			c0.1-0.5,0.5-0.4,0.9-0.4C33,45.3,33.3,45.4,33.5,45.5z"/>
		<path fill="#F9FBFB" d="M36.2,18.3c-0.1-0.3,0.2-0.5,0.1-0.8c0,0,0.1,0,0.1,0c0.1,0.1,0.1,0.2,0.1,0.2c-0.1,0.7-0.2,1.5-0.3,2.2
			c0,0.2-0.1,0.5-0.1,0.7C36,20.9,36,21.1,36,21.3c0,0.1,0,0.2,0,0.2c-0.1,0.3-0.1,0.7-0.1,1c0,0.1,0,0.2,0,0.2
			c-0.1,0.1,0,0.3-0.1,0.4c-0.1,0.4-0.1,0.8-0.2,1.1c-0.1,0.2-0.1,0.5-0.1,0.8c0,0.1,0,0.1,0,0.2c0,0.1,0,0.3-0.1,0.3
			c0-0.1-0.3,0-0.1-0.2c0.2-0.2,0.1-0.4,0-0.7c-0.1-0.2-0.2-0.3,0.1-0.4c0.1,0,0-0.1,0.1-0.2c0-0.1,0-0.3,0-0.4
			c0.1-0.1,0-0.1-0.1-0.1c-0.1,0-0.1-0.1-0.1-0.2c0-0.1,0-0.1,0.1-0.1c0.1,0,0,0.1,0.1,0.1c0.1-0.1,0-0.2-0.1-0.3
			c-0.1-0.1-0.2-0.2-0.1-0.3c0.3-0.5,0.4-1,0.5-1.5c0.1-0.1,0-0.3,0-0.5c0-0.1-0.1-0.3,0.1-0.4c0,0,0-0.1,0-0.1
			c-0.1-0.1-0.1-0.2,0-0.3c0-0.1,0-0.2,0-0.2c0,0-0.1-0.1,0-0.1c0.2-0.1,0.1-0.2,0-0.4c0.1-0.3,0.2-0.6,0.2-0.8
			C36.1,18.4,36.2,18.3,36.2,18.3z"/>
		<path fill="#FAFDFD" d="M33.5,45.5c-0.4-0.1-0.7-0.2-1.1-0.3c-0.2,0-0.3,0-0.4,0.2c-0.2,0.4-0.4,0.7-0.7,1
			c-0.1-0.1-0.2-0.3-0.1-0.4c0.1,0,0.1,0.1,0.1,0.2c0.2-0.1,0.2-0.2,0.3-0.4c0,0-0.1,0.1-0.1,0.1c-0.1,0-0.2,0-0.1-0.1
			c0.2-0.2,0.1-0.5,0.2-0.7c0.2,0.1,0,0.5,0.3,0.5c0-0.2,0.3-0.3,0.1-0.6c0,0,0.1-0.1,0.1-0.1c0.1,0,0.1,0.1,0.2,0.1
			c0,0.1-0.1,0-0.1,0.1c0.1,0.1,0.2,0,0.4,0c0.3,0,0.6,0.1,0.9,0.2C33.5,45.4,33.5,45.5,33.5,45.5z"/>
		<path fill="#FDFDFD" d="M36.2,18.4c0,0.3,0,0.6-0.2,0.8c-0.1-0.3-0.1-0.5,0-0.8C36,18.4,36.1,18.4,36.2,18.4z"/>
		<path fill="#164277" d="M35.1,26.7c0-0.2,0.1-0.5,0.1-0.7c0.1-0.1,0.2,0,0.2,0.1c0,0.1,0,0.2,0,0.3c0,0.2,0,0.3,0,0.5
			c0,0,0,0.1,0,0.1c0,0,0,0-0.1,0c-0.1,0-0.1-0.1-0.1-0.1C35.2,26.8,35.2,26.7,35.1,26.7z"/>
		<path fill="#0D3872" d="M34.3,32.5c0.1,0.5-0.2,1-0.1,1.6c0,0.1,0,0.1-0.1,0.1c0,0,0,0,0-0.1C34.1,33.5,34.2,33,34.3,32.5z"/>
		<path fill="#F3F9FB" d="M29.9,48c-0.2,0.2-0.5,0.4-0.7,0.6c0,0-0.1,0.1-0.1,0.1c0,0,0-0.1,0-0.1c0.2-0.1,0.3-0.3,0.5-0.4
			C29.6,48,29.7,48,29.9,48z"/>
		<path fill="#133C76" d="M35,27.6c0-0.2,0.1-0.5,0.1-0.7c0.1,0,0.1,0.1,0.1,0.2c0,0.1,0,0.1,0.1,0.1c0,0,0,0,0,0.1
			c0,0.2,0,0.4-0.1,0.5c0,0-0.1,0-0.1,0C35.1,27.7,35,27.7,35,27.6z"/>
		<path fill="#1A406F" d="M35.4,26.4c-0.1-0.1,0.1-0.4-0.1-0.4c0-0.1,0-0.3,0-0.4c0.1-0.1,0-0.2,0.1-0.4c0.1,0,0.1,0.1,0.1,0.2
			c0,0.1,0,0.2,0.1,0.3c0,0.1,0,0.1,0,0.2c0,0,0,0.1,0,0.1C35.5,26.2,35.5,26.3,35.4,26.4z"/>
		<path fill="#133C75" d="M34.9,29.6c0-0.1,0.1-0.3-0.1-0.4c0-0.2,0.1-0.5,0.1-0.7c0.1,0,0.1,0.2,0.1,0.2c0,0.1,0,0.2,0.1,0.4
			C35.1,29.3,35.2,29.5,34.9,29.6C35,29.7,34.9,29.7,34.9,29.6z"/>
		<path fill="#133C75" d="M34.9,28.4c0-0.1,0-0.2,0-0.3c0.1,0,0.1,0,0.1,0c0.1,0,0.1,0.1,0.1,0.1c0,0.2,0,0.4-0.1,0.6
			c0,0.1,0,0.1-0.1,0.1C34.9,28.8,35,28.6,34.9,28.4z"/>
		<path fill="#0D4080" d="M34.9,28.4c0.2,0,0.1,0.2,0.1,0.3c0,0.1,0,0.2,0,0.3c0,0,0,0.1,0,0.1c-0.1,0-0.1-0.1-0.1-0.2
			c0-0.1,0-0.3-0.1-0.4C34.8,28.5,34.8,28.4,34.9,28.4z"/>
		<path fill="#F2F9F9" d="M33.4,38.7c0,0.1,0,0.2,0,0.3c-0.1,0.1,0,0.3-0.1,0.4c0,0,0,0,0,0c0,0,0-0.1,0-0.1c0,0,0-0.1,0-0.1
			C33,38.9,33.3,38.8,33.4,38.7z"/>
		<path fill="#053A7F" d="M35.3,27.2c0,0.1-0.1,0.1-0.1,0c0-0.1,0-0.2-0.1-0.4c0-0.1,0-0.2,0.1-0.2c0,0,0.1,0.1,0.1,0.1
			C35.3,26.9,35.4,27.1,35.3,27.2z"/>
		<path fill="#0D4080" d="M35.1,28.2c0,0-0.1,0.1-0.1,0c-0.1-0.1,0-0.3,0-0.4c0-0.1,0-0.1,0-0.2c0.1,0,0.1,0.1,0.1,0.2
			C35.2,27.9,35.2,28,35.1,28.2C35.2,28.1,35.2,28.2,35.1,28.2z"/>
		<path fill="#F2F9F9" d="M33.5,37.8c0,0.3,0,0.6-0.1,0.8c0-0.2,0-0.5,0-0.7C33.4,37.8,33.5,37.8,33.5,37.8z"/>
		<path fill="#F6FAFB" d="M31.2,46.6C31.2,46.6,31.2,46.6,31.2,46.6c0,0.1-0.1,0.2-0.1,0.2c-0.1,0.1-0.2,0.2-0.3,0.4
			C30.7,46.9,30.9,46.7,31.2,46.6z"/>
		<path fill="#F6FAFB" d="M30.7,47.2c-0.1,0.1-0.2,0.2-0.3,0.4c0-0.1,0-0.1-0.1-0.2c0-0.1,0-0.1,0-0.1c0.1,0,0.1,0,0.1,0
			C30.5,47.3,30.6,47.1,30.7,47.2z"/>
		<path fill="#11396D" d="M34.1,34.1C34.1,34.1,34.1,34.1,34.1,34.1c0,0.2,0,0.4,0,0.6c0,0.1,0,0.2-0.1,0.2
			C34,34.6,34,34.3,34.1,34.1z"/>
		<path fill="#103A6C" d="M34.5,30.9c0,0.2,0,0.4,0,0.5c0,0.1,0,0.2-0.1,0.2C34.4,31.3,34.5,31.1,34.5,30.9z"/>
		<path fill="#1E3560" d="M34.8,29.2c0,0.2,0,0.4,0,0.6c0,0.1,0,0.1-0.1,0.1C34.7,29.7,34.7,29.4,34.8,29.2z"/>
		<path fill="#1A385C" d="M34,34.9c0,0.2,0,0.3,0,0.5c0,0.1,0,0.2-0.1,0.2C33.8,35.3,33.9,35.1,34,34.9z"/>
		<path fill="#1F3758" d="M34.4,31.7c0,0.2,0.1,0.4-0.1,0.6C34.3,32.1,34.4,31.9,34.4,31.7z"/>
		<path fill="#18375B" d="M35,27.8c0.1,0.1,0,0.3,0,0.4c0,0-0.1,0-0.1-0.1C34.9,28,35,27.9,35,27.8z"/>
		<path fill="#F3F9FB" d="M30.1,47.8C30,47.9,30,47.9,29.9,48C29.9,47.8,30,47.8,30.1,47.8z"/>
		<path fill="#6370A5" d="M42.2,44.4c-0.1,0.1-0.3,0.1-0.4,0.1c-0.2,0-0.5-0.1-0.6,0.2c-0.1,0-0.2,0.1-0.3,0.1c-0.1,0-0.2,0-0.2,0.1
			c0,0,0,0-0.1,0c-0.2-0.1-0.2,0.1-0.3,0.2c0,0-0.1,0.1-0.1,0.1c-0.2,0-0.3-0.1-0.4-0.3c0,0.2,0.2,0.2,0.2,0.3
			c-0.1,0.2-0.3,0.2-0.4,0.3c-0.3,0.1-0.6,0.4-0.9,0.6c-0.1,0.1-0.2,0.1-0.3,0.1c-0.2,0,0,0.1-0.1,0.1c-0.1,0.1-0.1,0.2-0.1,0.3
			c0,0.1-0.1,0.1-0.2,0.2c-0.1,0.1-0.1,0.1-0.2,0.1c-0.1-0.1-0.3-0.2-0.4-0.3c0-2.2,0-4.4,0-6.6c0-9.2,0-18.3,0-27.5
			c0-0.3,0-0.5,0-0.8c0-0.1,0-0.2,0.1-0.3c0.1,0,0.1,0.1,0.1,0.2c0,0.2-0.1,0.3,0.1,0.5c0,0,0,0,0,0.1c0,0.1,0,0.2,0,0.3
			c0,0.2,0,0.5,0.1,0.7c0,0,0,0.1,0,0.1c0,0.4,0,0.7,0.1,1.1c0,0.2,0,0.3,0.1,0.5c0,0,0,0.1,0,0.1c0.1,0.2,0,0.4,0.1,0.6
			c0,0.1,0,0.1,0,0.2c0,0.2,0,0.3,0.1,0.5c0,0.1,0,0.2,0,0.3c0,0.2,0,0.3,0.1,0.5c0,0.1,0,0.2,0,0.3c0,0.2,0,0.5,0.1,0.7
			c0,0,0,0.1,0,0.1c0,0.2,0,0.5,0.1,0.7c0,0.1,0,0.1,0,0.2c0,0.2,0,0.5,0.1,0.7c0,0,0,0.1,0,0.1c0,0.2,0.1,0.5,0,0.7
			c0,0.1,0,0.1,0.1,0.2c0,0.1,0,0.3,0,0.4c-0.1,0-0.1,0.1-0.1,0.3c0,0.1,0,0.2,0,0.3c0,0.1,0,0.2,0,0.2c0.2,0.2,0.1,0.5,0.1,0.7
			c0,0.1,0,0.3,0.1,0.4c0,0.1,0.1,0.1,0.2,0.1c0,0.2,0,0.3,0.1,0.5c0,0.1,0,0.1,0,0.2c0,0.2-0.1,0.5,0.1,0.7c0,0,0,0.1,0,0.1
			c0,0.2,0,0.4,0.1,0.6c0,0.1,0,0.1,0,0.2c0,0.1,0,0.2,0,0.3c0,0.2,0,0.3,0.1,0.4c0,0,0,0.1,0,0.1c0,0.3-0.1,0.6,0.1,0.8
			c0,0.2,0,0.4,0.1,0.5c0,0.1,0,0.1,0,0.2c0.1,0.1,0,0.2,0.1,0.3c0.1,0.2,0.1,0.3,0.1,0.5c0.1,0.2-0.1,0.4,0.1,0.5
			c0,0.1,0,0.2,0,0.3c0.1,0.3,0,0.5,0.1,0.8c0,0,0,0,0,0c0,0.3,0,0.5,0.1,0.8c0,0,0,0,0,0c0.1,0.3,0,0.5,0.1,0.8l0,0
			c0.1,0.3,0,0.6,0.1,0.8l0,0c0,0.1,0,0.3,0,0.4c-0.1,0.2-0.1,0.4,0,0.5c0,0,0.1,0,0.1,0c0,0.1,0.1,0.2,0.1,0.3c0.1,0.1,0,0.3,0,0.4
			c0,0.2,0,0.3,0.1,0.5c0,0.1,0,0.2,0,0.3c0,0.2,0,0.4,0.1,0.6c0,0.1,0,0.1,0,0.2c-0.1,0.4,0.1,0.8,0.1,1.2c0,0.1,0.1,0.1,0.1,0.1
			c0,0.1,0,0.2,0,0.3c0,0.3,0,0.5,0.1,0.8c0,0,0,0.1,0,0.1c0,0.4,0.1,0.9,0.1,1.3c0,0.1,0,0.1,0.1,0.2c0,0,0,0.1,0,0.1
			c0,0.2,0,0.5,0.1,0.7c0,0,0,0.1,0,0.1c0,0.2,0,0.4,0.1,0.6c0,0.1,0,0.1,0,0.2c0,0.2,0,0.4,0.1,0.6c0,0.1,0,0.1,0,0.2
			c0,0.2,0,0.4,0.1,0.6c0,0.1,0,0.1,0,0.2c0,0.2,0,0.4,0.1,0.5c0,0.1,0.1,0.2,0,0.3C42.4,44.3,42.2,44.3,42.2,44.4z"/>
		<path fill="#FEFEFE" d="M37.7,10.9c0-0.1,0-0.1,0-0.2c0.3,0,0.5,0.1,0.8,0.1c0.2,0,0.3,0.2,0.3,0.4c0,0.6,0.1,1.2-0.1,1.7
			c-0.1,0.3,0,0.6,0.1,0.9c0,0.1,0,0.3,0,0.4c-0.1,0.7-0.1,1.3,0,2c0,0.3-0.1,0.6,0,0.8c0,0.1-0.1,0.1-0.1,0.1
			c-0.1-0.1-0.2-0.2-0.2-0.3c0-0.3,0-0.5-0.1-0.7c-0.1-0.3-0.1-0.7-0.1-1c0-0.5-0.2-0.9-0.2-1.4c-0.1-0.4-0.1-0.8-0.1-1.2
			c0-0.1,0-0.2,0-0.3l0,0c0,0,0,0,0-0.1c0-0.1,0-0.2,0.1-0.3c0-0.1,0-0.2-0.1-0.3C37.6,11.4,37.6,11.2,37.7,10.9z"/>
		<path fill="#F9FCFB" d="M41.1,35.3c0-0.1,0-0.2,0-0.3c-0.2-0.1,0-0.3-0.1-0.5c0-0.1,0-0.3-0.1-0.4c-0.1-0.1,0-0.3-0.1-0.4
			c0-0.1-0.1-0.3,0.1-0.4c0.1,0.3,0.3,0.7,0.3,1c0,0.2-0.1,0.4,0,0.6c0.2,0.5,0.2,1.1,0.3,1.7c0,0.1,0,0.3,0,0.4
			c0,0.1,0,0.2,0.1,0.2c0.1,0,0.1,0.1,0.1,0.2c0,0.4-0.1,0.9,0.1,1.3c0,0.1,0,0.3,0,0.4c0,0.3,0,0.7,0.2,0.9c0,0,0,0,0,0
			c-0.2,0.3,0,0.5,0.1,0.7c0,0,0,0.1,0,0.2c-0.2,0.3,0,0.5,0.1,0.7c0.1,0.1,0,0.3,0,0.5c0,0.2,0,0.4,0.1,0.7c0,0.1,0,0.2,0.1,0.4
			c0,0.1,0.1,0.1,0,0.2c0,0.3,0,0.5,0.1,0.7c0,0,0.1,0.2-0.1,0.2c0,0,0,0,0,0c0,0,0,0,0,0c0-0.1,0-0.2,0-0.3c-0.1-0.2,0-0.4-0.1-0.5
			c0-0.1,0-0.1,0-0.2c-0.1-0.2,0-0.4-0.1-0.6c0-0.1,0-0.1,0-0.2c-0.1-0.2,0-0.4-0.1-0.7c0-0.1,0-0.1,0-0.2c-0.1-0.2,0-0.4-0.1-0.5
			c0,0,0,0,0,0c-0.1-0.2,0-0.5-0.1-0.8c0,0,0,0,0,0c-0.1-0.4-0.2-0.9-0.2-1.4c0-0.1,0-0.2,0-0.2l0,0c-0.1-0.2-0.1-0.5-0.1-0.8
			c0-0.1,0-0.2,0-0.3c-0.1-0.4-0.2-0.7-0.2-1.1c0-0.1,0-0.2,0-0.3c0-0.1,0-0.1,0-0.2C41.1,35.8,41.2,35.5,41.1,35.3z"/>
		<path fill="#FCFCFB" d="M45.2,47.9c0.2,0,0.2-0.2,0.4-0.2c0.2,0.1,0.3,0.2,0.4,0.4c0.1,0.1,0.1,0.2,0,0.2c-0.1,0-0.2,0.1,0,0.2
			c0.1,0.1,0.1,0.3,0.3,0.1c0.1-0.1,0.6,0,0.6,0.1c0,0,0,0.1,0,0.1c-0.1,0.2-0.1,0.2,0.1,0.1c0.1-0.1,0.1,0,0.1,0.1
			C47,49,47.2,49.1,47,49.2c0,0.1,0.1,0.1,0.1,0.2c0,0-0.1,0-0.1,0c-0.3,0-0.5-0.2-0.7-0.4c-0.3-0.3-0.6-0.4-0.9-0.7c0,0,0,0,0-0.1
			C45.4,48.1,45.1,48.1,45.2,47.9z"/>
		<path fill="#6370A3" d="M39.4,23.3c-0.3,0.2-0.2-0.2-0.3-0.2c0,0,0,0,0-0.1c0-0.3,0.1-0.6,0-0.7c-0.2-0.3-0.1-0.5-0.1-0.7
			c0-0.2-0.2-0.2-0.2-0.4c0.1,0,0.2,0.2,0.3,0.1c0,0,0.1,0,0.1,0c0,0.1,0,0.2,0,0.3c0.1,0.1,0,0.3,0.1,0.4c0.1,0.1,0.1,0.2,0.1,0.4
			c0.1,0.1,0,0.3,0.1,0.4c0.1,0.1,0,0.3,0.1,0.4C39.4,23.2,39.4,23.2,39.4,23.3z"/>
		<path fill="#F7FAFB" d="M38,12.5c0.1,0.5,0.1,0.9,0.2,1.4c0.1,0.4,0.2,0.7,0.2,1.1c0,0.2,0.1,0.3,0.1,0.4c0,0.5,0.2,1,0.1,1.5
			c0,0.1,0.1,0.2,0.1,0.3c-0.1,0.1,0.1,0.2-0.1,0.3c0,0,0,0-0.1,0c0-0.1,0-0.2,0-0.3c-0.1-0.1,0-0.3-0.1-0.5c0-0.1,0-0.2,0-0.3
			c-0.1-0.1,0-0.3-0.1-0.5c0-0.1,0-0.1,0-0.2c-0.1-0.2,0-0.4-0.1-0.6l0,0c-0.1-0.1,0-0.3-0.1-0.5C38,14.2,38,13.8,38,13.4
			c0,0,0-0.1,0-0.1c-0.1-0.2-0.1-0.5-0.1-0.7C37.9,12.5,37.8,12.5,38,12.5z"/>
		<path fill="#F6F9FB" d="M39.8,26.4C39.8,26.4,39.8,26.4,39.8,26.4c-0.1-0.2,0-0.3-0.1-0.5c0-0.1,0-0.2,0-0.4c0-0.1,0-0.1,0-0.2
			c-0.1-0.2,0-0.4-0.1-0.7c0,0,0-0.1,0-0.1c-0.1-0.2,0-0.5-0.1-0.7c0-0.1,0-0.1,0-0.2c0-0.1,0-0.1,0-0.2c0.1,0.1,0.1,0.2,0.1,0.3
			c0.1,0.4,0,0.8,0.2,1.2c0.1,0.4,0.1,0.8,0.2,1.1c0.1,0.2,0,0.4,0,0.6C39.8,26.7,39.9,26.5,39.8,26.4z"/>
		<path fill="#F3F7FB" d="M38.7,18.3C38.7,18.2,38.7,18.2,38.7,18.3c-0.1-0.2-0.1-0.3,0-0.4c0.2,0,0.1,0.2,0.1,0.2
			c0.1,0.4,0.1,0.7,0.2,1.1c0,0.1,0,0.2,0,0.3c-0.1,0-0.1-0.1-0.1-0.1c0-0.1,0-0.2,0-0.3c0-0.1,0-0.1,0-0.2
			C38.7,18.7,38.7,18.5,38.7,18.3z"/>
		<path fill="#677099" d="M40.9,33.3c0,0.1,0,0.3,0,0.4c0,0,0,0.1,0,0.1c0,0-0.1,0-0.1,0.1c-0.1-0.2-0.1-0.4,0-0.6
			c0-0.1-0.1-0.3,0-0.4C40.9,33,40.8,33.2,40.9,33.3z"/>
		<path fill="#686F97" d="M39.8,26.4c0.1,0.1,0,0.3,0.1,0.4c0,0.2,0,0.3,0,0.5c0,0,0,0.1,0,0.1c-0.2-0.1-0.1-0.3-0.1-0.4
			C39.8,26.7,39.8,26.6,39.8,26.4z"/>
		<path fill="#677096" d="M39,20.8c-0.1,0-0.1-0.1-0.1-0.2c0-0.2,0-0.4,0-0.7C39,20.2,39,20.4,39,20.8C39,20.7,39,20.8,39,20.8
			C39,20.8,39,20.8,39,20.8z"/>
		<path fill="#667098" d="M40.5,31.2c-0.2-0.2-0.1-0.5-0.1-0.7c0,0,0-0.1,0-0.1C40.5,30.7,40.6,31,40.5,31.2z"/>
		<path fill="#677098" d="M40.8,32.9c-0.2,0-0.1-0.1-0.1-0.2c0-0.2,0-0.4,0-0.6C40.7,32.3,40.8,32.6,40.8,32.9z"/>
		<path fill="#667098" d="M40.7,32c-0.1,0-0.1-0.1-0.1-0.2c0-0.2,0-0.4,0-0.6C40.6,31.5,40.7,31.8,40.7,32z"/>
		<path fill="#657196" d="M38.7,17.9c0,0.1,0,0.2,0,0.4c-0.1,0-0.1-0.1-0.1-0.2c0-0.2,0-0.4,0-0.6c0,0,0,0,0.1,0
			C38.6,17.6,38.6,17.7,38.7,17.9z"/>
		<path fill="#667098" d="M40.4,30.4c-0.2-0.1-0.1-0.3-0.1-0.5c0-0.1,0-0.2,0-0.3C40.4,29.9,40.4,30.1,40.4,30.4z"/>
		<path fill="#677093" d="M38.8,19.1c0.1,0.1,0,0.3,0.1,0.4c0,0.1,0,0.2,0,0.3C38.7,19.6,38.8,19.3,38.8,19.1z"/>
		<path fill="#697094" d="M39.9,27.3C39.9,27.3,40,27.3,39.9,27.3c0.1,0.1,0.1,0.3,0.1,0.5C39.8,27.7,40,27.5,39.9,27.3z"/>
		<path fill="#677293" d="M39.5,23.5c0,0.1,0,0.1,0,0.2c-0.2-0.1-0.1-0.3-0.1-0.5c0,0,0-0.1,0-0.1C39.5,23.2,39.4,23.4,39.5,23.5z"
			/>
		<path fill="#687095" d="M40.3,29.4c-0.1,0-0.1,0-0.1-0.1c0-0.2,0-0.3,0-0.5C40.3,29,40.2,29.2,40.3,29.4z"/>
		<path fill="#697091" d="M39,20.8C39,20.8,39,20.8,39,20.8c0.1,0.1,0,0.3,0.1,0.5c0,0-0.1,0-0.1,0C39,21.1,39,20.9,39,20.8z"/>
		<path fill="#677092" d="M39.2,22c-0.1-0.1,0-0.3-0.1-0.4C39.2,21.7,39.2,21.8,39.2,22z"/>
		<path fill="#F6F9FB" d="M39.9,24.6C39.9,24.6,40,24.7,39.9,24.6c0.1,0.1,0.1,0.1,0,0.2c0,0-0.1,0-0.1,0
			C39.8,24.7,39.8,24.7,39.9,24.6z"/>
		<path fill="#666E8F" d="M39.3,22.7c-0.1-0.1,0-0.3-0.1-0.4C39.4,22.4,39.3,22.6,39.3,22.7z"/>
		<path fill="#69718A" d="M40.1,28.3c-0.1-0.1,0-0.2-0.1-0.3C40.2,28.1,40.1,28.2,40.1,28.3z"/>
		<path fill="#FBFCFC" d="M45.9,51.4c-0.2,0.1-0.4,0.4-0.8,0.3c-0.1,0-0.1,0.1,0,0.2c0,0.1,0,0.2-0.1,0.2c-0.1,0-0.2,0-0.2-0.1
			c-0.1-0.1,0.1-0.2,0.1-0.3c0.1-0.1,0.2-0.2,0.3-0.2c0.1-0.1,0.3-0.2,0.4-0.3c0,0,0,0,0.1,0c0.2-0.1,0.4-0.2,0.6-0.3c0,0,0,0,0.1,0
			c0.1,0,0.2-0.1,0.2-0.1c0,0,0,0,0.1,0c0,0,0.1,0,0.1,0c0.1,0,0.2,0,0.3-0.1c0.1,0,0.1-0.1,0.2-0.1c0.1,0,0.2-0.1,0.3-0.1
			c0,0,0,0,0.1,0c0.1,0,0.2-0.1,0.3-0.1c0,0,0.1,0,0.1,0c0,0,0,0,0.1,0c-0.1,0.1-0.2,0.2-0.4,0.3c0.1,0.1,0.3,0.1,0.2,0.2
			c-0.1,0.1-0.2,0-0.3,0c-0.1,0-0.1-0.1-0.2,0c0,0.1,0.3,0,0.2,0.2c-0.1,0.2-0.2,0.1-0.3,0c-0.1-0.1-0.2-0.1-0.3,0.1
			c-0.1,0.2-0.6,0.2-0.8,0.2C46.1,51.1,46,51.2,45.9,51.4z"/>
		<path fill="#FAFCFB" d="M42.3,54.1c0.1,0.2,0.1,0.4-0.2,0.4c-0.1,0-0.1,0.1-0.2,0.1c0.1,0.1,0.2,0,0.4,0c-0.2,0.1-0.3,0.4-0.6,0.5
			c-0.3,0.1-0.3,0.5-0.6,0.7c0.1,0,0.2,0,0.3,0.1c-0.2,0.1-0.4,0.2-0.6,0.2c0,0.1,0.1,0.1,0.2,0.1c0.1,0,0.2,0,0.1,0.1
			c0,0.1-0.1,0.1-0.2,0.1c-0.2,0-0.2,0.1-0.2,0.3c0,0.1,0.1,0.1,0,0.2c-0.1,0-0.1,0-0.2,0c-0.2-0.2-0.3,0.1-0.5,0.2c0,0,0-0.1,0-0.1
			c0.1-0.3,0.3-0.5,0.5-0.8c0.3-0.5,0.6-0.9,0.9-1.3c0.1-0.1,0.2-0.2,0.2-0.3c0,0,0,0,0.1-0.1C42,54.3,42.1,54.1,42.3,54.1z"/>
		<path fill="#063B7E" d="M42.9,53.4c-0.1,0.1-0.3,0.2-0.4,0.4c0,0-0.1,0-0.1,0c-0.1-0.1-0.1-0.2,0-0.3c0.1-0.1,0.1-0.1,0-0.2
			c0,0,0-0.1,0-0.1c0-0.1-0.1-0.2,0-0.3c0.1-0.1,0.2-0.2,0.4-0.1c0.2,0.1,0.1,0.2,0.1,0.4c0.1-0.1,0.1-0.2,0-0.3
			c0-0.2,0.1-0.3,0.3-0.3c0.1,0,0.2,0,0.3,0.1c0,0,0.1,0,0.1,0.1c-0.1,0.1-0.2,0.1-0.2,0.2c0,0.1-0.1,0.1-0.2,0.2c0,0,0,0,0,0.1
			C43.1,53.3,43,53.4,42.9,53.4z"/>
		<path fill="#093B7D" d="M43.5,52.7C43.5,52.7,43.5,52.7,43.5,52.7c-0.1-0.2,0-0.3-0.1-0.4c0-0.1,0-0.1,0.1-0.2
			c0.3-0.1,0.6-0.3,0.9-0.5c0.2-0.2,0.4-0.2,0.6,0c-0.1,0.2-0.3,0.3-0.6,0.4C44.1,52.3,43.9,52.6,43.5,52.7z"/>
		<path fill="#FAFCFB" d="M39,59.8c0,0.1,0.1,0.1,0,0.3c-0.1,0.2,0,0.4,0.3,0.5c-0.2,0-0.3,0.3-0.5,0.2c0,0-0.2,0.1-0.1,0.2
			c0,0.1,0,0.2-0.1,0.1c-0.1-0.2,0-0.4,0.1-0.5c0.1-0.2,0.1-0.4,0.2-0.6C38.8,60,38.9,59.8,39,59.8z"/>
		<path fill="#083C7E" d="M40.3,56.9c0,0,0,0.1,0,0.1c-0.3,0.4-0.4,0.9-0.7,1.3c0,0,0,0,0,0c0-0.1-0.1-0.2,0-0.3
			c0.1-0.2,0.1-0.5,0.1-0.7c0-0.1,0-0.2,0.1-0.2c0.3,0,0.3-0.2,0.4-0.4C40.4,56.6,40.3,56.8,40.3,56.9z"/>
		<path fill="#083A7D" d="M39.6,58.3c0,0.1-0.1,0.2-0.1,0.3c-0.1,0.2,0,0.4-0.2,0.5c-0.1,0-0.1,0-0.1-0.1c0-0.2,0.1-0.5,0-0.7
			c0,0,0-0.1,0-0.1c0.1-0.1,0.1-0.3,0.2-0.3c0.2,0,0.1,0.2,0.2,0.3C39.5,58.2,39.6,58.3,39.6,58.3L39.6,58.3z"/>
		<path fill="#113C7D" d="M38.4,61.4c-0.1,0.3-0.2,0.7-0.3,1c0,0.3-0.1,0.6-0.2,0.9c0,0,0,0,0,0.1c0,0.2,0,0.4-0.1,0.5
			c-0.1,0-0.1-0.1-0.1-0.1c0-0.1,0-0.2,0-0.2c0.1-0.3,0.1-0.6,0.2-0.9c0.1-0.1,0.1-0.2,0.1-0.3c0.1-0.3,0.1-0.6,0.3-0.9
			C38.3,61.3,38.4,61.3,38.4,61.4z"/>
		<path fill="#093C7F" d="M38.4,61.4c0,0-0.1,0-0.1,0c-0.1,0-0.3,0.1-0.3-0.1c0-0.1,0-0.3,0.2-0.3c0.1,0,0.1,0,0.1-0.1
			c-0.1-0.3,0.1-0.3,0.3-0.3c0,0,0,0,0,0c0,0.2-0.1,0.3-0.1,0.5C38.5,61.2,38.5,61.3,38.4,61.4z"/>
		<path fill="#0B3E7C" d="M39.1,59.1c0,0,0.1,0,0.1,0.1c0.1,0.3-0.1,0.4-0.2,0.6c0,0,0,0,0,0c-0.1,0.3-0.2,0.6-0.3,0.8l0,0
			c-0.2-0.2,0-0.4,0.1-0.6C38.8,59.7,38.9,59.3,39.1,59.1z"/>
		<path fill="#FAFCFB" d="M39,59.8c0.1-0.2,0.1-0.4,0.2-0.6c0.1-0.2,0.2-0.3,0.2-0.5c0.1,0.2,0,0.5,0,0.6
			C39.4,59.5,39.3,59.7,39,59.8z"/>
		<path fill="#16407A" d="M42.4,53.7c0,0,0.1,0,0.1,0c-0.1,0.1-0.2,0.2-0.2,0.3c-0.1,0.1-0.2,0.2-0.3,0.4c0,0,0,0,0-0.1
			c0-0.2,0.3-0.6,0.4-0.7C42.3,53.7,42.4,53.7,42.4,53.7z"/>
		<path fill="#F4FAF9" d="M37.8,63.8c0-0.2,0.1-0.3,0.1-0.5c0.1,0.1,0.1,0.3,0,0.5c-0.1,0.2-0.1,0.3-0.1,0.5c0,0.2-0.1,0.1-0.1,0.1
			c0,0-0.1-0.1-0.1-0.1c0-0.1,0-0.2,0-0.3C37.7,63.9,37.7,63.8,37.8,63.8z"/>
		<path fill="#FAFCFB" d="M39.2,60.3c-0.1-0.2,0-0.3,0.2-0.4c0.1,0,0.1,0,0.2,0.1C39.5,60.2,39.3,60.2,39.2,60.3z"/>
		<path fill="#F4FAF9" d="M38,63.2c0-0.3,0.1-0.6,0.2-0.9c0.1,0.3,0,0.6-0.1,0.8C38.1,63.3,38,63.2,38,63.2z"/>
		<path fill="#FBFCFC" d="M46.4,51.5c-0.1,0.1-0.2,0.2-0.3,0.2c-0.1,0-0.2-0.1-0.2-0.2c0-0.2,0.2-0.1,0.3-0.1
			C46.3,51.3,46.4,51.4,46.4,51.5z"/>
		<path fill="#F3F9F9" d="M44.4,52.1c0.2-0.1,0.4-0.3,0.5-0.4c0,0,0,0,0.1,0c-0.1,0.1-0.1,0.2-0.2,0.3C44.7,52,44.6,52.1,44.4,52.1z
			"/>
		<path fill="#1B4175" d="M37.7,64.2c0,0,0,0.1,0,0.1c0,0.1-0.1,0.2-0.1,0.2c0,0.1,0,0.2-0.2,0.1c0-0.1,0-0.1,0-0.2
			C37.6,64.4,37.5,64.1,37.7,64.2z"/>
		<path fill="#0F3F7B" d="M48.2,50.2C48.2,50.2,48.2,50.2,48.2,50.2C48.1,50.2,48,50.1,48,50C48.1,50,48.4,50,48.2,50.2
			C48.2,50.2,48.2,50.2,48.2,50.2z"/>
		<path fill="#294467" d="M37.5,64.6c0.1,0,0.1-0.1,0.2-0.1c0,0.1,0,0.2,0,0.4C37.4,64.9,37.5,64.7,37.5,64.6z"/>
		<path fill="#EEF9FC" d="M42.9,53.4c0.1-0.1,0.1-0.2,0.2-0.2C43.2,53.4,43.1,53.4,42.9,53.4z"/>
		<path fill="#EEF9FC" d="M43.2,53.1c0-0.1,0.1-0.1,0.2-0.2C43.4,53.1,43.3,53.2,43.2,53.1z"/>
		<path fill="#093C7E" d="M29.3,51.3c-0.1-0.1-0.2-0.1-0.3-0.2c0,0,0,0,0,0c0.1-0.1,0.2,0,0.3-0.1c-0.2,0-0.4-0.1-0.4-0.2
			c-0.1-0.2-0.3-0.2-0.4-0.3c-0.1-0.1-0.1-0.1-0.1-0.2c0.1-0.1,0.2,0,0.3,0.1c0.5,0.2,0.9,0.5,1.4,0.8c0.3,0.2,0.6,0.4,0.8,0.7
			c0.1,0.2,0.2,0.3,0.4,0.4c0.1,0.1,0.2,0.2,0.3,0.3c0,0.1,0.2,0.2,0.1,0.2c-0.1,0.1-0.3,0.1-0.4,0c-0.1-0.1-0.2-0.3-0.3-0.2
			c0,0-0.1,0-0.1-0.1c-0.1-0.1-0.1-0.2-0.3-0.2c0,0-0.1,0-0.1-0.1l0,0c-0.3-0.1-0.6-0.4-0.9-0.5C29.5,51.5,29.4,51.4,29.3,51.3z"/>
		<path fill="#0C3C7D" d="M31,52.4c0.1-0.1,0.2,0,0.3,0.1c0.1,0.2,0.3,0.2,0.5,0.2c0-0.1-0.1-0.1-0.1-0.2c0.1-0.1,0.2,0,0.3,0.1
			c0.7,0.6,1.3,1.3,1.8,2.1c0,0.1,0.1,0.1,0.1,0.2c0,0.3,0,0.3-0.4,0.1c-0.1,0-0.1-0.1-0.1-0.1c0,0,0-0.1-0.1-0.1
			c-0.1-0.1-0.2-0.1-0.2-0.3l0,0l0,0c-0.2-0.2-0.4-0.4-0.6-0.5c-0.1-0.1-0.2-0.2-0.3-0.4l0,0c-0.1-0.1-0.2-0.2-0.4-0.3
			c-0.3-0.2-0.5-0.5-0.8-0.7C31,52.5,31,52.5,31,52.4z"/>
		<path fill="#FAFCFB" d="M36,59.2c-0.2,0-0.1-0.2-0.3-0.2c0,0,0,0,0,0c0,0.1,0,0.2-0.1,0.3c-0.1,0-0.1-0.1-0.1-0.1
			c0-0.1-0.2-0.3,0.1-0.3c0.1,0,0.2-0.2,0-0.3c-0.1-0.1-0.2-0.2-0.2-0.3c0,0,0-0.1,0-0.1c-0.4,0.1-0.2-0.3-0.3-0.4
			c0,0,0-0.1-0.1-0.1c-0.3,0-0.2-0.2-0.1-0.3c0.1-0.1,0-0.1-0.1-0.1c-0.4,0.1-0.4-0.2-0.6-0.4c0.5,0,0.2-0.3,0.2-0.5
			c0.1,0,0.2,0.1,0.2,0.2c0.2,0.3,0.4,0.6,0.6,0.9c0,0.1,0.1,0.1,0.1,0.2c0,0,0,0,0,0.1c0.2,0.4,0.4,0.9,0.6,1.3
			C36,59.1,36,59.2,36,59.2z"/>
		<path fill="#0F3C79" d="M35.3,57.7C35.3,57.7,35.3,57.7,35.3,57.7c0-0.1-0.1-0.2-0.1-0.2c-0.2-0.4-0.4-0.8-0.7-1.2
			c-0.1-0.3-0.3-0.5-0.5-0.7c-0.1-0.1-0.2-0.2-0.3-0.3c-0.1-0.1-0.2-0.3-0.2-0.4c0.2-0.1,0.2,0.1,0.2,0.1c0.1-0.1,0.1-0.2,0.1-0.2
			c0.1,0,0.2,0.1,0.3,0.2c0.1,0.1,0.1,0.2,0.2,0.3c0,0,0,0,0,0.1c0,0,0.1,0.1,0.1,0.1c0,0,0,0,0,0.1c0,0,0.1,0.1,0.1,0.1
			c0,0,0,0,0,0.1c0.1,0.1,0.1,0.2,0.2,0.3c0,0,0,0,0,0.1c0.2,0.4,0.4,0.8,0.6,1.1c0,0.1,0.1,0.2,0.1,0.3
			C35.4,57.6,35.4,57.8,35.3,57.7z"/>
		<path fill="#FAFCFC" d="M36.8,61.6c-0.1,0-0.2,0-0.3,0c-0.1,0-0.2,0-0.2-0.1c0-0.3-0.3-0.6-0.1-0.9c0.1-0.1-0.1-0.4-0.2-0.5
			c-0.2-0.2-0.1-0.3,0-0.5c0,0,0.1,0,0.1,0c0.3,0.6,0.5,1.2,0.7,1.8C36.8,61.5,36.8,61.5,36.8,61.6z"/>
		<path fill="#F9FCFB" d="M31,52.4c0.4,0.4,0.9,0.7,1.2,1.1c-0.1,0.1-0.2,0.2-0.4,0c-0.2-0.2-0.3-0.4-0.7-0.4
			c0.1-0.1,0.2-0.1,0.2-0.2c0,0,0-0.1-0.1-0.1c-0.3,0.1-0.3-0.2-0.4-0.3c-0.1,0-0.1,0-0.2-0.1c-0.1-0.1-0.2-0.3-0.2-0.4
			c0,0,0.1,0,0.1,0C30.7,52.2,30.8,52.2,31,52.4C30.9,52.4,31,52.4,31,52.4z"/>
		<path fill="#214270" d="M36.8,61.6c-0.1-0.6-0.4-1.2-0.6-1.8c0,0,0-0.1,0-0.1c0-0.1,0-0.2,0.1-0.2c0.1,0.1,0.2,0.2,0.2,0.3
			c0.2,0.5,0.4,1.1,0.5,1.7c0.1,0.3,0.2,0.5,0.2,0.8c0,0.1,0,0.2-0.1,0.2c-0.2-0.1-0.1-0.2-0.1-0.3C36.9,61.9,36.9,61.8,36.8,61.6
			C36.8,61.6,36.8,61.6,36.8,61.6z"/>
		<path fill="#F9FCFC" d="M29.6,51.5c0.3,0.2,0.6,0.3,0.9,0.6c-0.1,0.1-0.3,0.1-0.3-0.1c-0.1,0.1-0.1,0.4-0.2,0c0-0.1-0.2,0-0.2-0.1
			c-0.3,0-0.4-0.3-0.3-0.5c0,0,0,0,0,0C29.5,51.5,29.5,51.7,29.6,51.5C29.6,51.5,29.6,51.5,29.6,51.5z"/>
		<path fill="#F9FCFA" d="M33.7,55.3c0.1,0.1,0.2,0.2,0.3,0.4c-0.2,0-0.5,0.1-0.7,0.2c-0.1-0.3,0-0.5,0.2-0.7
			C33.6,55.1,33.6,55.2,33.7,55.3z"/>
		<path fill="#093C7E" d="M28.8,51c-0.2,0-0.3-0.2-0.5-0.2c-0.2-0.1-0.4-0.1-0.5-0.2l0,0c-0.2-0.1-0.5,0-0.6-0.3
			c0-0.2,0.1-0.2,0.2-0.1c0.2,0.1,0.4,0.1,0.6,0.3c0.1,0.1,0.3,0.2,0.5,0.2C28.7,50.6,28.8,50.7,28.8,51C28.8,51,28.8,51,28.8,51z"
			/>
		<path fill="#F7FBFC" d="M27.2,50.3c0.2,0.1,0.4,0.1,0.6,0.3c-0.1,0-0.3,0-0.3,0.1c0,0,0,0.1-0.1,0.1c-0.1,0-0.2-0.1-0.2-0.1
			c0.1-0.3-0.2-0.2-0.3-0.3c0,0,0,0,0-0.1C27,50.2,27.1,50.2,27.2,50.3z"/>
		<path fill="#1E4378" d="M36.2,59.4c-0.1,0-0.1,0.1-0.1,0.2c0,0,0,0,0,0c0-0.1-0.1-0.2-0.1-0.3c0-0.1,0-0.1,0-0.2
			c0-0.1,0-0.2,0.1-0.2c0,0,0.1,0,0.1,0C36.2,59.1,36.3,59.2,36.2,59.4z"/>
		<path fill="#F3FAFB" d="M32.5,53.8c0.2,0.2,0.4,0.4,0.5,0.6C32.8,54.4,32.6,54.1,32.5,53.8C32.5,53.9,32.5,53.8,32.5,53.8z"/>
		<path fill="#FCFDF6" d="M30.7,52.5c0.1-0.1,0.2-0.1,0.2,0.1c0,0,0,0-0.1,0c-0.1,0.1,0,0.2-0.2,0.2c-0.1,0-0.1,0-0.1-0.1
			C30.5,52.6,30.7,52.6,30.7,52.5z"/>
		<path fill="#F3FAFB" d="M33.7,55.3c-0.1,0-0.1-0.1-0.2-0.1c0-0.2-0.2-0.1-0.3-0.1c0-0.1,0.1-0.1,0.1-0.2c0,0,0.1,0,0.1,0.1
			C33.5,55,33.6,55.1,33.7,55.3z"/>
		<path fill="#F9FCFB" d="M32.5,53.8C32.5,53.9,32.5,53.9,32.5,53.8c-0.2,0.1-0.2,0-0.2,0h0c-0.1-0.1-0.1-0.2-0.1-0.3
			C32.3,53.6,32.4,53.7,32.5,53.8z"/>
		<path fill="#F7FBFC" d="M27.8,50.6c0.2,0,0.4,0.1,0.5,0.2C28.1,50.8,27.9,50.8,27.8,50.6z"/>
		<path fill="#F9FCFB" d="M32.3,53.8c-0.1,0.3-0.2,0.1-0.3,0C32.1,53.7,32.2,53.8,32.3,53.8L32.3,53.8z"/>
		<path fill="#F9FCFC" d="M29.3,51.3c0.1,0,0.3,0.1,0.4,0.2l0,0c-0.1,0.1-0.2,0-0.3-0.1C29.3,51.4,29.3,51.3,29.3,51.3z"/>
		<path fill="#F3FAFB" d="M33,54.4c0.1,0.1,0.2,0.1,0.2,0.3C33.1,54.7,33,54.6,33,54.4z"/>
		<path fill="#FAFCFC" d="M36,60.6C36,60.6,36,60.6,36,60.6c-0.1-0.1,0-0.2,0-0.2C36.1,60.4,36.1,60.5,36,60.6
			C36.1,60.6,36.1,60.6,36,60.6z"/>
		<path fill="#093C7E" d="M29,51.1c-0.1,0-0.2-0.1-0.2-0.1l0,0C28.9,50.8,29,50.9,29,51.1L29,51.1z"/>
		<path fill="#F9FCFA" d="M33.7,55.7C33.7,55.8,33.7,55.8,33.7,55.7C33.7,55.8,33.7,55.8,33.7,55.7C33.6,55.8,33.6,55.8,33.7,55.7
			C33.6,55.8,33.6,55.8,33.7,55.7z"/>
		<path fill="#F9FCFB" d="M31.2,53.6C31.2,53.7,31.3,53.7,31.2,53.6C31.3,53.7,31.3,53.7,31.2,53.6C31.2,53.7,31.2,53.7,31.2,53.6
			C31.2,53.7,31.2,53.6,31.2,53.6z"/>
		<path fill="#FEFEFE" d="M35.4,26.9C35.4,26.9,35.4,26.9,35.4,26.9c0.2-0.1,0.2,0,0.3,0.1c0-0.2,0-0.3,0-0.5c0-0.1,0.1-0.2,0-0.3
			c0-0.2,0-0.3,0-0.5c0.1-0.2,0.1-0.3,0-0.5c-0.1-0.3-0.1-0.6,0-0.9c0-0.2,0.1-0.3,0.1-0.5c0-0.2,0.2-0.3,0.4-0.3
			c0.2,0,0.2,0.1,0.2,0.3c0,0.1-0.1,0.2,0.1,0.2c0.2,0,0.2-0.1,0.1-0.2c0-0.3,0-0.6-0.1-0.9c-0.1-0.5,0-0.9,0-1.4
			c0-0.3,0-0.6,0.1-0.9c0.1-0.2,0-0.5-0.1-0.8c-0.1-0.2,0-0.3,0-0.5c0.1-0.2,0.1-0.3-0.1-0.5c-0.1-0.1,0-0.1,0-0.2
			c0.1-0.2,0.1-0.4,0.1-0.6c-0.1-0.2-0.1-0.4,0-0.6c0.1-0.2,0-0.4,0-0.6c0-0.1,0-0.2,0.1-0.3c0.1,0,0.1,0.1,0.1,0.1
			c0,0.1,0,0.2,0,0.3c0,7.8,0,15.7,0,23.5c0,0.2,0,0.4,0.1,0.5c0,0.1,0.1,0.2,0,0.3c-0.2,0.3-0.1,0.6-0.1,0.9c0,0.9,0,1.8,0,2.7
			c0,0.2-0.1,0.4,0,0.6c0,0.1-0.1,0.2-0.2,0.2c-0.1,0.1-0.1-0.1-0.2-0.1c-0.2-0.3-0.5-0.6-0.9-0.8c-0.1-0.1-0.4-0.1-0.5,0
			c-0.1,0-0.2,0-0.2,0c-0.1-0.1-0.1-0.2-0.1-0.2c0.1-0.4-0.2-0.4-0.4-0.5c-0.4-0.1-0.7-0.2-0.6-0.7c0,0.2,0,0.2,0,0.3
			c0,0.1,0.1,0.2,0,0.3c-0.1,0.1-0.2,0-0.3,0c-0.1,0-0.2-0.1-0.2-0.2c0,0,0-0.1,0-0.1c0-0.2,0.1-0.4,0-0.6c0-0.2,0-0.4,0.2-0.5
			c0.1-0.1,0-0.3,0.1-0.4c0-0.2,0-0.4,0-0.6c0-0.3,0-0.6,0.1-0.9c0,0,0-0.1,0-0.1c0,0,0.1-0.1,0.1-0.1c-0.1-0.4,0.2-0.8,0.1-1.2
			c0-0.1,0-0.2,0.1-0.4c0.1-0.3-0.1-0.6,0.1-0.9c0,0,0-0.1,0-0.1c0.1-0.2,0.1-0.5,0.1-0.8l0,0c0.2-0.3,0.1-0.6,0-1
			c0-0.1,0-0.2,0.1-0.3c0,0,0,0,0,0c0.1-0.2,0-0.3,0.1-0.5c0.1-0.1,0.1-0.3,0.1-0.4c0.1-0.2,0-0.5,0.1-0.7c0-0.1,0-0.2,0.1-0.2l0,0
			c0-0.2,0-0.3,0-0.5c0-0.1,0.1-0.1,0.1-0.2c0-0.4,0.1-0.9,0.2-1.3c0-0.4,0.1-0.8,0.2-1.2c0.1-0.4,0.1-0.8,0.2-1.2
			c0.1-0.4,0-0.9,0.1-1.3c0.1-0.3,0.1-0.7,0.1-1C35.3,27,35.3,27,35.4,26.9z"/>
		<path fill="#FEFDFA" d="M37.3,16.6c0,7.8,0,15.6,0,23.4c0,0,0,0-0.1,0C37.3,32.2,37.3,24.4,37.3,16.6
			C37.3,16.6,37.3,16.6,37.3,16.6z"/>
		<path fill="#F2F8FA" d="M37.4,47.4c0.2-0.1,0.1-0.3,0.1-0.4c0-2,0-3.9,0-5.9c0-9.5,0-19,0-28.6c0-0.3,0-0.6,0-0.8
			c0-0.1,0-0.2-0.1-0.2c0,0,0-0.1,0-0.1c0-0.1,0-0.1,0.1-0.2c0-0.1,0-0.1,0-0.2c0.1,0,0.1,0,0.2,0c0.1,0.1,0.1,0.2,0,0.3
			c-0.1,0.5,0,1,0,1.5c0,9.1,0,18.1,0,27.2c0,2.1,0,4.3,0,6.4c0,0.3,0.1,0.7,0,1c0,0.1,0,0.1-0.1,0.1C37.4,47.6,37.4,47.5,37.4,47.4
			z"/>
		<path fill="#6A718D" d="M37.6,40c0-1.6,0-3.2,0-4.8c0-8,0-15.9,0-23.9c0-0.1,0-0.2,0-0.3c-0.1-0.1,0-0.3,0-0.4
			c0.1,0.1,0,0.3,0.1,0.4c0,0.2,0.1,0.4,0.1,0.6c-0.2,0-0.1,0.2-0.1,0.3c0,1.3,0,2.6,0,3.8C37.6,23.8,37.6,31.9,37.6,40
			C37.6,40,37.6,40,37.6,40z"/>
		<path fill="#213C65" d="M36.1,19.9c0.1-0.8,0.3-1.6,0.3-2.4c0.1-0.4,0.1-0.8,0.2-1.2c0-0.1,0-0.2,0.1-0.3c0.1,0,0.1,0,0.1,0.1
			c0,0.3,0,0.6,0,0.9c-0.1,0.8-0.2,1.7-0.3,2.5c0,0.2,0,0.3-0.1,0.4C36.1,20.1,36.1,20,36.1,19.9z"/>
		<path fill="#0F3D7D" d="M36.7,46.8c-0.4-0.4-0.8-0.8-1.2-1.1c-0.1-0.1,0.2,0,0-0.1c-0.1,0-0.1-0.1-0.1-0.2c0.3,0,0.4,0.2,0.6,0.5
			c0.2,0.3,0.5,0.6,0.7,0.9C36.8,46.7,36.8,46.8,36.7,46.8z"/>
		<path fill="#F0F8FA" d="M36.7,17c0-0.3,0.1-0.6,0.1-0.9c0-0.1,0-0.3,0-0.4c0-0.2,0.1-0.4,0.1-0.7c0-0.1,0-0.3,0.1-0.4
			c0-0.1,0-0.2,0-0.3c0,0,0,0,0.1,0c0.1,0.5-0.1,0.9-0.1,1.3c0,0.3-0.2,0.6-0.1,0.9c0,0.1,0,0.2,0,0.3C36.7,16.9,36.8,17.1,36.7,17z
			"/>
		<path fill="#224572" d="M36.7,46.8c0.1,0,0.1-0.1,0.1-0.1c0.3,0.2,0.4,0.5,0.6,0.8c0,0.1,0,0.1,0.1,0.2c0,0,0.1,0,0.1,0.1
			c0,0-0.1,0.1-0.1,0.1C37.2,47.5,37,47.1,36.7,46.8z"/>
		<path fill="#F2F8FA" d="M37.3,11.4C37.3,11.4,37.3,11.4,37.3,11.4c0.1,0.1,0,0.2,0.1,0.2c0,0.1,0,0.3-0.1,0.4
			c-0.1-0.1,0-0.2,0-0.2c0,0.1,0,0.2,0,0.3c0,0.4,0,0.8-0.2,1.2c0,0,0-0.1,0-0.1c0,0,0,0,0-0.1c-0.1-0.1,0-0.2,0.1-0.3
			C37.2,12.4,37.1,11.9,37.3,11.4L37.3,11.4z"/>
		<path fill="#F7FBFB" d="M36.1,45.8c-0.2-0.1-0.3-0.4-0.6-0.5c0,0,0,0-0.1,0c-0.1-0.1-0.1-0.1-0.2-0.2c0,0,0,0,0-0.1
			c0.2-0.1,0.3,0.2,0.5,0.2c0.1,0,0.2,0.1,0.3,0C35.8,45.5,36.1,45.6,36.1,45.8z"/>
		<path fill="#F5F9FC" d="M37.7,11.5c-0.1-0.2,0-0.4-0.1-0.6c0,0,0,0,0.1,0c0,0.2-0.1,0.5,0.2,0.6c0,0,0.1,0.3,0,0.4
			c-0.1,0.1,0,0.2-0.1,0.3c-0.2-0.1,0-0.3-0.1-0.4C37.7,11.7,37.7,11.6,37.7,11.5z"/>
		<path fill="#F7FBFB" d="M34.9,44.7c0.1,0,0.2,0,0.2,0.1c0.1,0.1,0.2,0.2,0.1,0.3l0,0c-0.2,0-0.2-0.1-0.4-0.2c0,0,0,0-0.1,0
			c0,0-0.1-0.1,0-0.1C34.8,44.7,34.9,44.7,34.9,44.7z"/>
		<path fill="#374C66" d="M36.9,15c0,0.2,0,0.5-0.1,0.7c-0.1,0,0-0.1-0.1-0.2C36.8,15.3,36.8,15.1,36.9,15C36.9,15,36.9,15,36.9,15z
			"/>
		<path fill="#2D4564" d="M36.7,15.5c0.1,0.1,0,0.1,0.1,0.2c0,0.1,0,0.3-0.1,0.4c0,0,0-0.1-0.1-0.1C36.6,15.9,36.7,15.7,36.7,15.5z"
			/>
		<path fill="#95A0C4" d="M37.5,10.6c0,0.1,0,0.3,0,0.4c0,0-0.1,0-0.1,0c-0.2-0.1,0.1-0.2,0.1-0.3C37.5,10.6,37.4,10.6,37.5,10.6
			L37.5,10.6z"/>
		<path fill="#26364F" d="M36.9,15C36.9,15,36.9,15,36.9,15c0-0.2-0.1-0.4,0-0.5c0,0,0,0,0.1,0.1C36.9,14.8,36.9,14.9,36.9,15z"/>
		<path fill="#69728B" d="M37.1,13.2c0,0,0,0.1,0,0.1c0,0.1,0,0.2-0.1,0.2C37,13.4,37,13.3,37.1,13.2z"/>
		<path fill="#FEFEFE" d="M36.2,18.4c-0.1,0-0.2,0-0.2,0c0.1-0.1,0.1-0.2,0.2-0.2C36.2,18.3,36.2,18.4,36.2,18.4z"/>
		<path fill="#FEFEFE" d="M37.3,11.4c-0.1,0-0.1-0.1-0.1-0.2c0,0,0,0,0.1,0C37.3,11.3,37.2,11.3,37.3,11.4L37.3,11.4z"/>
		<path fill="#54637D" d="M37,14c0-0.2-0.1-0.3,0.1-0.4C37.1,13.8,37,13.9,37,14z"/>
		<path fill="#566075" d="M37.5,10.6c-0.1,0-0.1,0.1-0.1,0.1c-0.1-0.1-0.1-0.2,0-0.2C37.5,10.4,37.5,10.5,37.5,10.6z"/>
		<path fill="#5F6874" d="M37.3,12.1c-0.1-0.1,0-0.2,0-0.4C37.3,11.8,37.3,12,37.3,12.1C37.3,12.1,37.3,12.1,37.3,12.1z"/>
		<path fill="#5E657D" d="M37.2,12.9c0,0.1,0,0.2-0.1,0.3C37,13.1,37,12.9,37.2,12.9z"/>
		<path fill="#B5BDC7" d="M37.4,11.2c0,0.1,0,0.1-0.1,0.2c0,0,0,0-0.1,0C37.3,11.3,37.3,11.2,37.4,11.2z"/>
		<path fill="#586B81" d="M37,14.3L37,14.3L37,14.3c-0.1,0-0.1,0-0.1,0c0-0.1-0.1-0.2,0.1-0.2C37.1,14.2,37,14.3,37,14.3z"/>
		<path fill="#FEFEFE" d="M36.1,17.3C36.2,17.3,36.2,17.3,36.1,17.3c0,0.1,0,0.1,0,0.1C36.1,17.4,36.1,17.4,36.1,17.3
			C36.1,17.3,36.1,17.3,36.1,17.3z"/>
		<path fill="#5C6270" d="M37.3,11.4C37.3,11.4,37.4,11.4,37.3,11.4c0.1,0,0.1,0.1,0.1,0.1c0,0.1,0,0.1,0,0.2
			C37.3,11.6,37.3,11.5,37.3,11.4C37.3,11.4,37.3,11.4,37.3,11.4z"/>
		<path fill="#FEFEFE" d="M36.3,16.8C36.4,16.8,36.4,16.8,36.3,16.8C36.4,16.9,36.3,16.9,36.3,16.8C36.3,16.9,36.3,16.9,36.3,16.8
			C36.3,16.8,36.3,16.8,36.3,16.8z"/>
		<path fill="#24344C" d="M36.9,14.3C36.9,14.3,36.9,14.3,36.9,14.3c0.1,0.1,0,0.2,0,0.3c0,0,0,0-0.1-0.1
			C36.9,14.5,36.9,14.4,36.9,14.3z"/>
		<path fill="#073B7F" d="M29,51.1c-0.1-0.1-0.1-0.2-0.2-0.1c0-0.4-0.4-0.2-0.6-0.4c-0.2-0.1-0.5-0.2-0.7-0.3
			c-0.1-0.1-0.2-0.1-0.2,0.1c-0.1,0-0.1,0-0.2,0c0,0,0,0,0,0c-0.3-0.2,0-0.2,0.1-0.2l0,0c0.1-0.1,0.2-0.1,0.3-0.1
			c0.1,0,0.1-0.1,0.2-0.1c0.2-0.1,0.4-0.1,0.7-0.2c0.1,0,0.2,0,0.3,0.1c0,0.1-0.1,0.1-0.2,0.2c0,0.1-0.2,0-0.1,0.2
			c0.1,0,0.2,0.1,0.2,0.2c0,0.2,0.3,0.2,0.4,0.3c0,0,0.1,0,0.1,0.1c0.1,0.3,0.2,0.3,0.5,0.2C29.4,51.1,29.2,51.1,29,51.1z"/>
		<path fill="#0C3D7E" d="M28.4,49.7c0-0.1-0.1-0.1-0.2-0.1c-0.1-0.1-0.2-0.1-0.1-0.2c0.3-0.2,0.7-0.4,0.9-0.7c0,0,0.1,0,0.1-0.1
			c0,0,0,0,0,0.1c0,0.1,0,0.1,0,0.2c0,0.1-0.1,0.1-0.1,0.2c0.1,0.1,0.2,0.1,0.3,0.1c0,0.2-0.3,0.2-0.4,0.4c0,0,0,0-0.1,0
			C28.8,49.7,28.6,49.8,28.4,49.7C28.4,49.7,28.4,49.7,28.4,49.7C28.4,49.7,28.4,49.7,28.4,49.7z"/>
		<path fill="#123D7A" d="M28.1,49.4c0,0.1,0.1,0.2,0.1,0.2c-0.2,0.1-0.5,0.1-0.7,0.1C27.7,49.6,27.9,49.5,28.1,49.4z"/>
		<path fill="#1F457A" d="M27,50c0,0.1-0.2,0.1-0.1,0.2c-0.1,0-0.2-0.1-0.3-0.1C26.8,50.1,26.9,50,27,50z"/>
		<path fill="#1F457A" d="M27.3,49.9C27.2,50,27.1,50,27,50C27.1,49.9,27.2,49.9,27.3,49.9z"/>
		<path fill="#FAFCFC" d="M37.4,63.9c0,0,0-0.1,0-0.1c-0.1-0.1-0.1-0.3-0.2-0.5c0-0.2,0-0.3-0.1-0.5c0,0,0-0.1,0-0.1
			c0-0.1,0-0.2,0.1-0.3c0.2-0.1,0.1-0.3,0.1-0.4c0-1.1,0-2.2,0-3.2c0-0.4,0-0.8,0-1.2c0-0.4,0-0.8,0-1.2c0-0.2,0-0.3,0-0.5
			c0-0.7,0-1.3,0-2c0-0.3,0-0.6,0-0.8c0-0.5,0-1,0-1.4c0-0.3,0-0.5,0-0.8c0-0.2-0.1-0.5-0.4-0.5c-0.3-0.1-0.2-0.4-0.3-0.7
			c0-0.1,0-0.2-0.1-0.2c-0.3-0.1-0.3-0.2-0.2-0.4c-0.1,0.1-0.1,0.3-0.3,0.4c-0.1,0-0.1,0-0.1-0.1c0-0.2-0.1-0.4,0.1-0.6
			c0,0,0,0,0-0.1c-0.1,0-0.2,0.2-0.3,0c-0.1-0.1-0.2-0.3-0.1-0.4c0-0.1,0.1-0.1,0.2-0.2c0.2-0.1,0.2,0.1,0.3,0.2
			c0.1,0.1,0.1,0.2,0.2,0.3c0.3,0.4,0.5,0.8,0.8,1.2c0.1,0.1,0.1,0.2,0.2,0.4c0,0.1,0.1,0.2,0.2,0.2c0.1,0.2,0.1,0.3,0.1,0.5
			c0,2.2,0,4.4,0,6.6c0,0.1,0,0.1,0,0.2c-0.1,0.2,0,0.3,0,0.5c0,1.8,0,3.6,0,5.4c0,0.1,0,0.3,0,0.4c0,0,0,0.1,0,0.1
			C37.4,64.1,37.5,63.9,37.4,63.9z"/>
		<path fill="#113C7D" d="M37.7,64.2c-0.2,0-0.1,0.3-0.3,0.3c-0.1,0,0-0.1,0-0.1c0.1-0.1,0-0.2,0.1-0.3l0,0c0,0,0-0.1,0-0.1
			c0,0,0.1-0.1,0.1-0.1c0,0,0.1,0,0.1,0.1C37.7,64,37.7,64.1,37.7,64.2z"/>
		<path fill="#2E4A70" d="M37.2,62.8C37.2,62.8,37.2,62.8,37.2,62.8C37.2,62.8,37.2,62.8,37.2,62.8c-0.2,0-0.1-0.2-0.2-0.3
			c0,0,0,0,0-0.1c0,0,0,0,0-0.1c0.1,0,0-0.1,0.1-0.2c0.1,0,0.1,0.1,0.1,0.1C37.3,62.4,37.2,62.6,37.2,62.8z"/>
		<path fill="#253255" d="M37.3,63.3c0.2,0.1,0.1,0.3,0.2,0.5C37.2,63.7,37.3,63.5,37.3,63.3C37.2,63.3,37.2,63.3,37.3,63.3z"/>
		<path fill="#FEFEFE" d="M36.9,63.4c0.2,0.2,0.1,0.3,0.1,0.5C36.9,63.7,36.9,63.6,36.9,63.4z"/>
		<path fill="#374E72" d="M37.3,63.3L37.3,63.3L37.3,63.3C37.2,63.3,37.2,63.3,37.3,63.3c-0.1-0.1-0.1-0.3-0.1-0.3c0,0,0,0,0-0.1
			c0,0,0,0,0-0.1c0,0,0,0,0.1,0C37.3,63,37.4,63.1,37.3,63.3z"/>
		<path fill="#253657" d="M37.5,64.1c0,0.1,0,0.2-0.1,0.3c0-0.2-0.1-0.3,0-0.5C37.5,63.9,37.4,64,37.5,64.1z"/>
		<path fill="#F2F5F7" d="M37,62.4C37,62.4,37,62.4,37,62.4c-0.2,0-0.1-0.2-0.1-0.3C36.9,62.2,37,62.3,37,62.4z"/>
		<path fill="#F2F5F7" d="M37.1,62.8C37.1,62.8,37.1,62.9,37.1,62.8C37,62.8,37,62.6,37,62.5C37.1,62.6,37.1,62.7,37.1,62.8z"/>
		<path fill="#FEFEFE" d="M36.9,63.2c0-0.1,0-0.1,0.1-0.2c0,0,0,0,0,0C37,63.1,37,63.1,36.9,63.2C37,63.2,36.9,63.2,36.9,63.2z"/>
		<path fill="#F2F5F7" d="M37.1,62.9c0.1,0.1,0.1,0.2,0.1,0.3C37.1,63.1,37.1,63.1,37.1,62.9z"/>
		<path fill="#063A81" d="M48,50c0,0.1,0.1,0.1,0.1,0.2c0,0-0.1,0-0.1,0c-0.1,0-0.3,0-0.4,0.1l0,0c-0.1,0.1-0.3,0-0.4,0.1
			c-0.1,0-0.1,0.1-0.2,0.1c-0.1,0-0.2,0-0.3,0.1c0,0-0.1,0-0.1,0c-0.1,0-0.1,0-0.1-0.1c0-0.4,0-0.4,0.4-0.5c0.2,0,0.3-0.2,0.5-0.2
			c-0.2-0.1-0.4,0-0.5,0c-0.2,0-0.3-0.1-0.3-0.2c0-0.2-0.2-0.2-0.3-0.2c-0.1,0-0.2,0-0.3-0.1c-0.1-0.2,0.1-0.2,0.2-0.3
			c0,0,0.1-0.1,0.2,0c0.2,0.1,0.4,0.3,0.7,0.4C47.3,49.7,47.7,49.8,48,50z"/>
		<path fill="#013A81" d="M46.2,49c0,0-0.1,0.1-0.1,0.1c-0.1,0.1-0.1,0.2,0.1,0.2c0.1,0,0.2,0,0.3,0c0.1,0,0.1,0,0.1,0.1
			c0.1,0.3,0.2,0.4,0.5,0.3c0.2-0.1,0.3,0,0.5,0.1c-0.3-0.1-0.5,0.4-0.9,0.2c-0.1,0-0.2,0.1-0.1,0.2c0.1,0.1,0,0.1,0,0.2
			c-0.2,0.1-0.3,0.3-0.6,0.2c-0.1,0-0.3,0-0.2,0.2c0,0.1-0.1,0.1-0.1,0.1l0,0c-0.1,0-0.2,0.1-0.2,0c0,0-0.1,0-0.1-0.1c0,0,0,0,0,0.1
			c0,0.1-0.2,0.1-0.2,0.3c-0.1,0.1-0.2,0.2-0.3,0.2l0,0l0,0c-0.1-0.1-0.3-0.2-0.4,0c-0.2,0.2-0.5,0.2-0.6,0.5
			c-0.1,0.1-0.2,0.1-0.3,0.1c-0.1,0-0.2,0.1-0.1,0.1c0.2,0.2,0,0.2,0,0.4c-0.1,0-0.2,0-0.3,0c-0.1,0-0.1-0.1-0.2,0
			c0,0.1-0.1,0.1,0,0.2c0.1,0.2,0,0.3-0.1,0.4c0-0.1-0.1-0.2,0-0.3c0-0.1,0.1-0.1,0-0.2c-0.1,0-0.2,0-0.2,0c0,0-0.2,0.1-0.1,0.2
			c0.1,0.1,0,0.2,0,0.2c0,0,0,0,0,0c0,0,0,0,0,0c0,0,0,0,0,0c0,0,0,0,0,0c0,0.1,0.4,0.2,0,0.3c-0.1,0-0.1,0.1,0,0.2
			c-0.3,0.1-0.4,0.4-0.5,0.7l0,0c-0.1,0.1-0.2,0.2-0.2,0.3c-0.3,0.5-0.6,0.9-0.9,1.4c-0.2,0.2-0.3,0.5-0.6,0.6
			c0,0.1-0.1,0.3-0.1,0.4c0,0.1,0,0.1-0.1,0c-0.3-0.2-0.3,0-0.2,0.2c0.1,0.3-0.1,0.6-0.1,0.9c-0.1,0-0.2-0.1-0.2-0.2
			c0-0.1,0-0.1-0.1-0.1c0,0-0.1,0-0.1,0c0,0.1-0.2,0.3-0.1,0.4c0.1,0.2,0.1,0.4,0,0.6c0,0.3-0.3,0.5-0.3,0.8c0,0.3-0.2,0.5-0.2,0.8
			c-0.1,0-0.1,0-0.2,0.1c-0.1,0-0.2,0,0,0.1c0,0,0,0.2,0,0.2c0,0.1-0.1,0-0.2,0c-0.1,0-0.2,0-0.2,0.1c0,0.1-0.1,0.2,0.1,0.2
			c0.1,0,0.1,0,0.1,0c-0.1,0.3-0.2,0.6-0.2,0.9C38,62.4,38,62.5,38,62.5c-0.1,0.3-0.1,0.6-0.2,0.9c-0.1,0-0.2,0-0.2-0.1
			c0-0.1,0-0.1,0-0.2c0.1-0.2,0-0.5,0.1-0.7c0-0.1-0.1-0.1-0.1-0.2c0-0.1,0-0.3,0-0.4c0-0.1,0.1-0.2,0-0.3c0,0,0-0.1,0-0.1
			c0.1-0.2,0-0.4,0.1-0.5c0,0.1,0,0.2-0.1,0.2c0,0,0-0.1,0-0.1c0-1.1,0-2.1,0-3.2c0.1-0.1,0.1-0.3,0.1-0.4c0-2.2,0-4.4,0-6.7
			c0-0.2-0.1-0.3,0-0.5c0.1-0.2,0.3-0.2,0.2-0.4c0.3-0.1,0.3-0.4,0.4-0.6c0,0,0,0,0,0c0.4-0.1,0.3-0.3,0.2-0.6
			c0-0.1-0.1-0.3,0.1-0.3c0.2-0.1,0.1-0.2,0.2-0.3c0.2,0,0.1-0.2,0.1-0.3l0,0c0.2,0,0.1-0.2,0.2-0.3c0,0,0,0,0.1-0.1
			c0.1-0.1,0.3-0.2,0.3-0.3c0.1-0.1,0.3,0,0.3-0.3c0.3,0,0.2-0.3,0.4-0.4c0.1-0.1,0.2-0.2,0.3-0.1c0,0,0.1,0,0.1,0
			c0-0.4,0.4-0.3,0.6-0.6c0,0,0,0,0-0.1c0.2-0.1,0.5-0.3,0.7-0.3c0.1,0,0.1,0,0.2,0c0.1,0.1,0.2,0.1,0.3,0c0.3-0.1,0.4-0.1,0.5,0.2
			c0.1,0.3,0.4,0.5,0.5,0.8c0,0.1,0.1,0.1,0.1,0.2c-0.1,0.1,0,0.1,0.1,0.1c0,0,0.1,0,0.1,0c0,0,0,0,0,0.1c0,0.1,0,0.2-0.1,0.3
			c0,0.1,0,0.2,0,0.3c0,0.1,0.1,0.1,0.1,0.1c0.2,0.1,0.4,0,0.6,0.1c0.1,0.1,0,0.2,0,0.3c0,0.1,0.1,0.2,0.2,0.3c0,0,0.1,0.1,0.1,0.1
			c-0.1,0-0.1,0-0.2-0.1c0,0,0-0.1,0-0.1c0.1-0.1,0.3-0.1,0.4,0c0.1,0.1,0.3,0.2,0.5,0.3c0.1,0.2,0.2,0.3,0.4,0.4
			c0.1,0.1,0,0.2,0,0.3c0.1,0,0.1-0.1,0.2-0.1C46.1,48.9,46.2,48.9,46.2,49z"/>
		<path fill="#0A3B7F" d="M36.4,48.6c-0.2-0.1-0.2-0.4-0.4-0.5c0,0,0,0,0,0c-0.2-0.2-0.5-0.5-0.7-0.7c-0.3-0.2-0.5-0.5-0.8-0.6
			c-0.1-0.1-0.2-0.1-0.3-0.3c0,0,0-0.1,0-0.1c0.2,0,0.2-0.1,0.2-0.2c0.5,0.2,0.7,0.6,1.1,0.9c0.2,0.1,0.3,0.2,0.3,0.4
			c0,0.1,0.1,0.1,0.1,0.1c0.1,0,0.1,0.2,0.2,0.2c0.1,0.2,0.2,0.5,0.4,0.6C36.6,48.6,36.6,48.6,36.4,48.6z"/>
		<path fill="#0A3974" d="M37.7,50.2c0,2.4,0,4.9,0,7.3c0,0.1,0.1,0.3-0.1,0.3c-0.1-0.1,0-0.1,0-0.2c0-1.8,0-3.7,0-5.5
			c0-0.4,0-0.9,0-1.3c0-0.2,0-0.4-0.1-0.6c0-0.1,0-0.1,0.1-0.1C37.6,50.2,37.6,50.2,37.7,50.2C37.7,50.2,37.7,50.2,37.7,50.2z"/>
		<path fill="#073B80" d="M34.9,44.8C34.9,44.8,34.9,44.8,34.9,44.8c0.2,0.2,0.4,0.3,0.6,0.5c0,0,0,0,0,0c0,0.1,0.1,0.1,0.1,0.2
			c0.1,0.1,0,0.1-0.1,0.1l0,0c-0.1-0.1-0.2-0.2-0.3-0.2l0,0c0,0-0.1-0.1-0.1-0.1c0,0,0-0.2-0.1,0c0,0,0,0-0.1,0
			c-0.1-0.1-0.1-0.1-0.2-0.1c0,0-0.1,0-0.1-0.1c0,0,0-0.2-0.1-0.1c0,0,0,0-0.1,0c0-0.1-0.1-0.1-0.2-0.1c-0.1,0-0.2-0.1-0.3-0.1
			c-0.1-0.2-0.3-0.2-0.5-0.2c-0.1,0-0.2,0-0.2-0.2c0-0.1,0.1-0.1,0.2-0.1c0.2,0.1,0.3,0,0.3-0.2c0.1-0.1,0.2,0,0.3,0
			c0.2,0.1,0.4,0.2,0.6,0.4C34.7,44.6,34.7,44.8,34.9,44.8z"/>
		<path fill="#063B7E" d="M37.7,50.2C37.7,50.2,37.7,50.2,37.7,50.2c0.2-0.8,0.6-1.5,1-2.1c0,0,0,0,0.1,0c0,0.1,0,0.1,0,0.2
			c0.1,0.2,0,0.2-0.1,0.2c-0.2,0-0.2,0.1-0.1,0.2c0.2,0.2,0.1,0.4,0.1,0.7c-0.3-0.1-0.4,0-0.5,0.6c-0.1,0-0.1-0.2-0.2-0.1
			C37.8,50,38,50,38,50.1C38,50.2,37.9,50.4,37.7,50.2z"/>
		<path fill="#083C7D" d="M41.2,45.7c0,0.1,0.1,0.2,0,0.2c-0.2,0-0.2,0.3-0.5,0.3c-0.1,0,0,0.2,0,0.3c-0.3-0.1-0.5-0.2-0.6,0.3
			c0,0.1-0.1,0.3-0.3,0.1c0,0.1,0.1,0.2,0,0.3c-0.3-0.2-0.4,0.1-0.5,0.2c-0.1,0.1-0.1,0.2-0.2,0.1C39.7,46.7,40.4,46.1,41.2,45.7z"
			/>
		<path fill="#0A3D7A" d="M43.6,46.5c-0.2-0.2-0.2-0.4-0.4-0.5c-0.1,0-0.1-0.1-0.1-0.2c-0.1-0.4-0.3-0.4-0.6-0.2
			c-0.1,0.1-0.2,0.1-0.2-0.1c0,0,0,0,0,0c0,0,0.1,0,0.1,0c0,0-0.1,0-0.1,0c0,0,0,0,0,0c0.6-0.1,0.6-0.1,1,0.4c0,0.1,0.1,0.1,0.1,0.2
			c0.1,0.1,0.2,0.2,0.2,0.3c0,0,0,0,0,0.1c0.1,0.1,0.2,0.2,0.2,0.3c0,0-0.1,0-0.1,0C43.7,46.5,43.6,46.5,43.6,46.5z"/>
		<path fill="#6170A3" d="M37.5,47.7c0,0,0-0.1,0-0.1c0,0,0,0,0.1-0.1c0.1-0.3,0-0.6,0.1-0.8c0.1,0,0.2,0,0.2,0.1
			c0.1,0.1,0.2,0.2,0.3,0.1C37.9,47.2,37.8,47.5,37.5,47.7C37.5,47.8,37.5,47.7,37.5,47.7z"/>
		<path fill="#1B4179" d="M36.4,48.6c0.1,0,0.1-0.1,0.1-0.2c0.3,0.4,0.5,0.8,0.7,1.2c0,0.1,0,0.1-0.1,0.1
			C36.9,49.4,36.7,49,36.4,48.6z"/>
		<path fill="#F8FBFB" d="M45.2,47.9c0,0.2,0.2,0.2,0.2,0.4c-0.2,0-0.2-0.1-0.3-0.2c-0.2-0.2-0.4-0.4-0.6-0.6
			c-0.1-0.2-0.4-0.4-0.5-0.7c0,0,0-0.1,0.1-0.1c0.1,0.3,0.4,0.4,0.5,0.6C44.7,47.5,45,47.7,45.2,47.9z"/>
		<path fill="#0C3C7C" d="M33.3,44.4c0,0.2,0.2,0.1,0.3,0.1c0.2,0,0.4,0.1,0.4,0.3c-0.4-0.1-0.9-0.3-1.3-0.4c0,0,0,0,0,0
			c0,0,0,0,0,0c0,0,0-0.1,0.1-0.1C32.9,44.2,33,44.4,33.3,44.4z"/>
		<path fill="#F7FAF7" d="M35.8,47.4c-0.1-0.1-0.2-0.2-0.3-0.4c0.1,0,0.2-0.1,0.2-0.2c0.1,0.2,0.2,0.4,0.4,0.4
			c0.1,0,0.1,0.1,0.1,0.2c0,0.1-0.1-0.1-0.1,0C36,47.3,35.9,47.3,35.8,47.4z"/>
		<path fill="#65719A" d="M38.3,46.7c0-0.5,0-0.5,0.5-0.5C38.7,46.4,38.5,46.6,38.3,46.7z"/>
		<path fill="#F3F7F8" d="M39.7,45.6c0.1-0.2,0.2-0.2,0.4-0.3c0-0.1,0.1-0.1,0.2-0.1c0,0,0.1,0,0.1,0c0-0.1,0.1-0.1,0.2-0.1
			c0,0,0,0,0.1,0C40.3,45.4,40,45.5,39.7,45.6z"/>
		<path fill="#65709C" d="M41.2,44.7c0-0.2,0.2-0.4,0.3-0.3c0.1,0.1,0.2,0,0.3,0.1C41.6,44.6,41.4,44.6,41.2,44.7z"/>
		<path fill="#FCFEF5" d="M38,48.3c0-0.1-0.1-0.3,0-0.3c0,0,0.1,0,0.1,0C38.2,48.2,38.1,48.2,38,48.3z"/>
		<path fill="#EFF8FA" d="M44.1,46.6c0,0,0,0.1,0,0.1c-0.1,0-0.2-0.1-0.2-0.2l0,0c-0.1-0.1-0.1-0.2-0.2-0.3c0.1,0,0.2,0.2,0.3,0.2
			c0,0,0.1,0,0.1,0.1C43.9,46.6,44,46.6,44.1,46.6z"/>
		<path fill="#193560" d="M32.8,43c0,0.2,0,0.3,0,0.5c0,0.1,0,0.2-0.1,0.2C32.7,43.5,32.7,43.3,32.8,43z"/>
		<path fill="#27416B" d="M37.2,49.8c0,0,0.1-0.1,0.1-0.1c0.1,0.1,0.1,0.2,0.2,0.3c0,0.1,0,0.1-0.1,0.1C37.3,50,37.2,49.9,37.2,49.8
			z"/>
		<path fill="#0F3D7D" d="M35.1,45.4c0.2,0,0.3,0.1,0.3,0.2C35.4,45.6,35.2,45.5,35.1,45.4z"/>
		<path fill="#0D3C83" d="M39.1,47.5c-0.1,0.1,0,0.4-0.2,0.3C38.9,47.7,39,47.6,39.1,47.5z"/>
		<path fill="#EFF8FA" d="M43.6,46.2c-0.1-0.1-0.2-0.2-0.2-0.3C43.6,45.9,43.6,46,43.6,46.2z"/>
		<path fill="#FEFEFE" d="M44,46.5C44,46.4,44,46.4,44,46.5c0-0.1,0-0.2,0.1-0.3C44.1,46.3,44.1,46.4,44,46.5z"/>
		<path fill="#FEFEFE" d="M42.5,44.7c0.1,0,0.1,0,0.1,0.1c0,0,0,0.1-0.1,0.1C42.5,44.8,42.4,44.8,42.5,44.7
			C42.4,44.7,42.5,44.7,42.5,44.7z"/>
		<path fill="#0D3C83" d="M38.8,48.1C38.8,48.1,38.7,48.1,38.8,48.1c0-0.1,0-0.2,0.1-0.2C38.8,47.9,39.1,48.2,38.8,48.1z"/>
		<path fill="#104079" d="M34.4,45c0,0,0-0.2,0.1-0.1c0.1,0,0.1,0.1,0,0.2C34.5,45.1,34.5,45,34.4,45z"/>
		<path fill="#17375C" d="M33,41.5c0.1,0.2,0,0.3,0,0.5c0,0,0-0.1,0-0.1C33,41.7,33,41.6,33,41.5z"/>
		<path fill="#203459" d="M37.5,47.7C37.5,47.7,37.5,47.7,37.5,47.7c0,0.1,0,0.2,0,0.2c-0.1,0-0.1-0.1-0.1-0.1
			C37.4,47.8,37.5,47.7,37.5,47.7z"/>
		<path fill="#667397" d="M42.4,44.2C42.4,44.3,42.4,44.3,42.4,44.2c0,0.2-0.1,0.1-0.2,0.1C42.2,44.2,42.3,44.3,42.4,44.2z"/>
		<path fill="#0F3D7D" d="M34.7,45.1c0.2-0.1,0.2,0.1,0.2,0.1C34.8,45.2,34.7,45.2,34.7,45.1z"/>
		<path fill="#3E5370" d="M37.4,50.1c0,0,0-0.1,0.1-0.1c0,0.1,0.1,0.2,0.1,0.2c0,0,0,0-0.1,0.1C37.4,50.2,37.4,50.2,37.4,50.1z"/>
		<path fill="#0F3D7D" d="M35,45.3C35,45.3,35,45.3,35,45.3c0.1,0,0.2,0,0.2,0.1C35.1,45.4,35,45.4,35,45.3z"/>
		<path fill="#F3F7F8" d="M40.7,45C40.7,45,40.7,45,40.7,45c0.1,0,0.1,0,0.1,0c0,0.1-0.1,0.2-0.2,0.1l0,0C40.5,44.9,40.6,45,40.7,45
			z"/>
		<path fill="#104079" d="M34.2,44.9c0.1-0.1,0.1,0,0.2,0.1C34.3,45,34.3,44.9,34.2,44.9z"/>
		<path fill="#0F3562" d="M42.2,45.3C42.2,45.4,42.3,45.4,42.2,45.3C42.3,45.4,42.2,45.4,42.2,45.3c-0.1,0.1-0.2,0.1-0.2,0.1
			C42,45.3,42.1,45.4,42.2,45.3z"/>
		<path fill="#FEFEFE" d="M42.4,43.3c0-0.1-0.1-0.1,0-0.2C42.6,43.2,42.5,43.2,42.4,43.3z"/>
		<path fill="#F7FAF7" d="M36.1,47.8c-0.1-0.1-0.1-0.2-0.2-0.2C36.1,47.5,36.1,47.7,36.1,47.8z"/>
		<path fill="#64709A" d="M40.8,44.9C40.7,44.9,40.7,44.9,40.8,44.9c-0.1-0.2,0.1-0.1,0.1-0.1C40.9,44.9,40.8,44.9,40.8,44.9z"/>
		<path fill="#18335D" d="M32.7,44.2C32.7,44.3,32.6,44.3,32.7,44.2c-0.1,0,0-0.1,0-0.2C32.7,44.1,32.7,44.2,32.7,44.2z"/>
		<path fill="#FBFDFC" d="M34.6,44.6c-0.3-0.2-0.5-0.4-0.8-0.5l0,0c-0.1-0.1-0.2,0-0.2-0.1c0,0-0.1,0-0.1,0
			c-0.3-0.2-0.3-0.2-0.2-0.6c0-0.2,0-0.4,0.1-0.6c0-0.1,0-0.1,0-0.2c0-0.1,0-0.3,0-0.4c0.1-0.1,0.1-0.3,0.1-0.5
			c0.1-0.1,0-0.3,0.1-0.4c0,0,0,0,0,0c0,0,0.1-0.1,0.1-0.1c0,0.3,0,0.5,0,0.8c0,0.2,0.1,0.4-0.2,0.5c-0.1,0-0.1,0.3,0,0.4
			c0.1,0.2,0,0.5,0,0.7c0,0.2,0.1,0.2,0.2,0.2c0.1,0,0.1,0.1,0.1,0c0,0,0-0.1,0-0.2c-0.1-0.2-0.1-0.3-0.1-0.5c0.2,0,0.2,0.2,0.2,0.3
			c0,0.3,0.1,0.4,0.4,0.4c0.2,0,0.4,0.3,0.7,0.2c0,0.1,0,0.1,0,0.2c-0.1,0.2,0,0.3,0,0.5c0,0-0.1,0-0.1,0
			C34.7,44.8,34.6,44.7,34.6,44.6z"/>
		<path fill="#F7FBFB" d="M35.4,26.9c0,0.2-0.1,0.4,0.1,0.6c0,0.1,0.1,0.2,0,0.2c-0.2,0.1-0.2,0.3-0.2,0.5c0,0.2,0.1,0.5,0,0.7
			c-0.2,0.3,0,0.7-0.2,1c-0.1,0.3-0.1,0.7-0.2,1c-0.1,0.5,0,1-0.2,1.4c-0.1,0.2,0,0.4,0,0.6c0,0.1-0.1,0.1-0.2,0.1c0,0,0,0,0-0.1
			c0.1-0.4,0.1-0.7,0.1-1.1c0.1-0.2,0.1-0.4,0.1-0.6c0-0.1,0-0.3,0.1-0.4l0,0c0-0.1,0-0.3,0-0.5c0-0.1,0-0.2,0.1-0.3
			c0-0.1,0-0.1,0-0.2c0.1-0.2,0-0.3,0.1-0.5c0.1-0.2,0.1-0.4,0-0.5c0,0,0-0.1,0-0.1c0.1-0.3,0.2-0.5,0.1-0.8c0,0,0,0,0-0.1
			c0.1-0.1,0-0.2,0.1-0.3c0-0.2,0.1-0.4,0.1-0.6C35.3,27.1,35.3,27.1,35.4,26.9C35.3,27,35.4,26.9,35.4,26.9z"/>
		<path fill="#F2F8F9" d="M33.9,38.7c0,0.2-0.1,0.3,0,0.5c0.1,0.2-0.1,0.4-0.1,0.6c0,0.1,0,0.2,0,0.3c0,0.1,0,0.2-0.1,0.3
			c0-0.1,0-0.2,0-0.4c0-0.3-0.1-0.6,0.1-0.9l0,0c0.1-0.1,0-0.3,0.1-0.4C33.8,38.7,33.8,38.7,33.9,38.7
			C33.9,38.7,33.9,38.7,33.9,38.7z"/>
		<path fill="#F4F9FB" d="M34.2,35.9c0.1,0.3,0.2,0.6-0.1,0.9c0-0.1,0-0.3,0-0.4C34.2,36.3,34.1,36.1,34.2,35.9z"/>
		<path fill="#0C386F" d="M34.7,32c-0.1,0.4,0,0.8-0.2,1.1c0,0,0,0-0.1,0C34.5,32.7,34.6,32.3,34.7,32C34.6,31.9,34.7,32,34.7,32z"
			/>
		<path fill="#F4F9FB" d="M33.9,38.7C33.9,38.7,33.9,38.7,33.9,38.7c-0.1-0.2-0.1-0.4-0.1-0.5c0.1-0.1,0-0.3,0.1-0.5c0,0,0,0,0,0
			C33.9,38.1,34,38.4,33.9,38.7z"/>
		<path fill="#12376F" d="M34.4,33.7c0,0.3,0,0.6-0.1,0.9c0-0.2,0-0.5,0-0.7C34.3,33.8,34.3,33.7,34.4,33.7z"/>
		<path fill="#F2F8F9" d="M33.6,41.3c0,0-0.1,0-0.1,0.1c0-0.2,0-0.3,0-0.5c0.1-0.1,0-0.3,0.1-0.5c0,0,0,0,0,0
			C33.7,40.7,33.6,41,33.6,41.3z"/>
		<path fill="#0E3673" d="M34.7,32C34.7,32,34.6,31.9,34.7,32c0-0.3,0-0.5,0-0.8c0-0.1,0-0.2,0.1-0.2C34.7,31.3,34.8,31.7,34.7,32z"
			/>
		<path fill="#F4F9FB" d="M34.1,36.8c0.1,0.2,0,0.5,0,0.7c0,0.1-0.1,0.1-0.1,0.1C34,37.4,34,37.1,34.1,36.8z"/>
		<path fill="#0C3C7C" d="M33.2,43.5c-0.1,0.2,0.1,0.4,0.2,0.5C33,43.9,32.9,43.8,33.2,43.5C33.2,43.5,33.2,43.5,33.2,43.5z"/>
		<path fill="#0E386F" d="M33.7,39.1c0,0.3-0.1,0.6-0.1,0.9c-0.1-0.2,0-0.5,0-0.7C33.6,39.1,33.7,39.1,33.7,39.1z"/>
		<path fill="#0E3873" d="M34.2,35.9c0,0.2,0,0.3-0.1,0.5c0-0.2,0-0.4,0-0.6c0-0.1,0-0.2,0.1-0.2C34.2,35.7,34.2,35.8,34.2,35.9z"/>
		<path fill="#1B375B" d="M33.2,43.5C33.2,43.5,33.2,43.5,33.2,43.5c0-0.2,0-0.3,0-0.5c0-0.1,0-0.2,0.1-0.2
			C33.2,43.1,33.2,43.3,33.2,43.5z"/>
		<path fill="#173958" d="M34.9,30.3c-0.1,0.2,0,0.5-0.1,0.7c0-0.2,0-0.3,0-0.5C34.8,30.4,34.8,30.3,34.9,30.3z"/>
		<path fill="#1C365B" d="M34.3,35.1c0,0.2,0,0.3-0.1,0.5c0-0.2,0-0.4,0-0.7C34.3,34.9,34.2,35,34.3,35.1z"/>
		<path fill="#1B3859" d="M33.6,40.5c0,0.2,0,0.3-0.1,0.5c0-0.2,0-0.4,0-0.6c0,0,0,0,0,0C33.6,40.4,33.6,40.4,33.6,40.5z"/>
		<path fill="#073B80" d="M33.5,44c0.1,0,0.2,0.1,0.2,0.1c-0.1,0-0.2,0.1-0.3,0C33.4,44.1,33.5,44.1,33.5,44z"/>
		<path fill="#183961" d="M33.4,41.4c0,0.1,0,0.3-0.1,0.4c0-0.2,0-0.4,0-0.6C33.5,41.3,33.4,41.3,33.4,41.4z"/>
		<path fill="#19385D" d="M33.8,38.7c0,0.1,0,0.3-0.1,0.4c0-0.2,0-0.4,0-0.5C33.8,38.6,33.8,38.6,33.8,38.7z"/>
		<path fill="#1D355D" d="M34.4,33.1C34.5,33.1,34.5,33.1,34.4,33.1C34.5,33.1,34.5,33.1,34.4,33.1c0.1,0.2,0.1,0.4,0,0.6
			C34.4,33.5,34.4,33.3,34.4,33.1z"/>
		<path fill="#1B3857" d="M33.9,37.8c0,0.2,0,0.3-0.1,0.5C33.9,38,33.8,37.9,33.9,37.8C33.9,37.6,33.9,37.7,33.9,37.8z"/>
		<path fill="#1C3857" d="M33.3,42.3c0,0.1,0,0.3,0,0.4C33.2,42.5,33.3,42.4,33.3,42.3C33.3,42.2,33.3,42.2,33.3,42.3
			C33.3,42.2,33.3,42.2,33.3,42.3z"/>
		<path fill="#173857" d="M33.3,39.4c0-0.1,0-0.3,0.1-0.4c0,0.2,0,0.3,0,0.5C33.4,39.5,33.3,39.5,33.3,39.4
			C33.3,39.4,33.3,39.4,33.3,39.4z"/>
		<path fill="#1C375E" d="M35,29.7c0,0.2,0,0.3-0.1,0.5C34.9,30,34.9,29.8,35,29.7C34.9,29.6,35,29.6,35,29.7z"/>
		<path fill="#073B80" d="M33.1,44c0.1,0.1,0,0.1,0,0.2C33.1,44.2,33.1,44.2,33.1,44z"/>
		<path fill="#FEFEFE" d="M34.5,46.7c0.3,0.2,0.6,0.4,0.8,0.6c0.2,0.3,0.5,0.5,0.7,0.8l0,0c0,0.1,0.1,0.2-0.1,0.3
			c-0.1,0-0.1,0.1,0,0.2c0.1,0.1,0.1,0.2,0.2,0.3c0.1,0,0.1-0.2,0.2-0.2c0,0,0.1,0,0.1,0.1c0,0.1,0,0.2-0.1,0.3
			c-0.1,0.1,0.1,0.3-0.1,0.4c0.1,0.1,0.2,0,0.2,0c0.1-0.1,0.1-0.2,0.2-0.3c0.2,0.3,0.2,0.3,0,0.4c0,0.1,0.1,0,0.2,0.1
			c0.1,0,0.2,0.1,0.2,0.3c-0.1,0.2,0.2,0.3,0.1,0.5c0,0,0.1,0.1,0.2,0.1c0.3,0,0.3,0.3,0.4,0.5c0,0.3,0,0.5,0,0.8
			c-0.1,0-0.1,0-0.2-0.1c0,0.3,0,0.6,0.1,0.8c0,0,0,0.1,0,0.1c-0.2,0.4-0.1,0.8-0.1,1.2c0,1.1,0,2.2,0,3.3c0,0.2-0.1,0.5-0.2,0.6
			C37,57.7,36.9,57.8,37,58c0,0.1,0,0.1,0,0.2c-0.1,0.2-0.2,0.3-0.4,0.3c-0.1,0-0.2-0.1-0.2-0.3c0-0.3-0.1-0.3-0.4-0.3
			c0,0-0.1,0-0.1,0c-0.1-0.1-0.2,0-0.3,0c0,0,0,0,0-0.1c0.1-0.3,0-0.7,0.2-1c0-0.1,0-0.2-0.1-0.3c-0.1-0.2-0.2,0-0.3,0
			c-0.2,0-0.4-0.1-0.5-0.2c-0.1-0.1-0.1-0.1-0.2-0.2l0,0c0-0.1-0.1-0.2-0.1-0.2c0.2-0.4,0.2-0.4-0.2-0.7c-0.2-0.1-0.3-0.4-0.6-0.5
			c-0.1,0-0.1-0.1,0-0.2c0.1-0.1,0.1-0.1,0.1-0.2c-0.1-0.2-0.1-0.4-0.1-0.6c0-0.1-0.2-0.1-0.2-0.2c0-0.1-0.1-0.2-0.2-0.1
			c0,0.1-0.1,0.1-0.2,0c-0.1-0.1-0.3-0.2-0.5-0.2c-0.1,0-0.1,0-0.1-0.1c0-0.1,0-0.1,0.1-0.1c0.1-0.1,0.2-0.2,0.2-0.3
			c-0.1-0.2-0.2-0.3-0.3-0.3c-0.2,0-0.4-0.1-0.6-0.1c-0.3-0.1-0.3-0.1-0.2-0.4c0-0.1,0.2-0.1,0.1-0.2c-0.1-0.1-0.2-0.3-0.4-0.3
			c-0.5,0.1-1-0.1-1.4-0.3c-0.1-0.1,0-0.1,0-0.2c0.2-0.4,0.1-0.5-0.3-0.5c-0.3,0-0.6,0.1-0.9,0c-0.1,0-0.2,0-0.1-0.1
			c0-0.1,0.1-0.1,0.1-0.1c0.3,0,0.3-0.2,0.3-0.4c0-0.1,0-0.2,0-0.2c0-0.1,0.1-0.2,0.2-0.2c0.2,0,0.2-0.1,0.3-0.3l0,0l0,0
			c0.3,0.1,0.4-0.2,0.5-0.4c0.1-0.1,0.1-0.2,0.2-0.2c0.2,0,0.2-0.2,0.3-0.3l0,0c0-0.1,0.1,0,0.1-0.1l0,0c0.2-0.1,0.3-0.2,0.3-0.4
			c0.3-0.3,0.5-0.6,0.8-0.9c0.1-0.1,0.2-0.2,0.4-0.2c0,0,0.1,0,0.1,0c-0.1-0.4,0.4-0.2,0.5-0.4c0.1-0.1,0.6,0.1,0.7,0.2
			c0.1,0.1,0,0.2-0.1,0.2c-0.1,0-0.1,0-0.2-0.1c0,0.1,0.1,0.1,0.2,0.1c0,0,0.1,0,0.1,0c0.3,0,0.5,0.1,0.4,0.4c0,0,0,0.1,0,0.1
			C34.1,46.6,34.1,46.6,34.5,46.7z"/>
		<path fill="#FAFBFB" d="M34.5,46.7c-0.1,0.1-0.3-0.1-0.3,0.1c0,0,0,0.1,0,0.1c0,0.1,0.2,0.1,0,0.2C34,47.1,34,47,34,46.9
			c0-0.1,0-0.2,0.1-0.2c0,0,0-0.1,0-0.1c-0.2,0.1-0.4-0.2-0.6,0c-0.1,0.1-0.2,0.1-0.2-0.1c0,0,0-0.1,0-0.1c0-0.1-0.2,0.1-0.1-0.1
			c0.1-0.1,0.1,0,0.2,0c0.1,0,0.1,0.1,0.2,0.1c-0.2-0.3-0.6-0.3-0.7-0.1c0,0.1-0.1,0.1-0.1,0.1c-0.2,0-0.2,0-0.1,0.2
			c-0.2,0-0.5,0-0.7,0.1c0.2-0.2,0.3-0.5,0.5-0.7c0.1-0.1,0.2-0.1,0.3-0.1c0.4,0.1,0.7,0.2,1.1,0.3c0.1,0.1,0.2,0,0.2,0.1l0,0
			c0.1,0.1,0.2,0,0.2,0.1C34.3,46.6,34.4,46.6,34.5,46.7z"/>
		<path fill="#F7FBFA" d="M30.3,48.5c0,0.3-0.3,0.4-0.4,0.6c-0.1,0.2-0.2-0.1-0.3-0.1C29.8,48.8,30,48.6,30.3,48.5
			C30.3,48.4,30.3,48.4,30.3,48.5z"/>
		<path fill="#F7FBFA" d="M29.6,49c0,0.1,0,0.2,0.1,0.3c-0.2,0.1-0.4-0.1-0.5,0.1c0,0-0.1,0-0.1,0.1c-0.1,0-0.2,0-0.2-0.1
			c0.2-0.1,0.3-0.2,0.5-0.3C29.4,49.1,29.5,49,29.6,49z"/>
		<path fill="#F4F8F9" d="M30.3,48.5C30.3,48.5,30.3,48.5,30.3,48.5c0.1-0.1,0.1-0.3,0.3-0.3C30.6,48.3,30.6,48.5,30.3,48.5z"/>
		<path fill="#F4F8F9" d="M31.1,47.6c0,0.3-0.1,0.4-0.3,0.4C30.9,47.9,31,47.7,31.1,47.6z"/>
		<path fill="#0D3F83" d="M29.2,48.9c0-0.1,0-0.1,0-0.2c0.1,0,0.2,0,0.2,0.1C29.3,48.9,29.2,48.9,29.2,48.9z"/>
		<path fill="#17427B" d="M34.2,46.5c-0.1,0-0.2-0.1-0.2-0.1c0.1,0,0.2-0.1,0.2,0C34.2,46.4,34.2,46.4,34.2,46.5z"/>
		<path fill="#17427B" d="M34,46.4c-0.1,0-0.2-0.1-0.2-0.1C33.8,46.2,33.9,46.2,34,46.4z"/>
		<path fill="#F4F8F9" d="M30.7,48C30.8,48,30.8,48.1,30.7,48c0,0.1-0.1,0.1-0.1,0.1C30.7,48.1,30.7,48,30.7,48z"/>
		<path fill="#1C3966" d="M31,46.8c0-0.1,0.1-0.1,0.1-0.2C31.2,46.8,31.1,46.8,31,46.8z"/>
		<path fill="#183D71" d="M35.7,22.5c0-0.3,0.1-0.7,0.2-1c0,0,0,0,0,0.1c0,0,0,0,0,0c0-0.1,0-0.2,0-0.3c0-0.2,0.1-0.4,0.1-0.6
			c0.2,0.1,0.1,0.3,0.2,0.4c0,0.5-0.1,0.9-0.2,1.3c0,0,0,0.1-0.1,0.1C35.9,22.5,35.8,22.5,35.7,22.5z"/>
		<path fill="#153D73" d="M35.5,24.3c0-0.4,0.1-0.8,0.2-1.2c0,0,0.1,0,0.1,0c0,0,0,0.1,0,0.1c0,0.2,0,0.4,0,0.6c0,0.2,0,0.3,0,0.4
			c-0.1,0.2,0,0.4-0.2,0.6C35.3,24.7,35.5,24.5,35.5,24.3z"/>
		<path fill="#1F3F6C" d="M36.1,21.1c0-0.1,0.1-0.3-0.1-0.4c0-0.3,0.1-0.5,0.1-0.8c0.1,0,0.1,0.1,0.1,0.1
			C36.3,20.4,36.3,20.8,36.1,21.1z"/>
		<path fill="#1B3D6A" d="M35.5,24.3c0,0.2-0.1,0.4,0.1,0.5c0.1,0.2,0,0.4,0,0.6c-0.1,0.1-0.1,0-0.1-0.1c0-0.1,0-0.2-0.1-0.3
			C35.4,24.8,35.4,24.5,35.5,24.3z"/>
		<path fill="#154079" d="M35.4,25.1c0.2,0.1,0.1,0.3,0.2,0.4c0.1,0.1,0.1,0.2-0.1,0.4c-0.2-0.1,0-0.4-0.1-0.6
			C35.4,25.2,35.4,25.1,35.4,25.1z"/>
		<path fill="#153D73" d="M35.7,22.5c0,0,0.1,0,0.1-0.1c0.1,0.1,0.1,0.2,0.1,0.3c0,0.1,0,0.3-0.1,0.4c0,0-0.1,0-0.1,0l0,0
			c0-0.1,0-0.3,0-0.4C35.7,22.6,35.7,22.6,35.7,22.5z"/>
		<path fill="#183D71" d="M35.7,22.7c0,0.1,0,0.3,0,0.4c0,0-0.1,0-0.1,0C35.7,23,35.6,22.8,35.7,22.7z"/>
		<path fill="#19355C" d="M35.9,21.3c0.1,0.1,0,0.2,0,0.3c0,0,0,0,0,0c0,0,0,0,0-0.1C35.9,21.4,35.9,21.3,35.9,21.3z"/>
		<path fill="#F7FBFB" d="M35.7,26.5c0,0.2,0.1,0.4,0,0.7c-0.1-0.2-0.1-0.3-0.3-0.4c0-0.2,0-0.4,0-0.5c0.1-0.1,0-0.2,0.1-0.3
			C35.6,26.2,35.6,26.4,35.7,26.5z"/>
		<path fill="#1C375D" d="M35.3,27c0,0.1,0,0.2,0,0.3c0,0,0,0,0,0c0-0.2,0-0.3,0-0.5C35.3,26.8,35.3,26.9,35.3,27z"/>
		<path fill="#1B3661" d="M35.2,27.8c0,0.1,0,0.2-0.1,0.3C35.1,28,35.1,27.9,35.2,27.8C35.2,27.8,35.2,27.8,35.2,27.8z"/>
		<path fill="#FDFDFD" d="M35.7,26.5c-0.2-0.1-0.3-0.3-0.2-0.5c0,0,0-0.1,0-0.1c0.1-0.2,0.1-0.4,0.1-0.6c0-0.1,0-0.2,0.2-0.1
			c0.1,0.2,0.1,0.4,0,0.6c-0.1,0.1-0.1,0.3,0,0.4C35.8,26.3,35.8,26.4,35.7,26.5z"/>
		<path fill="#F7FBFB" d="M35.8,25.2c-0.2,0-0.2,0.1-0.2,0.2c0,0.2,0.1,0.3-0.1,0.5c0-0.1,0-0.1,0-0.2c0-0.1,0-0.2,0.1-0.4
			c0-0.2,0.1-0.4,0.1-0.6c0-0.2,0.1-0.4,0.1-0.6c0.1,0,0,0.1,0.1,0.1C35.7,24.7,35.7,25,35.8,25.2z"/>
		<path fill="#6A7192" d="M37.6,46.7c0,0.3,0.1,0.6-0.1,0.8c0-2.1,0-4.1,0-6.2c0-0.4,0-0.9,0-1.3c0,0,0,0,0.1,0
			C37.6,42.2,37.6,44.5,37.6,46.7z"/>
		<path fill="#676F99" d="M41.6,38.5c0.1,0.5,0.2,1.1,0.2,1.6c-0.1,0-0.1-0.1-0.1-0.2C41.7,39.5,41.5,39,41.6,38.5z"/>
		<path fill="#666F96" d="M41.2,36.1c0.1,0.4,0.2,0.9,0.2,1.4c-0.1,0.1-0.1,0-0.1-0.1C41.4,37,41.2,36.6,41.2,36.1z"/>
		<path fill="#6370A0" d="M40.2,45.2c0,0.1-0.1,0.1-0.2,0.1c-0.1-0.1-0.2-0.1-0.3-0.2c-0.1,0-0.2-0.1-0.1-0.2c0-0.1,0.1-0.1,0.2-0.1
			c0.1,0,0.1,0.1,0.1,0.2C39.9,45.2,40.1,45.2,40.2,45.2z"/>
		<path fill="#676F95" d="M38,13.4c0.1,0.4,0.2,0.8,0.2,1.2c0,0,0,0-0.1,0C37.9,14.2,37.9,13.8,38,13.4z"/>
		<path fill="#636FAE" d="M40.8,33.3c0,0.2,0,0.4,0,0.6c0,0-0.1,0.1-0.1,0C40.6,33.7,40.6,33.5,40.8,33.3
			C40.7,33.3,40.7,33.3,40.8,33.3z"/>
		<path fill="#657097" d="M39.5,23.9c0.1,0.2,0.1,0.5,0.1,0.7c-0.2,0-0.1-0.2-0.1-0.3C39.5,24.2,39.5,24.1,39.5,23.9z"/>
		<path fill="#676F99" d="M41.8,40.2c0.1,0.3,0.1,0.5,0.1,0.8c-0.2-0.1-0.1-0.3-0.1-0.5C41.8,40.4,41.8,40.3,41.8,40.2z"/>
		<path fill="#676E99" d="M41.5,37.8c0.1,0.2,0.1,0.5,0.1,0.8C41.4,38.3,41.5,38,41.5,37.8z"/>
		<path fill="#687094" d="M39.6,24.8c0.1,0.2,0.1,0.4,0.1,0.7c-0.1,0-0.1,0-0.1-0.1C39.6,25.1,39.6,25,39.6,24.8z"/>
		<path fill="#67708E" d="M37.9,12.6c0,0.2,0,0.5,0.1,0.7C37.8,13.1,37.9,12.8,37.9,12.6C37.9,12.6,37.9,12.6,37.9,12.6z"/>
		<path fill="#686F97" d="M38.1,14.6C38.1,14.6,38.1,14.6,38.1,14.6c0.2,0.1,0.1,0.3,0.1,0.5C37.9,14.9,38.1,14.7,38.1,14.6z"/>
		<path fill="#686D95" d="M42.2,42.6c0.1,0.2,0.1,0.4,0.1,0.6c-0.1,0-0.1,0-0.1-0.1C42.2,43,42.2,42.8,42.2,42.6z"/>
		<path fill="#676F9A" d="M41.1,35.3c0.1,0.2,0.1,0.4,0.1,0.7C41,35.8,41.2,35.5,41.1,35.3z"/>
		<path fill="#68718D" d="M38.7,18.3c0.1,0.2,0.1,0.4,0.1,0.7C38.6,18.7,38.7,18.5,38.7,18.3z"/>
		<path fill="#686F97" d="M38.2,15c0.1,0.2,0.1,0.4,0.1,0.6C38.1,15.5,38.2,15.2,38.2,15z"/>
		<path fill="#64709A" d="M40.7,45c0,0-0.1,0.1-0.1,0.1c-0.1,0-0.2,0.1-0.2,0.1C40.4,45.1,40.4,44.7,40.7,45z"/>
		<path fill="#69718E" d="M42.1,41.8c0.1,0.2,0,0.4,0.1,0.7C42,42.2,42.1,42,42.1,41.8z"/>
		<path fill="#677290" d="M41.9,41c0.1,0.2,0,0.4,0.1,0.5c-0.1,0-0.1,0-0.1-0.1C41.9,41.3,41.9,41.2,41.9,41z"/>
		<path fill="#67709A" d="M39.8,25.9c0.1,0.1,0.1,0.3,0.1,0.4C39.6,26.3,39.7,26.1,39.8,25.9C39.7,25.9,39.7,25.9,39.8,25.9z"/>
		<path fill="#6A738B" d="M38.3,15.9c0.1,0.1,0.1,0.3,0.1,0.5C38.2,16.2,38.3,16,38.3,15.9z"/>
		<path fill="#656E8C" d="M38.4,16.7c0.1,0.1,0.1,0.3,0.1,0.5C38.3,17,38.5,16.8,38.4,16.7z"/>
		<path fill="#677091" d="M42.3,43.4c0.1,0.2,0,0.4,0.1,0.5C42.2,43.8,42.3,43.6,42.3,43.4z"/>
		<path fill="#66708B" d="M37.7,11.8c0.1,0.1,0,0.3,0.1,0.4c0,0,0,0,0,0.1c-0.1,0-0.1,0-0.1-0.1C37.7,12,37.7,11.9,37.7,11.8z"/>
		<path fill="#67708F" d="M41,34.5c0.1,0.1,0,0.3,0.1,0.5C40.9,34.9,41,34.7,41,34.5z"/>
		<path fill="#F5F9FC" d="M37.9,12.6C37.9,12.6,37.9,12.6,37.9,12.6c-0.1-0.1,0-0.2,0-0.4c0.1,0,0,0.2,0.1,0.2
			C37.9,12.5,37.9,12.5,37.9,12.6z"/>
		<path fill="#6A728A" d="M40.9,33.8c0,0,0-0.1,0-0.1c0.1,0.1,0,0.3,0.1,0.4C40.8,34,40.9,33.9,40.9,33.8z"/>
		<path fill="#69718A" d="M39.8,25.9L39.8,25.9L39.8,25.9c-0.1-0.1-0.1-0.2,0-0.4C39.8,25.7,39.8,25.8,39.8,25.9z"/>
		<path fill="#F7FAFB" d="M38.6,15C38.6,15,38.5,15.1,38.6,15c-0.1,0.1-0.1,0.1-0.1,0C38.5,15,38.5,15,38.6,15
			C38.5,15,38.5,15,38.6,15z"/>
		<path fill="#0D3D7D" d="M44.5,47.4c0.3,0.3,0.6,0.6,0.9,0.8c0,0,0,0,0,0c0,0,0,0,0,0c0,0,0,0,0,0c-0.2,0-0.4-0.1-0.5-0.3
			c-0.1-0.1-0.2-0.1-0.3-0.1c-0.1,0,0-0.2-0.1-0.1c0,0-0.1-0.1-0.1-0.1c0-0.1,0.1-0.2,0.1-0.2C44.5,47.5,44.5,47.4,44.5,47.4z"/>
		<path fill="#0E3F7F" d="M45.5,48.3C45.5,48.3,45.5,48.3,45.5,48.3c0.3,0.2,0.6,0.4,0.9,0.6c0,0-0.1,0-0.1,0.1
			c-0.1-0.1-0.1-0.1-0.2-0.1c-0.1-0.1-0.1-0.1-0.2-0.2C45.6,48.6,45.4,48.6,45.5,48.3z"/>
		<path fill="#093B7D" d="M45.8,51c0-0.1-0.2,0-0.1-0.1c0-0.1,0.2-0.2,0.2-0.2c0.3,0.1,0.5-0.1,0.7-0.1c0.1,0,0.1,0,0.1,0.1
			c0,0,0,0,0,0c-0.1,0.1-0.2,0-0.2,0.1l0,0l0,0c-0.2,0-0.3,0.1-0.5,0.2C45.9,51,45.9,51.1,45.8,51z"/>
		<path fill="#093B7D" d="M45.5,51.2c0.1,0,0.2,0,0.3,0c-0.1,0.1-0.3,0.2-0.5,0.3C45.1,51.2,45.5,51.3,45.5,51.2z"/>
		<path fill="#103E79" d="M45.8,51c0.2-0.1,0.4-0.3,0.7-0.2c-0.2,0.1-0.5,0.3-0.7,0.4C45.8,51.1,45.8,51.1,45.8,51z"/>
		<path fill="#0F3F7B" d="M47.7,50.3c0-0.4,0.2-0.1,0.4-0.1C47.9,50.3,47.8,50.3,47.7,50.3z"/>
		<path fill="#103E79" d="M46.9,50.6c0-0.3,0.2-0.2,0.3-0.1C47.1,50.6,47,50.6,46.9,50.6z"/>
		<path fill="#0F3F7B" d="M47.3,50.4c0.1-0.2,0.2-0.1,0.4-0.1C47.6,50.4,47.5,50.5,47.3,50.4z"/>
		<path fill="#103E79" d="M46.5,50.8c0-0.1,0.1-0.1,0.2-0.1C46.7,50.8,46.6,50.8,46.5,50.8z"/>
		<path fill="#133D80" d="M40.2,56.7c0.2-0.3,0.4-0.4,0.6-0.6c-0.1,0.3-0.3,0.6-0.5,0.8C40.2,56.9,40.3,56.7,40.2,56.7z"/>
		<path fill="#1A3864" d="M41.7,54.7c0-0.2,0.1-0.2,0.2-0.3C41.9,54.5,41.8,54.6,41.7,54.7z"/>
		<path fill="#0B3E7D" d="M37.6,63.3c0.1,0,0.1,0,0.2,0.1c-0.1,0-0.1,0.1-0.1,0.2c0,0.1,0,0.2,0,0.2c0,0-0.1,0-0.1,0.1
			C37.6,63.7,37.5,63.5,37.6,63.3z"/>
		<path fill="#0B3E7D" d="M38,62.5c-0.1-0.1,0-0.2,0.1-0.2C38.1,62.4,38.1,62.5,38,62.5z"/>
		<path fill="#163562" d="M37.7,63.9c0-0.1,0-0.2,0-0.2C37.8,63.7,37.8,63.7,37.7,63.9C37.8,63.8,37.8,63.9,37.7,63.9
			C37.8,63.9,37.7,63.9,37.7,63.9z"/>
		<path fill="#FCFDFC" d="M30.1,51c0.1,0,0.2,0,0.2,0c0.3,0.2,0.6,0.2,1,0.3c0.1,0,0.2-0.1,0.3,0c0.2,0.1,0.3,0.3,0.4,0.5
			c0,0,0,0.1,0,0.1c-0.3-0.1-0.2,0.2-0.3,0.3c0.4,0,0.7,0.2,1,0.1c0.3,0,0.3,0.2,0.4,0.4c0.1,0.2-0.1,0.3-0.3,0.4c0,0,0,0-0.1,0
			c0.1,0.1,0.1,0.1,0.2,0.1c0.1,0,0.2,0,0.2,0c0.1,0.2,0.3,0.2,0.4,0c0-0.1,0.2-0.1,0.1,0.1c0,0.1,0.1,0.2,0.1,0.2
			c0.3-0.1,0.2,0.1,0.1,0.1c-0.1,0.2-0.1,0.3,0,0.5c0.1,0.2,0,0.4-0.2,0.5c0.5,0.1,0.6,0.5,1,0.7c0.2,0.1,0.1,0.4-0.1,0.5
			c-0.1,0-0.1-0.1-0.2-0.1l0,0c0-0.1,0-0.1-0.1-0.2l0,0c0-0.1,0-0.2-0.1-0.2l0,0c-0.1-0.1-0.1-0.3-0.2-0.3c-0.1-0.1-0.1-0.2-0.2-0.3
			c-0.6-0.8-1.2-1.6-2-2.2c0,0-0.1-0.1-0.1-0.1c-0.1-0.1-0.2-0.2-0.3-0.3c-0.2-0.1-0.3-0.2-0.5-0.4c-0.2-0.2-0.5-0.4-0.8-0.7
			C30,51.1,30.1,51.1,30.1,51z"/>
		<path fill="#FCFCFC" d="M30.1,51c0,0,0,0.1-0.1,0.1c-0.5-0.3-0.9-0.6-1.4-0.8c-0.1,0-0.2-0.1-0.3-0.1c-0.1,0-0.2-0.1-0.2-0.1
			c-0.1-0.1,0-0.1,0.1-0.2c0.2-0.2,0.5-0.2,0.7-0.4l0,0c0.1,0,0.2,0,0.2,0c0,0.1,0,0.2,0.1,0.2c0,0,0,0.1,0,0.1
			c0,0.3-0.1,0.4-0.3,0.3c-0.1,0-0.1,0-0.2,0.1c0.2,0.2,0.5,0.1,0.8,0.1c0.1,0,0.2,0,0.3,0c0.1,0,0.3-0.1,0.4,0.1
			C30.2,50.6,30.3,50.9,30.1,51z"/>
		<path fill="#0C3C7D" d="M30.9,51.8c0.2,0.1,0.3,0.2,0.5,0.4C31,52.2,30.9,52,30.9,51.8z"/>
		<path fill="#0C3C7D" d="M30.9,52.3c-0.1-0.1-0.2-0.1-0.3-0.2C30.8,52.1,30.9,52.2,30.9,52.3z"/>
		<path fill="#183F75" d="M36,58.9c0,0.1,0,0.1-0.1,0.2c-0.2-0.4-0.4-0.9-0.6-1.3c0.1,0,0.1-0.1,0.2-0.2c0.2,0,0.1,0.2,0.2,0.3l0,0
			C35.8,58.2,36,58.5,36,58.9z"/>
		<path fill="#183F75" d="M35.2,57.5c0.1,0,0.2,0.1,0.1,0.2C35.2,57.6,35.2,57.5,35.2,57.5z"/>
		<path fill="#FBFDFC" d="M35.6,57.8c-0.1-0.1-0.1-0.2-0.2-0.3c-0.2-0.5-0.5-1-0.8-1.5c0.1,0,0.2-0.1,0.2,0c0,0.2,0.2,0.2,0.3,0.3
			c0.1,0.1,0.2,0.1,0.2,0c0.1-0.2,0.2-0.1,0.3,0c0.1,0.2,0.3,0.4,0.1,0.7c0,0.1-0.1,0.1-0.1,0.2C35.8,57.5,35.7,57.7,35.6,57.8z"/>
		<path fill="#F7FAFB" d="M34,55c0.2,0,0.3,0.2,0.2,0.3C34.1,55.3,34,55.1,34,55z"/>
		<path fill="#F7FAFB" d="M34.4,55.7c0.1,0,0.1,0.1,0.2,0.1c0,0.1,0.1,0.2,0.1,0.2C34.6,56,34.5,55.9,34.4,55.7z"/>
		<path fill="#F7FAFB" d="M34.3,55.6c0.1,0,0.2,0,0.1,0.2C34.4,55.7,34.4,55.6,34.3,55.6z"/>
		<path fill="#F7FAFB" d="M34.2,55.4c0.2,0,0.1,0.1,0.1,0.2C34.3,55.5,34.2,55.4,34.2,55.4z"/>
		<path fill="#FCFDFD" d="M35.8,57.8c0.2,0,0.4,0,0.6,0c0,0.1,0,0.1,0,0.2c0,0.1,0,0.3,0.1,0.4c0.1,0.1,0.2-0.1,0.3-0.2
			c0.1,0,0.1-0.2,0-0.3c-0.2-0.2,0-0.3,0.1-0.4c0.2-0.2,0.3-0.4,0.3-0.7c0-0.1,0-0.2,0-0.3c0-0.9,0-1.8,0-2.7c0-0.5-0.2-1,0.1-1.5
			c0-0.1-0.1-0.2-0.1-0.3c0-0.2,0-0.5,0-0.7c0-0.1,0-0.1,0.1-0.1c0.1,0,0.1,0.1,0.1,0.1c0,0.1,0,0.2,0.1,0.2c0,0.5,0,1,0,1.5
			c-0.1,0.3-0.1,0.5,0,0.8c0,0.7,0,1.3,0,2c-0.1,0.2-0.1,0.3,0,0.5c0,0.4,0,0.8,0,1.2c-0.2,0.4-0.3,0.8,0,1.2c0,1.2,0,2.3,0,3.5
			c0,0.2-0.1,0.3-0.2,0.2c0-0.1,0-0.2-0.1-0.2c0,0,0-0.1-0.1-0.1c-0.2-0.9-0.5-1.9-0.8-2.7c-0.1-0.2-0.1-0.3-0.2-0.5
			c0-0.3-0.3-0.6-0.3-0.9C35.7,58,35.7,57.8,35.8,57.8z"/>
		<path fill="#FEFEFE" d="M29.3,51.5c0.1,0.1,0.2,0.1,0.3,0.1c0,0.1,0.1,0.1,0,0.2c-0.1,0.1-0.1,0-0.2-0.1
			C29.4,51.6,29.3,51.5,29.3,51.5z"/>
		<path fill="#F8FBF9" d="M35.8,57.8c-0.2,0.2,0,0.4,0.1,0.5c0.1,0.2,0.2,0.3,0.1,0.5c0,0,0,0,0,0c-0.1-0.3-0.3-0.7-0.4-1
			c0,0,0.1,0,0.1-0.1C35.9,57.6,35.8,57.8,35.8,57.8z"/>
		<path fill="#FDFDFD" d="M35.8,24.4c-0.1,0-0.1-0.1-0.1-0.1c0-0.1,0-0.3,0-0.4c0.1-0.2,0-0.5,0.1-0.7c0-0.1,0-0.3,0-0.4
			c0.1-0.1,0-0.2,0.1-0.3c0.1-0.4,0.1-0.9,0.2-1.3c0.1-0.4,0.1-0.7,0.1-1.1c0.2-0.5,0.2-0.9,0.2-1.4c0.1-0.5,0.2-1.1,0.2-1.6
			c0-0.1,0.1-0.1,0.1-0.2c0.1,0.3-0.1,0.7-0.1,1c0,0.2,0.1,0.2,0.1,0.4c0,0.2,0,0.4-0.2,0.6c0.2,0,0.4,0.3,0.2,0.6
			c-0.1,0.2-0.1,0.3,0,0.5c0.1,0.4,0.1,0.7,0,1c-0.1,0.2,0,0.4,0,0.6c-0.1,0.4-0.1,0.9,0,1.3c0.1,0.3,0.1,0.7,0.1,1
			c0,0.2-0.1,0.3-0.3,0.3c-0.2,0-0.2-0.1-0.1-0.2c0.1-0.1,0.1-0.2,0-0.3c-0.1-0.1-0.1,0-0.2,0c-0.1,0.1-0.3,0.1-0.3,0.3
			C36,24,35.8,24.2,35.8,24.4z"/>
		<path fill="#F2F8F9" d="M33.8,40.5C33.7,40.4,33.7,40.4,33.8,40.5c-0.1-0.1,0-0.1,0-0.1C33.8,40.3,33.8,40.4,33.8,40.5
			C33.8,40.4,33.8,40.4,33.8,40.5z"/>
		<path fill="#0F3D7D" d="M35.4,45.3c-0.3-0.1-0.4-0.2-0.5-0.5c0.1,0.1,0.2,0.2,0.4,0.2C35.3,45.2,35.4,45.2,35.4,45.3z"/>
		<path fill="#183A66" d="M34.6,44.6c0.1,0.1,0.2,0.1,0.2,0.2c0,0,0.1,0,0.1,0.1C34.7,44.8,34.6,44.7,34.6,44.6z"/>
		<path fill="#F4FBFA" d="M28.9,49.5c0,0.3-0.3,0.2-0.5,0.4c-0.1,0.1-0.3,0.1-0.4,0.2c-0.1,0-0.1,0-0.2-0.1c0.1-0.1,0.2-0.1,0.3-0.2
			c0-0.1,0.1-0.1,0.2-0.1C28.5,49.6,28.8,49.6,28.9,49.5z"/>
		<path fill="#123D7A" d="M28.4,49.8c-0.1,0-0.1,0.1-0.2,0.1C28.2,49.7,28.3,49.7,28.4,49.8C28.4,49.7,28.4,49.7,28.4,49.8z"/>
		<path fill="#1B4175" d="M37.6,63.3c0,0.2,0,0.4,0,0.6c0,0,0,0.1-0.1,0.1c0-2,0-4,0-6c0-0.1,0-0.3,0-0.4c0,0.1,0,0.1,0,0.2
			c0,1.1,0,2.2,0,3.3c0.1,0.1,0.1,0.3,0,0.4c0,0,0,0,0,0.1c0.1,0.1,0.1,0.2,0,0.2c0,0.2,0,0.3,0,0.5c0.1,0.3,0,0.6,0,0.8
			C37.6,63.2,37.6,63.3,37.6,63.3z"/>
		<path fill="#FEFEFE" d="M37.5,58.8c-0.2-0.2-0.3-0.6-0.2-0.9c0.1-0.1,0.1-0.3,0.2-0.3C37.5,58,37.5,58.4,37.5,58.8z"/>
		<path fill="#FEFEFE" d="M37.5,54c-0.2-0.2-0.2-0.7,0-0.8C37.5,53.4,37.5,53.7,37.5,54z"/>
		<path fill="#FEFEFE" d="M37.5,56.4c-0.2-0.2-0.2-0.3,0-0.5C37.5,56.1,37.5,56.3,37.5,56.4z"/>
		<path fill="#FCFDFD" d="M37.4,63.1c-0.1-0.1-0.1-0.3,0-0.4C37.5,62.8,37.4,63,37.4,63.1z"/>
		<path fill="#F2F5F7" d="M37.1,62.3c0.2,0,0.1,0.1,0.1,0.2c0,0.1,0,0.2,0,0.2C37.2,62.6,37.2,62.5,37.1,62.3z"/>
		<path fill="#053B7E" d="M44.5,47.4c0,0,0,0.1,0,0.1c-0.2,0-0.4,0.1-0.6-0.1c-0.1,0,0-0.1-0.1-0.1c-0.2-0.1-0.1-0.3-0.1-0.4
			c0-0.1,0.1-0.2,0.1-0.3c0.1,0.1,0.1,0.1,0.2,0.2C44.2,47,44.4,47.2,44.5,47.4z"/>
		<path fill="#0B3E7D" d="M37.6,63.1c0-0.3,0-0.6,0-0.8c0.2,0,0.3,0.1,0.2,0.3c-0.1,0.1-0.1,0.2,0,0.3C37.8,63,37.7,63.1,37.6,63.1z
			"/>
		<path fill="#063A81" d="M45.8,48.7c0,0.1,0.2,0.1,0.2,0.2c-0.1,0-0.1,0.1-0.1,0.1c0,0.1-0.1,0.1-0.2,0.1c-0.1,0-0.1-0.1,0-0.2
			C45.8,48.9,45.8,48.8,45.8,48.7z"/>
		<path fill="#0B3E7D" d="M37.6,61.5c0-0.1,0-0.3,0-0.4c0.1-0.1,0-0.2,0.1-0.3c0.1,0.2,0,0.4,0.1,0.6C37.8,61.5,37.7,61.5,37.6,61.5
			z"/>
		<path fill="#033887" d="M44.4,47.8c0.1,0,0.2,0.1,0.3-0.1c0,0.1-0.1,0.2-0.1,0.3c0,0,0,0.1,0,0.1C44.5,48.1,44.4,47.9,44.4,47.8z"
			/>
		<path fill="#0B3E7D" d="M37.7,58.8c0,0.3,0,0.6,0,0.9c0,0,0,0,0,0C37.7,59.4,37.7,59.1,37.7,58.8C37.7,58.8,37.7,58.8,37.7,58.8z"
			/>
		<path fill="#033887" d="M44.6,48.1c0.1,0,0.2,0,0.3,0.1c0,0,0,0.1-0.1,0.1C44.7,48.3,44.7,48.2,44.6,48.1z"/>
		<path fill="#053B7E" d="M43.6,46.5c0.1,0,0.1,0,0.1,0.1c-0.1,0-0.1,0.1-0.2,0.1C43.4,46.6,43.5,46.5,43.6,46.5z"/>
		<path fill="#063B7E" d="M42.5,53.3c0,0.1-0.1,0.1-0.1,0.1c-0.1,0,0-0.1,0-0.1C42.3,53.2,42.3,53.2,42.5,53.3
			C42.4,53.2,42.4,53.3,42.5,53.3z"/>
		<path fill="#083C7E" d="M40,56.9C40,56.9,40,56.9,40,56.9c-0.1,0.1-0.2,0-0.2,0c0,0,0-0.1,0.1-0.1C40,56.8,40,56.8,40,56.9z"/>
		<path fill="#083A7D" d="M39.1,58.8C39,58.7,39,58.7,39.1,58.8c-0.1-0.1,0-0.2,0-0.2c0,0,0.1,0,0.1,0.1
			C39.1,58.7,39.1,58.7,39.1,58.8z"/>
		<path fill="#0D3C83" d="M39,48.3c0-0.1,0.1-0.2,0.1-0.3C39.1,48.1,39.1,48.2,39,48.3z"/>
		<path fill="#07388A" d="M43.8,47.3c0-0.1,0-0.1,0.1-0.1c0.1,0,0,0.1,0,0.2C43.9,47.4,43.8,47.4,43.8,47.3z"/>
		<path fill="#053B7E" d="M43.7,47.5c-0.1,0.1-0.2,0.1-0.2,0c0,0,0,0,0-0.1C43.5,47.4,43.6,47.4,43.7,47.5z"/>
		<path fill="#0E3F7F" d="M45.2,48.6c0.1,0.1,0.2,0.1,0.2,0.2C45.3,48.8,45.3,48.8,45.2,48.6z"/>
		<path fill="#053B7E" d="M43.4,47.2c0.1,0.1,0.1,0.1,0.1,0.2c0,0,0,0-0.1,0C43.3,47.3,43.3,47.3,43.4,47.2z"/>
		<path fill="#0B3E7D" d="M37.6,61.8c0-0.1,0-0.2,0-0.2C37.8,61.7,37.8,61.8,37.6,61.8z"/>
		<path fill="#093B7D" d="M45.5,51.2c-0.1,0-0.1,0-0.2,0c0,0,0-0.1,0-0.1C45.4,51,45.4,51,45.5,51.2z"/>
		<path fill="#F6FAF8" d="M36,48.1c-0.3,0-0.7-0.5-0.7-0.8C35.5,47.6,35.8,47.8,36,48.1z"/>
		<path fill="#FBFDFC" d="M35,56c0.1-0.1,0.2-0.1,0.3,0C35.3,56.1,35.2,56.2,35,56z"/>
		<path fill="#F4FBFA" d="M29.3,49.8c-0.3,0-0.1-0.1-0.1-0.2c0,0,0,0,0.1,0C29.2,49.6,29.3,49.7,29.3,49.8z"/>
		<path fill="#1A375D" d="M35.9,22.4c0,0.1,0,0.2-0.1,0.3C35.8,22.6,35.8,22.5,35.9,22.4C35.9,22.4,35.9,22.4,35.9,22.4z"/>
		<path fill="#183D71" d="M35.8,23.1c0,0.2,0,0.5-0.1,0.7c0-0.2,0-0.4,0-0.7C35.8,23.1,35.8,23.1,35.8,23.1z"/>
		<path fill="#FEFEFE" d="M31.7,51.7c-0.1,0.3-0.3,0.1-0.4,0.1c0,0-0.1-0.1-0.1-0.1c0-0.1,0.1-0.1,0.1-0.1
			C31.4,51.6,31.6,51.6,31.7,51.7z"/>
		<path fill="#FEFEFE" d="M37.1,58.9c-0.2-0.2-0.2-0.8-0.1-1c0,0,0-0.1,0.1,0c0.1,0,0,0.1,0,0.1c0,0,0,0.1,0,0.1
			C37.1,58.4,37.1,58.6,37.1,58.9z"/>
		<path fill="#F8FBF9" d="M36.1,58.2C36.1,58.2,36.2,58.2,36.1,58.2c0.1,0.1,0.1,0.2,0,0.2C36,58.4,36,58.3,36.1,58.2
			C36,58.2,36,58.2,36.1,58.2z"/>
	</g>
	<rect y="0.4" fill="#C3161C" width="7" height="37.8"/>
	<rect x="68" y="0.4" fill="#FDB813" width="7" height="37.8"/>
	
		<rect x="15.3" y="-15.3" transform="matrix(2.232862e-011 1 -1 2.232862e-011 22.3834 -15.3367)" fill="#C3161C" width="7" height="37.7"/>
	
		<rect x="52.6" y="-15.3" transform="matrix(2.232862e-011 1 -1 2.232862e-011 59.6633 -52.6166)" fill="#FDB813" width="7" height="37.7"/>
	<g>
		<rect y="37.7" fill="#6CCEF5" width="7" height="37.8"/>
		<rect x="68" y="37.7" fill="#1A75BC" width="7" height="37.8"/>
		
			<rect x="15.3" y="53.1" transform="matrix(2.232887e-011 -1 1 2.232887e-011 -53.0624 90.7825)" fill="#6CCEF5" width="7" height="37.7"/>
		
			<rect x="52.6" y="53.1" transform="matrix(2.232887e-011 -1 1 2.232887e-011 -15.7825 128.0624)" fill="#1A75BC" width="7" height="37.7"/>
	</g>
</g>
</svg>
