<?xml version="1.0" encoding="utf-8"?>
<!-- Generator: Adobe Illustrator 19.2.1, SVG Export Plug-In . SVG Version: 6.00 Build 0)  -->
<svg version="1.1" id="Layer_1" xmlns="http://www.w3.org/2000/svg" xmlns:xlink="http://www.w3.org/1999/xlink" x="0px" y="0px"
	 viewBox="0 0 75 75" enable-background="new 0 0 75 75" xml:space="preserve">
<g>
	
		<radialGradient id="SVGID_1_" cx="179.0149" cy="73.875" r="87.6857" gradientTransform="matrix(1 0 0 1 -102 -74)" gradientUnits="userSpaceOnUse">
		<stop  offset="5.610289e-002" style="stop-color:#FFFFFF"/>
		<stop  offset="0.1207" style="stop-color:#FAFAF6"/>
		<stop  offset="0.2281" style="stop-color:#EDEEDC"/>
		<stop  offset="0.3398" style="stop-color:#DBDDBB"/>
		<stop  offset="0.4339" style="stop-color:#CDD0A0"/>
		<stop  offset="0.6343" style="stop-color:#A9AF5C"/>
		<stop  offset="0.8345" style="stop-color:#828B12"/>
		<stop  offset="0.8501" style="stop-color:#828B12"/>
		<stop  offset="0.9453" style="stop-color:#828B12"/>
	</radialGradient>
	<path fill="url(#SVGID_1_)" d="M71.8,72c-37.5,0-68-30-68-68h67.9L71.8,72z"/>
	<linearGradient id="SVGID_2_" gradientUnits="userSpaceOnUse" x1="76.0478" y1="0.8293" x2="23.4664" y2="50.8503">
		<stop  offset="2.273666e-002" style="stop-color:#FFFFFF"/>
		<stop  offset="0.1088" style="stop-color:#FAFAF6"/>
		<stop  offset="0.252" style="stop-color:#ECEDDC"/>
		<stop  offset="0.4347" style="stop-color:#D5D7B2"/>
		<stop  offset="0.6498" style="stop-color:#B5B979"/>
		<stop  offset="0.8894" style="stop-color:#8D9430"/>
		<stop  offset="0.9944" style="stop-color:#7A820E"/>
	</linearGradient>
	<polygon fill="url(#SVGID_2_)" points="0,75 0,0 75,0 75,75 	"/>
	<path fill="#4A4608" d="M35.9,61.6c0.4-0.6,0.1-1.4,0.1-1.4s0,0.4,0-0.2c0-0.6-0.1-1.9-0.1-1.9l0-10.6c0,0,0-0.5,0-0.6
		c0-0.1,0-0.2,0-0.2c0,0,0-0.1,0.1-0.2c0.1-0.1,0.1-0.1,0.2-0.1c0.1,0,0.1,0,0.4-0.3s1.5-1.5,1.5-1.6c0-0.2-0.6-0.1-0.7,0.1
		c-0.1,0.1-0.5,0.3-0.8,0.5c-0.3,0.2-0.4,0.3-0.5,0.3c-0.2,0-0.1,0.4-0.6,0.2c-0.5-0.2-0.7-0.8-0.7-0.8s-0.5-0.2-0.9-0.3
		s-0.4,0-0.4,0s0.6,0.7,0.7,0.9c0.1,0.2,0.2,0.2,0.2,0.6c0,0.3,0.1,13,0.2,13.3c0,0.3-0.5,1.5-0.5,1.5"/>
	<path fill="#4A4608" d="M20.2,48.3c0.3-0.6,0.3-1.9,0.3-1.9s0,0.4,0-0.2s-0.1-1.9-0.1-1.9l0-10.7c0,0,0-0.5,0-0.6
		c0-0.1,0-0.2,0-0.3c0,0,0-0.1,0.1-0.2c0.1-0.1,0.1-0.1,0.2-0.1c0.1,0,0.1,0,0.4-0.3c0.3-0.3,1.4-1.5,1.4-1.6c0-0.2-0.6-0.1-0.6,0.1
		c-0.1,0.1-0.5,0.3-0.7,0.5c-0.2,0.2-0.3,0.3-0.5,0.3c-0.2,0-0.1,0.4-0.5,0.2c-0.4-0.2-0.6-0.8-0.6-0.8s-0.5-0.2-0.8-0.3
		c-0.3-0.1-0.3,0-0.3,0s0.5,0.7,0.6,0.9c0.1,0.2,0.2,0.2,0.2,0.6c0,0.3,0.1,13.1,0.1,13.4S19,46.8,19,46.8"/>
	<path fill="#4A4608" d="M55.9,70c0.5-0.8,0.2-2.1,0.2-2.1s0,0.6,0-0.3c0.1-0.9-0.1-2.8-0.1-2.8L56,49c0,0,0-0.8,0-0.9
		c0-0.1,0-0.3-0.1-0.4c0,0,0-0.2,0.1-0.3c0.1-0.1,0.2-0.1,0.3-0.2c0.1,0,0.1,0,0.6-0.4c0.5-0.4,2.2-2.2,2.2-2.3c0-0.3-0.9-0.1-1,0.1
		c-0.2,0.2-0.8,0.4-1.1,0.7c-0.4,0.4-0.5,0.5-0.8,0.5c-0.3,0-0.1,0.6-0.8,0.2c-0.7-0.3-1-1.2-1-1.2s-0.8-0.4-1.3-0.5
		c-0.5-0.1-0.5,0-0.5,0s0.8,1.1,0.9,1.3c0.1,0.3,0.2,0.3,0.3,0.8c0.1,0.5,0.2,19.3,0.2,19.7c0,0.5-0.9,3-0.9,3"/>
	<path fill="#4A4608" d="M46.7,67.1c0.2-0.2,0.1-0.6,0.1-0.6s0,0.2,0-0.1s0-0.8,0-0.8l0-4.7c0,0,0-0.2,0-0.3c0,0,0-0.1,0-0.1
		c0,0,0-0.1,0-0.1c0,0,0,0,0.1-0.1c0,0,0,0,0.2-0.1c0.2-0.1,0.7-0.7,0.7-0.7c0-0.1-0.3,0-0.3,0c-0.1,0.1-0.2,0.1-0.4,0.2
		c-0.1,0.1-0.2,0.1-0.2,0.2c-0.1,0,0,0.2-0.3,0.1c-0.2-0.1-0.3-0.4-0.3-0.4s-0.3-0.1-0.4-0.1c-0.2,0-0.2,0-0.2,0s0.3,0.3,0.3,0.4
		c0,0.1,0.1,0.1,0.1,0.2c0,0.1,0.1,5.8,0.1,5.9c0,0.1-0.2,0.8-0.2,0.8"/>
	<g>
		
			<radialGradient id="SVGID_3_" cx="62.8585" cy="45.3437" r="8.6205" gradientTransform="matrix(0.9784 0.2068 -0.2068 0.9784 -3.3562 -8.79)" gradientUnits="userSpaceOnUse">
			<stop  offset="0" style="stop-color:#FFFFFF"/>
			<stop  offset="4.130693e-002" style="stop-color:#FAFAF6"/>
			<stop  offset="0.1097" style="stop-color:#EDEEDC"/>
			<stop  offset="0.1527" style="stop-color:#E3E4C9"/>
			<stop  offset="0.2237" style="stop-color:#DADCB9"/>
			<stop  offset="0.3623" style="stop-color:#C4C88F"/>
			<stop  offset="0.3793" style="stop-color:#C1C589"/>
			<stop  offset="0.4742" style="stop-color:#B9BF6F"/>
			<stop  offset="0.6764" style="stop-color:#A5AE2C"/>
			<stop  offset="0.7241" style="stop-color:#A0AA1B"/>
			<stop  offset="0.9533" style="stop-color:#828B12"/>
		</radialGradient>
		<circle fill="url(#SVGID_3_)" cx="47.4" cy="53.4" r="6.1"/>
		
			<radialGradient id="SVGID_4_" cx="44.2497" cy="10.0479" r="13.1024" gradientTransform="matrix(0.9188 0.3948 -0.3948 0.9188 -12.0279 -11.5328)" gradientUnits="userSpaceOnUse">
			<stop  offset="0" style="stop-color:#FFFFFF"/>
			<stop  offset="4.130693e-002" style="stop-color:#FAFAF6"/>
			<stop  offset="0.1097" style="stop-color:#EDEEDC"/>
			<stop  offset="0.1527" style="stop-color:#E3E4C9"/>
			<stop  offset="0.2237" style="stop-color:#DADCB9"/>
			<stop  offset="0.3623" style="stop-color:#C4C88F"/>
			<stop  offset="0.3793" style="stop-color:#C1C589"/>
			<stop  offset="0.4742" style="stop-color:#B9BF6F"/>
			<stop  offset="0.6764" style="stop-color:#A5AE2C"/>
			<stop  offset="0.7241" style="stop-color:#A0AA1B"/>
			<stop  offset="0.9533" style="stop-color:#828B12"/>
		</radialGradient>
		<circle fill="url(#SVGID_4_)" cx="21.2" cy="21.9" r="9.3"/>
		<radialGradient id="SVGID_5_" cx="37.4561" cy="21.9991" r="17.9143" gradientUnits="userSpaceOnUse">
			<stop  offset="0" style="stop-color:#FFFFFF"/>
			<stop  offset="4.130693e-002" style="stop-color:#FAFAF6"/>
			<stop  offset="0.1097" style="stop-color:#EDEEDC"/>
			<stop  offset="0.1527" style="stop-color:#E3E4C9"/>
			<stop  offset="0.2237" style="stop-color:#DADCB9"/>
			<stop  offset="0.3623" style="stop-color:#C4C88F"/>
			<stop  offset="0.3793" style="stop-color:#C1C589"/>
			<stop  offset="0.4742" style="stop-color:#B9BF6F"/>
			<stop  offset="0.6764" style="stop-color:#A5AE2C"/>
			<stop  offset="0.7241" style="stop-color:#A0AA1B"/>
			<stop  offset="0.9533" style="stop-color:#828B12"/>
		</radialGradient>
		<circle fill="url(#SVGID_5_)" cx="36.7" cy="32.4" r="12.8"/>
		<radialGradient id="SVGID_6_" cx="55.3483" cy="14.6587" r="23.7687" gradientUnits="userSpaceOnUse">
			<stop  offset="0" style="stop-color:#FFFFFF"/>
			<stop  offset="4.130693e-002" style="stop-color:#FAFAF6"/>
			<stop  offset="0.1097" style="stop-color:#EDEEDC"/>
			<stop  offset="0.1527" style="stop-color:#E3E4C9"/>
			<stop  offset="0.2237" style="stop-color:#DADCB9"/>
			<stop  offset="0.3623" style="stop-color:#C4C88F"/>
			<stop  offset="0.3793" style="stop-color:#C1C589"/>
			<stop  offset="0.4742" style="stop-color:#B9BF6F"/>
			<stop  offset="0.6764" style="stop-color:#A5AE2C"/>
			<stop  offset="0.7241" style="stop-color:#A0AA1B"/>
			<stop  offset="0.9533" style="stop-color:#828B12"/>
		</radialGradient>
		<circle fill="url(#SVGID_6_)" cx="54.3" cy="28.4" r="16.9"/>
	</g>
</g>
</svg>
