<?xml version="1.0" encoding="utf-8"?>
<!-- Generator: Adobe Illustrator 19.2.1, SVG Export Plug-In . SVG Version: 6.00 Build 0)  -->
<svg version="1.1" id="Layer_1" xmlns="http://www.w3.org/2000/svg" xmlns:xlink="http://www.w3.org/1999/xlink" x="0px" y="0px"
	 viewBox="0 0 75 75" enable-background="new 0 0 75 75" xml:space="preserve">
<g>
	<rect fill="#CCCCCC" width="75" height="75"/>
	<path d="M55.2,50.3l-6.3-6.3c1.6-2.5,2.5-5.4,2.5-8.6c0-8.8-7.1-16-16-16s-16,7.1-16,16s7.1,16,16,16c3.2,0,6.1-0.9,8.6-2.5
		l6.3,6.3c0.4,0.4,1.2,0.4,1.6,0l3.2-3.2C55.6,51.5,55.6,50.8,55.2,50.3z M35.5,46.9c-6.3,0-11.4-5.1-11.4-11.4s5.1-11.4,11.4-11.4
		s11.4,5.1,11.4,11.4S41.7,46.9,35.5,46.9z"/>
</g>
</svg>
