<?xml version="1.0" encoding="utf-8"?>
<!-- Generator: Adobe Illustrator 19.2.1, SVG Export Plug-In . SVG Version: 6.00 Build 0)  -->
<svg version="1.1" id="Layer_1" xmlns="http://www.w3.org/2000/svg" xmlns:xlink="http://www.w3.org/1999/xlink" x="0px" y="0px"
	 viewBox="0 0 25 25" enable-background="new 0 0 25 25" xml:space="preserve">
<path d="M22.3,19.6l-3.5-3.5c0.9-1.4,1.4-3,1.4-4.8c0-4.9-4-8.9-8.9-8.9s-8.9,4-8.9,8.9s4,8.9,8.9,8.9c1.8,0,3.4-0.5,4.8-1.4
	l3.5,3.5c0.2,0.2,0.6,0.2,0.9,0l1.8-1.8C22.6,20.3,22.6,19.9,22.3,19.6z M11.4,17.7c-3.5,0-6.3-2.8-6.3-6.3S7.9,5,11.4,5
	s6.3,2.8,6.3,6.3S14.9,17.7,11.4,17.7z"/>
</svg>
